<svg width="1166" height="1100" viewBox="0 0 1166 1100" fill="none" xmlns="http://www.w3.org/2000/svg">
    <rect x="66" y="1" width="1042" height="1098" fill="black" stroke="white" stroke-width="2"/>
    <path d="M569.788 443.427V433.502H574.477C576.088 433.502 576.894 434.308 576.894 435.919V436.782C576.894 437.108 576.798 437.386 576.606 437.616L576.103 438.22L576.707 438.724C577.023 438.983 577.181 439.366 577.181 439.875V441.011C577.181 442.622 576.376 443.427 574.765 443.427H569.788ZM571.859 441.557H574.679C574.966 441.557 575.11 441.414 575.11 441.126V439.688C575.11 439.4 574.966 439.256 574.679 439.256H571.859V441.557ZM571.859 437.386H574.391C574.679 437.386 574.822 437.242 574.822 436.955V435.804C574.822 435.516 574.679 435.372 574.391 435.372H571.859V437.386ZM578.97 441.097V435.833H580.955V441.241C580.955 441.548 581.108 441.701 581.415 441.701H583.515V435.833H585.5V443.427H581.3C579.747 443.427 578.97 442.651 578.97 441.097ZM586.791 436.135L586.992 435.833H588.704L590.459 441.701H590.603L592.358 435.833H594.069L594.271 436.135L591.092 446.304H589.38L589.179 446.002L590.042 443.427H589.078L586.791 436.135ZM599.16 443.427V433.502H605.949V435.372H601.231V437.818H605.517V439.688H601.231V443.427H599.16ZM607.56 443.427V433.502H612.393C614.004 433.502 614.809 434.308 614.809 435.919V437.559C614.809 438.757 614.363 439.51 613.471 439.817L615.097 442.996L614.852 443.427H613.069L611.314 439.975H609.631V443.427H607.56ZM609.631 438.105H612.306C612.594 438.105 612.738 437.961 612.738 437.674V435.804C612.738 435.516 612.594 435.372 612.306 435.372H609.631V438.105ZM615.966 443.039L618.915 433.502H622.079L625.028 443.039L624.769 443.427H623.043L622.439 441.414H618.555L617.951 443.427H616.225L615.966 443.039ZM619.116 439.544H621.878L620.612 435.372H620.382L619.116 439.544ZM626.323 441.011V435.919C626.323 434.308 627.128 433.502 628.739 433.502H632.58L633.543 434.25V435.372H628.825C628.538 435.372 628.394 435.516 628.394 435.804V441.126C628.394 441.414 628.538 441.557 628.825 441.557H633.543V442.679L632.58 443.427H628.739C627.128 443.427 626.323 442.622 626.323 441.011ZM634.608 435.372V433.502H642.72V435.372H639.7V443.427H637.629V435.372H634.608ZM644.25 443.427V433.502H646.321V443.427H644.25ZM648.53 441.011V435.919C648.53 434.308 649.336 433.502 650.947 433.502H654.226C655.837 433.502 656.643 434.308 656.643 435.919V441.011C656.643 442.622 655.837 443.427 654.226 443.427H650.947C649.336 443.427 648.53 442.622 648.53 441.011ZM650.602 441.126C650.602 441.414 650.746 441.557 651.033 441.557H654.14C654.428 441.557 654.572 441.414 654.572 441.126V435.804C654.572 435.516 654.428 435.372 654.14 435.372H651.033C650.746 435.372 650.602 435.516 650.602 435.804V441.126ZM658.858 443.427V433.502H661.102L665.043 440.018V433.502H667.114V443.427H664.871L660.929 436.911V443.427H658.858ZM669.046 442.679V441.557H673.505C673.793 441.557 673.936 441.414 673.936 441.126V440.076C673.936 439.807 673.817 439.649 673.577 439.601L670.772 439.04C669.621 438.81 669.046 438.038 669.046 436.724V435.919C669.046 434.308 669.851 433.502 671.462 433.502H674.756L675.72 434.25V435.372H671.549C671.261 435.372 671.117 435.516 671.117 435.804V436.739C671.117 437.007 671.237 437.166 671.477 437.214L674.282 437.774C675.432 438.005 676.008 438.777 676.008 440.09V441.011C676.008 442.622 675.202 443.427 673.591 443.427H670.01L669.046 442.679ZM681.101 441.097V439.86C681.101 439.361 681.26 438.978 681.576 438.709L682.18 438.206L681.677 437.602C681.485 437.372 681.389 437.094 681.389 436.768V435.833C681.389 434.279 682.166 433.502 683.719 433.502H686.337L687.2 434.15V435.229H683.834C683.527 435.229 683.374 435.382 683.374 435.689V436.926C683.374 437.233 683.527 437.386 683.834 437.386H689.358V439.112H687.919V443.427H683.431C681.878 443.427 681.101 442.651 681.101 441.097ZM683.086 441.241C683.086 441.548 683.24 441.701 683.547 441.701H685.934V439.112H683.547C683.24 439.112 683.086 439.266 683.086 439.572V441.241ZM548.767 461.427V451.502H552.536C555.24 451.502 556.592 452.855 556.592 455.559V457.371C556.592 460.075 555.24 461.427 552.536 461.427H548.767ZM550.838 459.557H552.651C553.897 459.557 554.521 458.934 554.521 457.688V455.242C554.521 453.996 553.897 453.372 552.651 453.372H550.838V459.557ZM558.67 461.427V451.502H565.459V453.372H560.741V455.386H565.028V457.256H560.741V459.557H565.459V461.427H558.67ZM567.351 461.427V451.502H572.184C573.795 451.502 574.6 452.308 574.6 453.919V455.559C574.6 456.757 574.155 457.51 573.263 457.817L574.888 460.996L574.644 461.427H572.86L571.105 457.975H569.422V461.427H567.351ZM569.422 456.105H572.098C572.385 456.105 572.529 455.961 572.529 455.674V453.804C572.529 453.516 572.385 453.372 572.098 453.372H569.422V456.105ZM576.678 461.427V451.502H578.749V461.427H576.678ZM580.182 451.891L580.441 451.502H582.253L584.526 459.557H584.756L587.029 451.502H588.841L589.1 451.891L586.281 461.427H583.001L580.182 451.891ZM589.046 461.039L591.994 451.502H595.159L598.107 461.039L597.848 461.427H596.122L595.518 459.414H591.635L591.031 461.427H589.304L589.046 461.039ZM592.196 457.544H594.957L593.692 453.372H593.461L592.196 457.544ZM597.995 453.372V451.502H606.108V453.372H603.087V461.427H601.016V453.372H597.995ZM607.637 461.427V451.502H609.708V461.427H607.637ZM611.141 451.891L611.4 451.502H613.212L615.485 459.557H615.715L617.988 451.502H619.8L620.059 451.891L617.24 461.427H613.96L611.141 451.891ZM621.501 461.427V451.502H628.29V453.372H623.572V455.386H627.859V457.256H623.572V459.557H628.29V461.427H621.501ZM629.75 460.679V459.557H634.209C634.497 459.557 634.641 459.414 634.641 459.126V458.076C634.641 457.807 634.521 457.649 634.281 457.601L631.476 457.04C630.326 456.81 629.75 456.038 629.75 454.724V453.919C629.75 452.308 630.556 451.502 632.167 451.502H635.461L636.424 452.25V453.372H632.253C631.965 453.372 631.822 453.516 631.822 453.804V454.739C631.822 455.007 631.941 455.166 632.181 455.214L634.986 455.774C636.137 456.005 636.712 456.777 636.712 458.09V459.011C636.712 460.622 635.907 461.427 634.296 461.427H630.714L629.75 460.679ZM641.95 459.011V453.919C641.95 452.308 642.755 451.502 644.366 451.502H647.646C649.257 451.502 650.062 452.308 650.062 453.919V459.011C650.062 460.622 649.257 461.427 647.646 461.427H644.366C642.755 461.427 641.95 460.622 641.95 459.011ZM644.021 459.126C644.021 459.414 644.165 459.557 644.452 459.557H647.559C647.847 459.557 647.991 459.414 647.991 459.126V453.804C647.991 453.516 647.847 453.372 647.559 453.372H644.452C644.165 453.372 644.021 453.516 644.021 453.804V459.126ZM652.277 461.427V451.502H654.521L658.462 458.018V451.502H660.534V461.427H658.29L654.349 454.911V461.427H652.277ZM666.352 461.427V451.502H673.141V453.372H668.423V455.818H672.71V457.688H668.423V461.427H666.352ZM674.752 461.427V451.502H679.585C681.196 451.502 682.001 452.308 682.001 453.919V455.559C682.001 456.757 681.555 457.51 680.664 457.817L682.289 460.996L682.045 461.427H680.261L678.506 457.975H676.823V461.427H674.752ZM676.823 456.105H679.499C679.786 456.105 679.93 455.961 679.93 455.674V453.804C679.93 453.516 679.786 453.372 679.499 453.372H676.823V456.105ZM683.158 461.039L686.107 451.502H689.271L692.22 461.039L691.961 461.427H690.235L689.631 459.414H685.747L685.143 461.427H683.417L683.158 461.039ZM686.308 457.544H689.07L687.804 453.372H687.574L686.308 457.544ZM693.659 461.427V451.502H695.73V455.429L699.24 451.502H701.182L701.383 451.92L698.089 455.587L701.742 461.01L701.541 461.427H699.642L696.751 457.083L695.73 458.191V461.427H693.659ZM702.489 453.372V451.502H710.601V453.372H707.581V461.427H705.509V453.372H702.489ZM561.135 479.427V469.502H565.968C567.579 469.502 568.385 470.308 568.385 471.919V473.846C568.385 475.457 567.579 476.263 565.968 476.263H563.207V479.427H561.135ZM563.207 474.393H565.882C566.17 474.393 566.313 474.249 566.313 473.961V471.804C566.313 471.516 566.17 471.372 565.882 471.372H563.207V474.393ZM568.811 479.039L571.76 469.502H574.924L577.873 479.039L577.614 479.427H575.888L575.284 477.414H571.4L570.796 479.427H569.07L568.811 479.039ZM571.961 475.544H574.723L573.457 471.372H573.227L571.961 475.544ZM579.312 479.427V469.502H581.383V479.427H579.312ZM583.736 479.427V469.502H588.569C590.18 469.502 590.986 470.308 590.986 471.919V473.559C590.986 474.757 590.54 475.51 589.648 475.817L591.274 478.996L591.029 479.427H589.245L587.491 475.975H585.808V479.427H583.736ZM585.808 474.105H588.483C588.771 474.105 588.915 473.961 588.915 473.674V471.804C588.915 471.516 588.771 471.372 588.483 471.372H585.808V474.105ZM592.632 478.679V477.557H597.091C597.379 477.557 597.522 477.414 597.522 477.126V476.076C597.522 475.807 597.403 475.649 597.163 475.601L594.358 475.04C593.207 474.81 592.632 474.038 592.632 472.724V471.919C592.632 470.308 593.437 469.502 595.048 469.502H598.342L599.306 470.25V471.372H595.135C594.847 471.372 594.703 471.516 594.703 471.804V472.739C594.703 473.007 594.823 473.166 595.063 473.214L597.868 473.774C599.018 474.005 599.594 474.777 599.594 476.09V477.011C599.594 478.622 598.788 479.427 597.177 479.427H593.596L592.632 478.679ZM604.831 477.27V474.105C604.831 472.667 605.55 471.948 606.989 471.948H609.002C610.441 471.948 611.16 472.667 611.16 474.105V477.27C611.16 478.708 610.441 479.427 609.002 479.427H606.989C605.55 479.427 604.831 478.708 604.831 477.27ZM605.982 477.414C605.982 478.085 606.318 478.42 606.989 478.42H609.002C609.674 478.42 610.009 478.085 610.009 477.414V473.961C610.009 473.29 609.674 472.955 609.002 472.955H606.989C606.318 472.955 605.982 473.29 605.982 473.961V477.414ZM613.346 479.427V471.948H617.374C618.812 471.948 619.531 472.667 619.531 474.105V479.427H618.381V473.961C618.381 473.29 618.045 472.955 617.374 472.955H614.497V479.427H613.346ZM625.23 479.427V470.941C625.23 469.502 625.949 468.783 627.387 468.783H628.682L629.257 469.215V469.79H627.387C626.716 469.79 626.38 470.126 626.38 470.797V471.948H629.113V472.955H626.38V479.427H625.23ZM630.636 479.427V472.811C630.972 472.235 631.595 471.948 632.506 471.948H633.945L634.52 472.379V472.955H632.506C632.18 472.955 631.94 473.041 631.787 473.214V479.427H630.636ZM637.674 479.427C636.226 479.427 635.502 478.703 635.502 477.255C635.502 475.807 636.226 475.083 637.674 475.083H640.307V473.961C640.307 473.29 639.971 472.955 639.3 472.955H636.222V472.379L636.797 471.948H639.3C640.738 471.948 641.457 472.667 641.457 474.105V479.427H637.674ZM636.653 477.414C636.653 478.085 636.989 478.42 637.66 478.42H640.307V476.09H637.66C636.989 476.09 636.653 476.426 636.653 477.097V477.414ZM643.701 479.427V468.783H644.852V475.759L648.318 471.948H649.44L649.541 472.163L646.865 475.083L649.742 479.212L649.642 479.427H648.52L646.103 475.918L644.852 477.27V479.427H643.701ZM651.243 477.27V469.502H652.393V471.948H655.126V472.955H652.393V477.414C652.393 478.085 652.729 478.42 653.4 478.42H655.27V478.996L654.695 479.427H653.4C651.962 479.427 651.243 478.708 651.243 477.27ZM656.904 470.596V469.272H658.113V470.596H656.904ZM656.933 479.427V471.948H658.084V479.427H656.933ZM660.273 477.27V474.105C660.273 472.667 660.993 471.948 662.431 471.948H664.445C665.883 471.948 666.602 472.667 666.602 474.105V477.27C666.602 478.708 665.883 479.427 664.445 479.427H662.431C660.993 479.427 660.273 478.708 660.273 477.27ZM661.424 477.414C661.424 478.085 661.76 478.42 662.431 478.42H664.445C665.116 478.42 665.452 478.085 665.452 477.414V473.961C665.452 473.29 665.116 472.955 664.445 472.955H662.431C661.76 472.955 661.424 473.29 661.424 473.961V477.414ZM668.788 479.427V471.948H672.816C674.254 471.948 674.973 472.667 674.973 474.105V479.427H673.823V473.961C673.823 473.29 673.487 472.955 672.816 472.955H669.939V479.427H668.788ZM677.216 479.427V477.845H678.655V479.427H677.216ZM682.722 479.427C681.274 479.427 680.55 478.703 680.55 477.255C680.55 475.807 681.274 475.083 682.722 475.083H685.354V473.961C685.354 473.29 685.019 472.955 684.347 472.955H681.269V472.379L681.845 471.948H684.347C685.786 471.948 686.505 472.667 686.505 474.105V479.427H682.722ZM681.701 477.414C681.701 478.085 682.036 478.42 682.708 478.42H685.354V476.09H682.708C682.036 476.09 681.701 476.426 681.701 477.097V477.414ZM688.691 479.427V472.811C689.027 472.235 689.65 471.948 690.561 471.948H692L692.575 472.379V472.955H690.561C690.235 472.955 689.995 473.041 689.842 473.214V479.427H688.691ZM694.043 477.27V469.502H695.194V471.948H697.927V472.955H695.194V477.414C695.194 478.085 695.529 478.42 696.201 478.42H698.07V478.996L697.495 479.427H696.201C694.762 479.427 694.043 478.708 694.043 477.27Z" fill="white"/>
    <rect x="513.4" y="422.845" width="231.739" height="67.9235" stroke="white" stroke-width="0.7991"/>
    <path d="M574.332 303.705V293.78H576.403V301.835H580.69V303.705H574.332ZM582.212 303.705V293.78H587.045C588.656 293.78 589.462 294.585 589.462 296.196V298.124C589.462 299.735 588.656 300.54 587.045 300.54H584.284V303.705H582.212ZM584.284 298.67H586.959C587.247 298.67 587.391 298.526 587.391 298.239V296.081C587.391 295.794 587.247 295.65 586.959 295.65H584.284V298.67ZM594.481 302.957V301.835H598.652C598.94 301.835 599.084 301.691 599.084 301.403V300.569C599.084 300.3 598.964 300.142 598.724 300.094L596.207 299.591C595.056 299.361 594.481 298.589 594.481 297.275V296.628C594.481 295.017 595.286 294.211 596.897 294.211H596.955V292.485H598.681V294.211H599.903L600.867 294.959V296.081H596.984C596.696 296.081 596.552 296.225 596.552 296.513V297.289C596.552 297.558 596.672 297.716 596.912 297.764L599.429 298.268C600.579 298.498 601.155 299.27 601.155 300.583V301.288C601.155 302.899 600.349 303.705 598.738 303.705H598.681V305.431H596.955V303.705H595.444L594.481 302.957ZM603.156 303.705V293.78H609.945V295.65H605.227V298.095H609.514V299.965H605.227V303.705H603.156ZM611.556 303.705V293.78H616.389C618 293.78 618.805 294.585 618.805 296.196V297.836C618.805 299.035 618.359 299.787 617.468 300.094L619.093 303.273L618.848 303.705H617.065L615.31 300.253H613.627V303.705H611.556ZM613.627 298.383H616.303C616.59 298.383 616.734 298.239 616.734 297.951V296.081C616.734 295.794 616.59 295.65 616.303 295.65H613.627V298.383ZM620.883 303.705V293.78H622.954V297.707L626.464 293.78H628.406L628.607 294.197L625.313 297.865L628.967 303.288L628.765 303.705H626.867L623.975 299.361L622.954 300.468V303.705H620.883ZM629.713 295.65V293.78H637.825V295.65H634.805V303.705H632.733V295.65H629.713ZM642.206 300.166V298.469H646.521V300.166H642.206ZM651.37 302.957V301.835H655.541C655.829 301.835 655.973 301.691 655.973 301.403V300.569C655.973 300.3 655.853 300.142 655.613 300.094L653.096 299.591C651.945 299.361 651.37 298.589 651.37 297.275V296.628C651.37 295.017 652.175 294.211 653.786 294.211H653.844V292.485H655.57V294.211H656.793L657.756 294.959V296.081H653.873C653.585 296.081 653.441 296.225 653.441 296.513V297.289C653.441 297.558 653.561 297.716 653.801 297.764L656.318 298.268C657.469 298.498 658.044 299.27 658.044 300.583V301.288C658.044 302.899 657.238 303.705 655.627 303.705H655.57V305.431H653.844V303.705H652.334L651.37 302.957ZM659.614 302.957V301.835H664.073C664.36 301.835 664.504 301.691 664.504 301.403V300.353C664.504 300.085 664.384 299.927 664.144 299.879L661.34 299.318C660.189 299.087 659.614 298.316 659.614 297.002V296.196C659.614 294.585 660.419 293.78 662.03 293.78H665.324L666.288 294.528V295.65H662.116C661.829 295.65 661.685 295.794 661.685 296.081V297.016C661.685 297.285 661.805 297.443 662.044 297.491L664.849 298.052C666 298.282 666.575 299.054 666.575 300.368V301.288C666.575 302.899 665.77 303.705 664.159 303.705H660.577L659.614 302.957ZM668.357 301.288V296.196C668.357 294.585 669.163 293.78 670.774 293.78H674.053C675.664 293.78 676.47 294.585 676.47 296.196V301.288C676.47 302.899 675.664 303.705 674.053 303.705H670.774C669.163 303.705 668.357 302.899 668.357 301.288ZM670.429 301.403C670.429 301.691 670.572 301.835 670.86 301.835H673.967C674.255 301.835 674.399 301.691 674.399 301.403V296.081C674.399 295.794 674.255 295.65 673.967 295.65H670.86C670.572 295.65 670.429 295.794 670.429 296.081V301.403ZM678.685 303.705V293.78H680.756V301.835H685.043V303.705H678.685ZM591.353 319.547V316.383C591.353 314.944 592.073 314.225 593.511 314.225H595.525C596.963 314.225 597.682 314.944 597.682 316.383V319.547C597.682 320.985 596.963 321.705 595.525 321.705H593.511C592.073 321.705 591.353 320.985 591.353 319.547ZM592.504 319.691C592.504 320.362 592.84 320.698 593.511 320.698H595.525C596.196 320.698 596.532 320.362 596.532 319.691V316.239C596.532 315.568 596.196 315.232 595.525 315.232H593.511C592.84 315.232 592.504 315.568 592.504 316.239V319.691ZM599.868 321.705V314.225H603.896C605.334 314.225 606.053 314.944 606.053 316.383V321.705H604.903V316.239C604.903 315.568 604.567 315.232 603.896 315.232H601.019V321.705H599.868ZM611.896 321.705V311.78H616.599C618.066 311.78 618.8 312.513 618.8 313.981V315.563C618.8 316.809 618.268 317.529 617.203 317.72L619.088 321.417L618.929 321.705H617.908L615.909 317.764H613.104V321.705H611.896ZM613.104 316.67H616.614C617.266 316.67 617.592 316.344 617.592 315.692V313.851C617.592 313.199 617.266 312.873 616.614 312.873H613.104V316.67ZM622.722 321.705C621.274 321.705 620.55 320.981 620.55 319.533C620.55 318.085 621.274 317.361 622.722 317.361H625.354V316.239C625.354 315.568 625.018 315.232 624.347 315.232H621.269V314.657L621.844 314.225H624.347C625.785 314.225 626.505 314.944 626.505 316.383V321.705H622.722ZM621.7 319.691C621.7 320.362 622.036 320.698 622.707 320.698H625.354V318.368H622.707C622.036 318.368 621.7 318.703 621.7 319.374V319.691ZM627.885 314.426L628.015 314.225H629.007L631.194 320.698H631.481L633.668 314.225H634.66L634.79 314.426L631.28 324.581H630.287L630.158 324.38L631.122 321.705H630.402L627.885 314.426ZM636.106 319.547V316.383C636.106 314.944 636.825 314.225 638.264 314.225H641.14V311.061H642.291V321.705H638.264C636.825 321.705 636.106 320.985 636.106 319.547ZM637.257 319.691C637.257 320.362 637.592 320.698 638.264 320.698H641.14V315.232H638.264C637.592 315.232 637.257 315.568 637.257 316.239V319.691ZM644.564 312.873V311.55H645.772V312.873H644.564ZM644.593 321.705V314.225H645.744V321.705H644.593ZM647.991 319.547V314.225H649.142V319.691C649.142 320.362 649.477 320.698 650.149 320.698H653.025V314.225H654.176V321.705H650.149C648.71 321.705 647.991 320.985 647.991 319.547ZM656.477 321.705V314.225H664.963C666.401 314.225 667.121 314.944 667.121 316.383V321.705H665.97V316.239C665.97 315.568 665.634 315.232 664.963 315.232H662.374V321.705H661.223V315.232H657.627V321.705H656.477Z" fill="white"/>
    <rect x="513.4" y="274.122" width="231.739" height="67.9235" stroke="white" stroke-width="0.7991"/>
    <path d="M290.806 535V525.075H297.595V526.945H292.877V528.959H297.163V530.829H292.877V533.13H297.595V535H290.806ZM298.566 534.612L301.515 525.075H304.679L307.628 534.612L307.369 535H305.643L305.039 532.986H301.155L300.551 535H298.825L298.566 534.612ZM301.716 531.116H304.478L303.212 526.945H302.982L301.716 531.116ZM309.066 535V525.075H313.899C315.51 525.075 316.316 525.881 316.316 527.492V529.131C316.316 530.33 315.87 531.083 314.978 531.39L316.603 534.568L316.359 535H314.575L312.82 531.548H311.138V535H309.066ZM311.138 529.678H313.813C314.101 529.678 314.244 529.534 314.244 529.246V527.377C314.244 527.089 314.101 526.945 313.813 526.945H311.138V529.678ZM318.393 535V525.075H320.637L324.578 531.591V525.075H326.65V535H324.406L320.465 528.484V535H318.393ZM334.525 537.877C332.981 535.786 332.209 533.437 332.209 530.829C332.209 528.22 332.981 525.871 334.525 523.781L336.035 524.917C334.817 526.653 334.208 528.623 334.208 530.829C334.208 533.034 334.817 535.005 336.035 536.74L334.525 537.877ZM337.469 535V525.075H339.943L342.748 531.073L345.552 525.075H348.026V535H345.955V528.729L343.625 533.705H341.87L339.54 528.729V535H337.469ZM350.248 532.584V527.492C350.248 525.881 351.053 525.075 352.664 525.075H355.944C357.555 525.075 358.36 525.881 358.36 527.492V532.584C358.36 534.195 357.555 535 355.944 535H352.664C351.053 535 350.248 534.195 350.248 532.584ZM352.319 532.699C352.319 532.986 352.463 533.13 352.751 533.13H355.857C356.145 533.13 356.289 532.986 356.289 532.699V527.377C356.289 527.089 356.145 526.945 355.857 526.945H352.751C352.463 526.945 352.319 527.089 352.319 527.377V532.699ZM360.575 535V525.075H365.408C367.019 525.075 367.825 525.881 367.825 527.492V529.131C367.825 530.33 367.379 531.083 366.487 531.39L368.113 534.568L367.868 535H366.084L364.33 531.548H362.647V535H360.575ZM362.647 529.678H365.322C365.61 529.678 365.754 529.534 365.754 529.246V527.377C365.754 527.089 365.61 526.945 365.322 526.945H362.647V529.678ZM369.902 535V525.075H376.692V526.945H371.974V528.959H376.26V530.829H371.974V533.13H376.692V535H369.902ZM377.663 536.74C378.881 535.005 379.489 533.034 379.489 530.829C379.489 528.623 378.881 526.653 377.663 524.917L379.173 523.781C380.717 525.871 381.489 528.22 381.489 530.829C381.489 533.437 380.717 535.786 379.173 537.877L377.663 536.74ZM386.68 534.252V533.13H390.851C391.139 533.13 391.283 532.986 391.283 532.699V531.864C391.283 531.596 391.163 531.438 390.923 531.39L388.406 530.886C387.255 530.656 386.68 529.884 386.68 528.57V527.923C386.68 526.312 387.485 525.507 389.096 525.507H389.154V523.781H390.88V525.507H392.103L393.066 526.255V527.377H389.183C388.895 527.377 388.751 527.52 388.751 527.808V528.585C388.751 528.853 388.871 529.012 389.111 529.059L391.628 529.563C392.779 529.793 393.354 530.565 393.354 531.879V532.584C393.354 534.195 392.548 535 390.937 535H390.88V536.726H389.154V535H387.644L386.68 534.252ZM395.355 535V525.075H402.144V526.945H397.426V529.39H401.713V531.26H397.426V535H395.355ZM403.755 535V525.075H408.588C410.199 525.075 411.004 525.881 411.004 527.492V529.131C411.004 530.33 410.559 531.083 409.667 531.39L411.292 534.568L411.048 535H409.264L407.509 531.548H405.826V535H403.755ZM405.826 529.678H408.502C408.789 529.678 408.933 529.534 408.933 529.246V527.377C408.933 527.089 408.789 526.945 408.502 526.945H405.826V529.678ZM413.082 535V525.075H415.153V529.002L418.663 525.075H420.605L420.806 525.492L417.512 529.16L421.166 534.583L420.964 535H419.066L416.175 530.656L415.153 531.764V535H413.082ZM421.912 526.945V525.075H430.024V526.945H427.004V535H424.932V526.945H421.912Z" fill="white"/>
    <rect x="245.4" y="496.4" width="229.201" height="69.2009" stroke="white" stroke-width="0.7991"/>
    <path d="M403.5 571L405.887 566H400.113L402.5 571H403.5ZM403 610H402.5V610.5H403V610ZM513 610L508 607.113V612.887L513 610ZM402.5 570.5V610H403.5V570.5H402.5ZM403 610.5H508.5V609.5H403V610.5Z" fill="white"/>
    <path d="M403.5 492L405.887 497H400.113L402.5 492H403.5ZM403 453H402.5V452.5H403V453ZM513 453L508 455.887V450.113L513 453ZM402.5 492.5V453H403.5V492.5H402.5ZM403 452.5H508.5V453.5H403V452.5Z" fill="white"/>
    <path d="M373 497L370.113 492H375.887L373 497ZM373 310H372.5V309.5H373V310ZM513 310L508 312.887V307.113L513 310ZM372.5 492.5V310H373.5V492.5H372.5ZM373 309.5H508.5V310.5H373V309.5Z" fill="white"/>
    <path d="M373 566L370.113 571H375.887L373 566ZM373 865H372.5V865.5H373V865ZM516 865L511 862.113V867.887L516 865ZM372.5 570.5V865H373.5V570.5H372.5ZM373 865.5H511.5V864.5H373V865.5Z" fill="white"/>
    <path d="M343.5 492L345.887 497L340.113 497L342.5 492H343.5ZM343 155H342.5V154.5H343V155ZM513 155L508 157.887V152.113L513 155ZM342.5 492.5V155H343.5V492.5H342.5ZM343 154.5H508.5V155.5H343V154.5Z" fill="white"/>
    <path d="M546.218 154.982V145.057H548.692L551.497 151.055L554.301 145.057H556.775V154.982H554.704V148.711L552.374 153.687H550.619L548.289 148.711V154.982H546.218ZM558.968 146.15V144.223H561.011V146.15H558.968ZM558.997 154.982V147.387H560.982V154.982H558.997ZM563.056 154.982V147.387H567.256C568.81 147.387 569.587 148.164 569.587 149.718V154.982H567.602V149.574C567.602 149.267 567.448 149.113 567.141 149.113H565.041V154.982H563.056ZM571.539 152.652V145.057H573.524V147.387H575.998V149.113H573.524V152.796C573.524 153.103 573.678 153.256 573.984 153.256H576.142V154.335L575.279 154.982H573.869C572.316 154.982 571.539 154.205 571.539 152.652ZM581.292 154.982V145.057H583.364V148.984L586.873 145.057H588.815L589.016 145.474L585.723 149.142L589.376 154.565L589.175 154.982H587.276L584.385 150.638L583.364 151.746V154.982H581.292ZM590.755 152.652V147.387H592.74V152.796C592.74 153.103 592.893 153.256 593.2 153.256H595.3V147.387H597.285V154.982H593.085C591.532 154.982 590.755 154.205 590.755 152.652ZM599.295 154.982V148.365C599.65 147.713 600.331 147.387 601.338 147.387H602.891L603.754 148.035V149.113H601.813C601.554 149.113 601.376 149.176 601.28 149.3V154.982H599.295ZM606.955 154.982C605.402 154.982 604.625 154.22 604.625 152.695C604.625 151.17 605.402 150.408 606.955 150.408H608.94V149.574C608.94 149.267 608.787 149.113 608.48 149.113H605.431V148.035L606.294 147.387H608.595C610.148 147.387 610.925 148.164 610.925 149.718V154.982H606.955ZM606.61 152.796C606.61 153.103 606.763 153.256 607.07 153.256H608.94V151.961H607.07C606.763 151.961 606.61 152.115 606.61 152.422V152.796ZM612.879 152.652V145.057H614.864V147.387H617.338V149.113H614.864V152.796C614.864 153.103 615.017 153.256 615.324 153.256H617.481V154.335L616.618 154.982H615.209C613.655 154.982 612.879 154.205 612.879 152.652ZM618.917 152.652V149.718C618.917 148.164 619.694 147.387 621.247 147.387H623.117C624.671 147.387 625.448 148.164 625.448 149.718V151.933H620.902V152.796C620.902 153.103 621.056 153.256 621.363 153.256H625.16V154.335L624.297 154.982H621.247C619.694 154.982 618.917 154.205 618.917 152.652ZM620.902 150.379H623.463V149.574C623.463 149.267 623.309 149.113 623.002 149.113H621.363C621.056 149.113 620.902 149.267 620.902 149.574V150.379ZM627.289 152.652V149.718C627.289 148.164 628.066 147.387 629.619 147.387H631.834V144.338H633.819V154.982H629.619C628.066 154.982 627.289 154.205 627.289 152.652ZM629.274 152.796C629.274 153.103 629.428 153.256 629.734 153.256H631.834V149.113H629.734C629.428 149.113 629.274 149.267 629.274 149.574V152.796ZM639.229 152.652V149.718C639.229 148.164 640.006 147.387 641.559 147.387H644.234L645.097 148.035V149.113H641.674C641.367 149.113 641.214 149.267 641.214 149.574V152.796C641.214 153.103 641.367 153.256 641.674 153.256H645.097V154.335L644.234 154.982H641.559C640.006 154.982 639.229 154.205 639.229 152.652ZM646.674 152.652V149.718C646.674 148.164 647.45 147.387 649.004 147.387H651.017C652.571 147.387 653.348 148.164 653.348 149.718V152.652C653.348 154.205 652.571 154.982 651.017 154.982H649.004C647.45 154.982 646.674 154.205 646.674 152.652ZM648.659 152.796C648.659 153.103 648.812 153.256 649.119 153.256H650.902C651.209 153.256 651.363 153.103 651.363 152.796V149.574C651.363 149.267 651.209 149.113 650.902 149.113H649.119C648.812 149.113 648.659 149.267 648.659 149.574V152.796ZM655.243 152.22V144.338H657.228V152.422C657.228 153.016 657.535 153.342 658.149 153.4V155.126C656.212 155.126 655.243 154.157 655.243 152.22ZM659.696 152.22V144.338H661.681V152.422C661.681 153.016 661.988 153.342 662.602 153.4V155.126C660.665 155.126 659.696 154.157 659.696 152.22ZM664.091 152.652V149.718C664.091 148.164 664.868 147.387 666.422 147.387H668.292C669.845 147.387 670.622 148.164 670.622 149.718V151.933H666.076V152.796C666.076 153.103 666.23 153.256 666.537 153.256H670.334V154.335L669.471 154.982H666.422C664.868 154.982 664.091 154.205 664.091 152.652ZM666.076 150.379H668.637V149.574C668.637 149.267 668.483 149.113 668.176 149.113H666.537C666.23 149.113 666.076 149.267 666.076 149.574V150.379ZM672.463 152.652V149.718C672.463 148.164 673.24 147.387 674.793 147.387H677.469L678.332 148.035V149.113H674.909C674.602 149.113 674.448 149.267 674.448 149.574V152.796C674.448 153.103 674.602 153.256 674.909 153.256H678.332V154.335L677.469 154.982H674.793C673.24 154.982 672.463 154.205 672.463 152.652ZM679.966 152.652V145.057H681.951V147.387H684.425V149.113H681.951V152.796C681.951 153.103 682.104 153.256 682.411 153.256H684.568V154.335L683.705 154.982H682.296C680.742 154.982 679.966 154.205 679.966 152.652ZM686.091 146.15V144.223H688.133V146.15H686.091ZM686.119 154.982V147.387H688.104V154.982H686.119ZM690.064 152.652V149.718C690.064 148.164 690.841 147.387 692.394 147.387H694.408C695.961 147.387 696.738 148.164 696.738 149.718V152.652C696.738 154.205 695.961 154.982 694.408 154.982H692.394C690.841 154.982 690.064 154.205 690.064 152.652ZM692.049 152.796C692.049 153.103 692.202 153.256 692.509 153.256H694.293C694.599 153.256 694.753 153.103 694.753 152.796V149.574C694.753 149.267 694.599 149.113 694.293 149.113H692.509C692.202 149.113 692.049 149.267 692.049 149.574V152.796ZM698.691 154.982V147.387H702.891C704.445 147.387 705.221 148.164 705.221 149.718V154.982H703.236V149.574C703.236 149.267 703.083 149.113 702.776 149.113H700.676V154.982H698.691ZM706.973 154.335V153.256H710.281C710.607 153.256 710.77 153.074 710.77 152.709C710.77 152.335 710.626 152.124 710.338 152.076L708.785 151.818C707.577 151.616 706.973 150.916 706.973 149.718C706.973 148.164 707.749 147.387 709.303 147.387H711.532L712.395 148.035V149.113H709.432C709.106 149.113 708.943 149.296 708.943 149.66C708.943 150.034 709.087 150.245 709.375 150.293L710.928 150.552C712.136 150.753 712.741 151.453 712.741 152.652C712.741 154.205 711.964 154.982 710.41 154.982H707.836L706.973 154.335ZM567.825 170.824V167.66C567.825 166.222 568.544 165.502 569.983 165.502H571.996C573.435 165.502 574.154 166.222 574.154 167.66V170.824C574.154 172.263 573.435 172.982 571.996 172.982H569.983C568.544 172.982 567.825 172.263 567.825 170.824ZM568.976 170.968C568.976 171.64 569.312 171.975 569.983 171.975H571.996C572.668 171.975 573.003 171.64 573.003 170.968V167.516C573.003 166.845 572.668 166.509 571.996 166.509H569.983C569.312 166.509 568.976 166.845 568.976 167.516V170.968ZM576.34 172.982V165.502H580.368C581.806 165.502 582.525 166.222 582.525 167.66V172.982H581.375V167.516C581.375 166.845 581.039 166.509 580.368 166.509H577.491V172.982H576.34ZM588.368 172.982V163.057H594.84V164.15H589.576V167.66H594.409V168.753H589.576V172.982H588.368ZM596.571 172.982V163.057H601.274C602.741 163.057 603.475 163.791 603.475 165.258V166.84C603.475 168.087 602.943 168.806 601.878 168.998L603.763 172.694L603.604 172.982H602.583L600.584 169.041H597.779V172.982H596.571ZM597.779 167.948H601.289C601.941 167.948 602.267 167.622 602.267 166.97V165.128C602.267 164.476 601.941 164.15 601.289 164.15H597.779V167.948ZM604.764 172.723L608.015 163.057H610L613.251 172.723L613.078 172.982H612.086L611.266 170.479H606.749L605.93 172.982H604.937L604.764 172.723ZM607.109 169.386H610.906L609.18 164.15H608.835L607.109 169.386ZM614.831 172.982V163.057H616.04V168.149L620.599 163.057H621.707L621.836 163.33L618.413 167.142L622.167 172.709L622.038 172.982H620.93L617.622 168.02L616.04 169.76V172.982H614.831ZM622.942 164.15V163.057H630.767V164.15H627.459V172.982H626.251V164.15H622.942ZM635.428 172.479V171.889H639.858C640.51 171.889 640.836 171.563 640.836 170.911V169.731C640.836 169.185 640.592 168.863 640.103 168.768L637.01 168.149C635.955 167.938 635.428 167.228 635.428 166.02V165.258C635.428 163.791 636.161 163.057 637.629 163.057H641.109L641.757 163.561V164.15H637.614C636.962 164.15 636.636 164.476 636.636 165.128V166.107C636.636 166.653 636.881 166.974 637.37 167.07L640.462 167.689C641.517 167.9 642.044 168.609 642.044 169.818V170.781C642.044 172.248 641.311 172.982 639.844 172.982H636.075L635.428 172.479ZM645.828 172.982C644.38 172.982 643.657 172.258 643.657 170.81C643.657 169.362 644.38 168.638 645.828 168.638H648.461V167.516C648.461 166.845 648.125 166.509 647.454 166.509H644.376V165.934L644.951 165.502H647.454C648.892 165.502 649.611 166.222 649.611 167.66V172.982H645.828ZM644.807 170.968C644.807 171.64 645.143 171.975 645.814 171.975H648.461V169.645H645.814C645.143 169.645 644.807 169.981 644.807 170.652V170.968ZM651.855 172.982V165.502H655.883C657.321 165.502 658.04 166.222 658.04 167.66V172.982H656.889V167.516C656.889 166.845 656.554 166.509 655.883 166.509H653.006V172.982H651.855ZM660.168 170.824V167.66C660.168 166.222 660.887 165.502 662.326 165.502H665.202V162.338H666.353V172.982H662.326C660.887 172.982 660.168 172.263 660.168 170.824ZM661.319 170.968C661.319 171.64 661.654 171.975 662.326 171.975H665.202V166.509H662.326C661.654 166.509 661.319 166.845 661.319 167.516V170.968ZM668.655 172.982V162.338H669.806V165.502H672.682C674.121 165.502 674.84 166.222 674.84 167.66V170.824C674.84 172.263 674.121 172.982 672.682 172.982H668.655ZM669.806 171.975H672.682C673.354 171.975 673.689 171.64 673.689 170.968V167.516C673.689 166.845 673.354 166.509 672.682 166.509H669.806V171.975ZM676.912 170.824V167.66C676.912 166.222 677.631 165.502 679.069 165.502H681.083C682.521 165.502 683.241 166.222 683.241 167.66V170.824C683.241 172.263 682.521 172.982 681.083 172.982H679.069C677.631 172.982 676.912 172.263 676.912 170.824ZM678.062 170.968C678.062 171.64 678.398 171.975 679.069 171.975H681.083C681.754 171.975 682.09 171.64 682.09 170.968V167.516C682.09 166.845 681.754 166.509 681.083 166.509H679.069C678.398 166.509 678.062 166.845 678.062 167.516V170.968ZM684.708 172.766L687.354 169.17L684.808 165.718L684.909 165.502H685.973L688.016 168.336L690.058 165.502H691.123L691.223 165.718L688.677 169.17L691.324 172.766L691.223 172.982H690.159L688.016 170.005L685.873 172.982H684.808L684.708 172.766Z" fill="white"/>
    <rect x="513.4" y="125.4" width="231.739" height="67.9235" stroke="white" stroke-width="0.7991"/>
    <rect x="245.25" y="15.25" width="229.5" height="69.5" fill="black"/>
    <path d="M319.405 45V35.0752H326.194V36.9451H321.476V38.9588H325.762V40.8287H321.476V43.1301H326.194V45H319.405ZM328.085 45V35.0752H330.157V43.1301H334.443V45H328.085ZM335.966 45V35.0752H338.037V45H335.966ZM340.247 42.5835V37.4917C340.247 35.8807 341.052 35.0752 342.663 35.0752H346.82L347.784 35.8231V36.9451H342.749C342.462 36.9451 342.318 37.0889 342.318 37.3766V42.6986C342.318 42.9863 342.462 43.1301 342.749 43.1301H346V40.8287H344.101V38.9588H348.071V45H342.663C341.052 45 340.247 44.1945 340.247 42.5835ZM350.139 45V35.0752H352.21V45H350.139ZM354.563 45V35.0752H359.253C360.864 35.0752 361.669 35.8807 361.669 37.4917V38.3547C361.669 38.6807 361.573 38.9588 361.381 39.1889L360.878 39.7931L361.482 40.2965C361.799 40.5554 361.957 40.939 361.957 41.4472V42.5835C361.957 44.1945 361.151 45 359.54 45H354.563ZM356.635 43.1301H359.454C359.742 43.1301 359.885 42.9863 359.885 42.6986V41.2602C359.885 40.9725 359.742 40.8287 359.454 40.8287H356.635V43.1301ZM356.635 38.9588H359.166C359.454 38.9588 359.598 38.815 359.598 38.5273V37.3766C359.598 37.0889 359.454 36.9451 359.166 36.9451H356.635V38.9588ZM363.947 45V35.0752H366.018V43.1301H370.304V45H363.947ZM371.827 45V35.0752H378.616V36.9451H373.898V38.9588H378.185V40.8287H373.898V43.1301H378.616V45H371.827ZM383.129 36.9451V35.0752H391.241V36.9451H388.221V45H386.15V36.9451H383.129ZM392.627 42.5835V37.4917C392.627 35.8807 393.432 35.0752 395.043 35.0752H398.323C399.934 35.0752 400.739 35.8807 400.739 37.4917V42.5835C400.739 44.1945 399.934 45 398.323 45H395.043C393.432 45 392.627 44.1945 392.627 42.5835ZM394.698 42.6986C394.698 42.9863 394.842 43.1301 395.129 43.1301H398.236C398.524 43.1301 398.668 42.9863 398.668 42.6986V37.3766C398.668 37.0889 398.524 36.9451 398.236 36.9451H395.129C394.842 36.9451 394.698 37.0889 394.698 37.3766V42.6986ZM294.033 62.252V61.1301H298.492C298.78 61.1301 298.924 60.9863 298.924 60.6986V59.6486C298.924 59.3801 298.804 59.2219 298.564 59.1739L295.759 58.6129C294.609 58.3828 294.033 57.6109 294.033 56.2971V55.4917C294.033 53.8807 294.839 53.0752 296.45 53.0752H299.744L300.707 53.8231V54.9451H296.536C296.248 54.9451 296.104 55.0889 296.104 55.3766V56.3115C296.104 56.58 296.224 56.7382 296.464 56.7862L299.269 57.3472C300.42 57.5773 300.995 58.3492 300.995 59.663V60.5835C300.995 62.1945 300.189 63 298.578 63H294.997L294.033 62.252ZM302 62.6116L304.949 53.0752H308.113L311.062 62.6116L310.803 63H309.077L308.473 60.9863H304.589L303.985 63H302.259L302 62.6116ZM305.15 59.1164H307.912L306.646 54.9451H306.416L305.15 59.1164ZM312.501 63V53.0752H314.745L318.686 59.591V53.0752H320.757V63H318.513L314.572 56.4841V63H312.501ZM323.12 63V53.0752H326.889C329.593 53.0752 330.945 54.4272 330.945 57.1314V58.9438C330.945 61.6479 329.593 63 326.889 63H323.12ZM325.191 61.1301H327.004C328.25 61.1301 328.873 60.5068 328.873 59.2602V56.815C328.873 55.5684 328.25 54.9451 327.004 54.9451H325.191V61.1301ZM333.023 63V53.0752H337.712C339.323 53.0752 340.128 53.8807 340.128 55.4917V56.3547C340.128 56.6807 340.033 56.9588 339.841 57.1889L339.337 57.7931L339.941 58.2965C340.258 58.5554 340.416 58.939 340.416 59.4472V60.5835C340.416 62.1945 339.611 63 338 63H333.023ZM335.094 61.1301H337.913C338.201 61.1301 338.345 60.9863 338.345 60.6986V59.2602C338.345 58.9725 338.201 58.8287 337.913 58.8287H335.094V61.1301ZM335.094 56.9588H337.626C337.913 56.9588 338.057 56.815 338.057 56.5273V55.3766C338.057 55.0889 337.913 54.9451 337.626 54.9451H335.094V56.9588ZM342.262 60.5835V55.4917C342.262 53.8807 343.068 53.0752 344.679 53.0752H347.958C349.569 53.0752 350.375 53.8807 350.375 55.4917V60.5835C350.375 62.1945 349.569 63 347.958 63H344.679C343.068 63 342.262 62.1945 342.262 60.5835ZM344.334 60.6986C344.334 60.9863 344.477 61.1301 344.765 61.1301H347.872C348.16 61.1301 348.303 60.9863 348.303 60.6986V55.3766C348.303 55.0889 348.16 54.9451 347.872 54.9451H344.765C344.477 54.9451 344.334 55.0889 344.334 55.3766V60.6986ZM351.813 62.5829L354.92 57.8937L352 53.4923L352.202 53.0752H354.014L356.056 56.2396L358.099 53.0752H359.911L360.113 53.4923L357.193 57.8937L360.3 62.5829L360.098 63H358.286L356.056 59.5623L353.827 63H352.015L351.813 62.5829ZM365.344 63V53.0752H367.416V61.1301H371.702V63H365.344ZM373.081 60.5835V55.4917C373.081 53.8807 373.886 53.0752 375.497 53.0752H378.777C380.388 53.0752 381.193 53.8807 381.193 55.4917V60.5835C381.193 62.1945 380.388 63 378.777 63H375.497C373.886 63 373.081 62.1945 373.081 60.5835ZM375.152 60.6986C375.152 60.9863 375.296 61.1301 375.583 61.1301H378.69C378.978 61.1301 379.122 60.9863 379.122 60.6986V55.3766C379.122 55.0889 378.978 54.9451 378.69 54.9451H375.583C375.296 54.9451 375.152 55.0889 375.152 55.3766V60.6986ZM382.574 54.9451V53.0752H390.687V54.9451H387.666V63H385.595V54.9451H382.574ZM391.381 54.9451V53.0752H399.494V54.9451H396.473V63H394.402V54.9451H391.381ZM401.023 63V53.0752H407.812V54.9451H403.094V56.9588H407.381V58.8287H403.094V61.1301H407.812V63H401.023ZM409.704 63V53.0752H414.537C416.148 53.0752 416.953 53.8807 416.953 55.4917V57.1314C416.953 58.3301 416.507 59.0828 415.615 59.3897L417.241 62.5685L416.996 63H415.213L413.458 59.5479H411.775V63H409.704ZM411.775 57.678H414.45C414.738 57.678 414.882 57.5342 414.882 57.2465V55.3766C414.882 55.0889 414.738 54.9451 414.45 54.9451H411.775V57.678ZM418.11 53.4635L418.355 53.0752H420.124L422.282 57.2896L424.439 53.0752H426.208L426.453 53.4635L423.317 59.4904V63H421.246V59.4904L418.11 53.4635Z" fill="white"/>
    <rect x="245.25" y="15.25" width="229.5" height="69.5" stroke="white" stroke-width="0.5"/>
    <path d="M480 45.5L475 47.8868L475 42.1132L480 44.5L480 45.5ZM625 45L625 44.5L625.5 44.5L625.5 45L625 45ZM625 125L622.113 120L627.887 120L625 125ZM479.5 44.5L625 44.5L625 45.5L479.5 45.5L479.5 44.5ZM625.5 45L625.5 120.5L624.5 120.5L624.5 45L625.5 45Z" fill="white"/>
    <path d="M879.748 519V519.5H879.248V519H879.748ZM879.748 311V310.5H880.248V311H879.748ZM746 311L751 308.113V313.887L746 311ZM1038 518.5L1043 516.113V521.887L1038 519.5V518.5ZM879.248 519V311H880.248V519H879.248ZM879.748 311.5H750.5V310.5H879.748V311.5ZM879.748 518.5H1038.5V519.5H879.748V518.5Z" fill="white"/>
    <path d="M879.748 555V554.5H879.248V555H879.748ZM879.748 868V868.5H880.248V868H879.748ZM746 868L751 870.887V865.113L746 868ZM1038 555.5L1043 557.887V552.113L1038 554.5V555.5ZM879.248 555V868H880.248V555H879.248ZM879.748 867.5H750.5V868.5H879.748V867.5ZM879.748 555.5H1038.5V554.5H879.748V555.5Z" fill="white"/>
    <path d="M909.743 508V508.5H909.243V508H909.743ZM909.743 161V160.5H910.243V161H909.743ZM746 161L751 158.113V163.887L746 161ZM1038 507.5L1043 505.113V510.887L1038 508.5V507.5ZM909.243 508V161H910.243V508H909.243ZM909.743 161.5H750.5V160.5H909.743V161.5ZM909.743 507.5H1038.5V508.5H909.743V507.5Z" fill="white"/>
    <path d="M847.138 531V531.5H846.638V531H847.138ZM847.138 453V452.5H847.638V453H847.138ZM746 453L751 450.113V455.887L746 453ZM1038 530.5L1043 528.113V533.887L1038 531.5V530.5ZM846.638 531V453H847.638V531H846.638ZM847.138 453.5H750.5V452.5H847.138V453.5ZM847.138 530.5H1038.5V531.5H847.138V530.5Z" fill="white"/>
    <path d="M847.138 543V542.5H846.638V543H847.138ZM847.138 610V610.5H847.638V610H847.138ZM746 610L751 612.887V607.113L746 610ZM1038 543.5L1043 545.887V540.113L1038 542.5V543.5ZM846.638 543V610H847.638V543H846.638ZM847.138 609.5H750.5V610.5H847.138V609.5ZM847.138 543.5H1038.5V542.5H847.138V543.5Z" fill="white"/>
    <rect x="1043.5" y="496.5" width="64" height="69" fill="black" stroke="white"/>
    <path d="M1054.06 534.252V533.13H1058.23C1058.52 533.13 1058.67 532.986 1058.67 532.699V531.864C1058.67 531.596 1058.55 531.438 1058.31 531.39L1055.79 530.886C1054.64 530.656 1054.06 529.884 1054.06 528.57V527.923C1054.06 526.312 1054.87 525.507 1056.48 525.507H1056.54V523.781H1058.26V525.507H1059.49L1060.45 526.255V527.377H1056.57C1056.28 527.377 1056.13 527.52 1056.13 527.808V528.585C1056.13 528.853 1056.25 529.012 1056.49 529.059L1059.01 529.563C1060.16 529.793 1060.74 530.565 1060.74 531.879V532.584C1060.74 534.195 1059.93 535 1058.32 535H1058.26V536.726H1056.54V535H1055.03L1054.06 534.252ZM1062.74 535V525.075H1069.53V526.945H1064.81V529.39H1069.1V531.26H1064.81V535H1062.74ZM1071.14 535V525.075H1075.97C1077.58 525.075 1078.39 525.881 1078.39 527.492V529.131C1078.39 530.33 1077.94 531.083 1077.05 531.39L1078.68 534.568L1078.43 535H1076.65L1074.89 531.548H1073.21V535H1071.14ZM1073.21 529.678H1075.88C1076.17 529.678 1076.32 529.534 1076.32 529.246V527.377C1076.32 527.089 1076.17 526.945 1075.88 526.945H1073.21V529.678ZM1080.47 535V525.075H1082.54V529.002L1086.05 525.075H1087.99L1088.19 525.492L1084.9 529.16L1088.55 534.583L1088.35 535H1086.45L1083.56 530.656L1082.54 531.764V535H1080.47ZM1089.29 526.945V525.075H1097.41V526.945H1094.39V535H1092.32V526.945H1089.29Z" fill="white"/>
    <rect x="1108.5" y="496.5" width="57" height="69" fill="white" stroke="white"/>
    <path d="M1124.54 535V525.075H1129.23C1130.84 525.075 1131.65 525.881 1131.65 527.492V528.355C1131.65 528.681 1131.55 528.959 1131.36 529.189L1130.86 529.793L1131.46 530.296C1131.78 530.555 1131.94 530.939 1131.94 531.447V532.584C1131.94 534.195 1131.13 535 1129.52 535H1124.54ZM1126.62 533.13H1129.43C1129.72 533.13 1129.87 532.986 1129.87 532.699V531.26C1129.87 530.973 1129.72 530.829 1129.43 530.829H1126.62V533.13ZM1126.62 528.959H1129.15C1129.43 528.959 1129.58 528.815 1129.58 528.527V527.377C1129.58 527.089 1129.43 526.945 1129.15 526.945H1126.62V528.959ZM1133.84 532.584V525.075H1135.91V532.699C1135.91 532.986 1136.06 533.13 1136.34 533.13H1139.16C1139.45 533.13 1139.59 532.986 1139.59 532.699V525.075H1141.67V532.584C1141.67 534.195 1140.86 535 1139.25 535H1136.26C1134.65 535 1133.84 534.195 1133.84 532.584ZM1143.02 525.464L1143.27 525.075H1145.04L1147.19 529.29L1149.35 525.075H1151.12L1151.36 525.464L1148.23 531.49V535H1146.16V531.49L1143.02 525.464Z" fill="black"/>
    <path d="M573.876 592.15V582.225H575.947V590.28H580.233V592.15H573.876ZM581.756 592.15V582.225H586.589C588.2 582.225 589.005 583.031 589.005 584.642V586.569C589.005 588.18 588.2 588.986 586.589 588.986H583.827V592.15H581.756ZM583.827 587.116H586.502C586.79 587.116 586.934 586.972 586.934 586.684V584.527C586.934 584.239 586.79 584.095 586.502 584.095H583.827V587.116ZM594.384 592.15V582.225H601.173V584.095H596.455V586.54H600.741V588.41H596.455V592.15H594.384ZM602.784 592.15V582.225H607.617C609.228 582.225 610.033 583.031 610.033 584.642V586.281C610.033 587.48 609.587 588.233 608.695 588.54L610.321 591.718L610.076 592.15H608.293L606.538 588.698H604.855V592.15H602.784ZM604.855 586.828H607.53C607.818 586.828 607.962 586.684 607.962 586.396V584.527C607.962 584.239 607.818 584.095 607.53 584.095H604.855V586.828ZM611.19 591.762L614.139 582.225H617.303L620.252 591.762L619.993 592.15H618.267L617.663 590.136H613.779L613.175 592.15H611.449L611.19 591.762ZM614.34 588.266H617.102L615.836 584.095H615.606L614.34 588.266ZM621.691 592.15V582.225H623.762V586.152L627.271 582.225H629.213L629.415 582.642L626.121 586.31L629.774 591.733L629.573 592.15H627.674L624.783 587.806L623.762 588.914V592.15H621.691ZM630.52 584.095V582.225H638.633V584.095H635.612V592.15H633.541V584.095H630.52ZM640.162 592.15V582.225H642.233V592.15H640.162ZM644.443 589.733V584.642C644.443 583.031 645.248 582.225 646.859 582.225H650.139C651.75 582.225 652.555 583.031 652.555 584.642V589.733C652.555 591.344 651.75 592.15 650.139 592.15H646.859C645.248 592.15 644.443 591.344 644.443 589.733ZM646.514 589.849C646.514 590.136 646.658 590.28 646.946 590.28H650.053C650.34 590.28 650.484 590.136 650.484 589.849V584.527C650.484 584.239 650.34 584.095 650.053 584.095H646.946C646.658 584.095 646.514 584.239 646.514 584.527V589.849ZM654.771 592.15V582.225H657.014L660.956 588.741V582.225H663.027V592.15H660.783L656.842 585.634V592.15H654.771ZM664.958 591.402V590.28H669.417C669.705 590.28 669.849 590.136 669.849 589.849V588.799C669.849 588.53 669.729 588.372 669.489 588.324L666.684 587.763C665.534 587.533 664.958 586.761 664.958 585.447V584.642C664.958 583.031 665.764 582.225 667.375 582.225H670.669L671.632 582.973V584.095H667.461C667.173 584.095 667.03 584.239 667.03 584.527V585.461C667.03 585.73 667.149 585.888 667.389 585.936L670.194 586.497C671.345 586.727 671.92 587.499 671.92 588.813V589.733C671.92 591.344 671.115 592.15 669.504 592.15H665.922L664.958 591.402ZM677.014 589.82V588.583C677.014 588.084 677.172 587.701 677.488 587.432L678.093 586.929L677.589 586.325C677.397 586.094 677.301 585.816 677.301 585.49V584.555C677.301 583.002 678.078 582.225 679.632 582.225H682.249L683.112 582.872V583.951H679.747C679.44 583.951 679.286 584.105 679.286 584.411V585.648C679.286 585.955 679.44 586.109 679.747 586.109H685.27V587.835H683.832V592.15H679.344C677.79 592.15 677.014 591.373 677.014 589.82ZM678.999 589.964C678.999 590.27 679.152 590.424 679.459 590.424H681.847V587.835H679.459C679.152 587.835 678.999 587.988 678.999 588.295V589.964ZM548.655 610.15V600.225H552.423C555.128 600.225 556.48 601.577 556.48 604.281V606.094C556.48 608.798 555.128 610.15 552.423 610.15H548.655ZM550.726 608.28H552.538C553.785 608.28 554.408 607.657 554.408 606.41V603.965C554.408 602.718 553.785 602.095 552.538 602.095H550.726V608.28ZM558.558 610.15V600.225H565.347V602.095H560.629V604.109H564.915V605.979H560.629V608.28H565.347V610.15H558.558ZM567.239 610.15V600.225H572.072C573.683 600.225 574.488 601.031 574.488 602.642V604.281C574.488 605.48 574.042 606.233 573.15 606.54L574.776 609.718L574.531 610.15H572.748L570.993 606.698H569.31V610.15H567.239ZM569.31 604.828H571.985C572.273 604.828 572.417 604.684 572.417 604.396V602.527C572.417 602.239 572.273 602.095 571.985 602.095H569.31V604.828ZM576.566 610.15V600.225H578.637V610.15H576.566ZM580.07 600.613L580.329 600.225H582.141L584.414 608.28H584.644L586.916 600.225H588.729L588.988 600.613L586.168 610.15H582.889L580.07 600.613ZM588.933 609.762L591.882 600.225H595.046L597.995 609.762L597.736 610.15H596.01L595.406 608.136H591.522L590.918 610.15H589.192L588.933 609.762ZM592.083 606.266H594.845L593.579 602.095H593.349L592.083 606.266ZM597.883 602.095V600.225H605.995V602.095H602.975V610.15H600.904V602.095H597.883ZM607.524 610.15V600.225H609.596V610.15H607.524ZM611.029 600.613L611.288 600.225H613.1L615.373 608.28H615.603L617.875 600.225H619.688L619.947 600.613L617.127 610.15H613.848L611.029 600.613ZM621.389 610.15V600.225H628.178V602.095H623.46V604.109H627.746V605.979H623.46V608.28H628.178V610.15H621.389ZM629.638 609.402V608.28H634.097C634.385 608.28 634.528 608.136 634.528 607.849V606.799C634.528 606.53 634.409 606.372 634.169 606.324L631.364 605.763C630.213 605.533 629.638 604.761 629.638 603.447V602.642C629.638 601.031 630.443 600.225 632.054 600.225H635.348L636.312 600.973V602.095H632.141C631.853 602.095 631.709 602.239 631.709 602.527V603.461C631.709 603.73 631.829 603.888 632.069 603.936L634.874 604.497C636.024 604.727 636.6 605.499 636.6 606.813V607.733C636.6 609.344 635.794 610.15 634.183 610.15H630.602L629.638 609.402ZM641.118 602.857L641.334 602.555H643.002L644.153 608.424H644.254L645.635 602.555H647.878L649.259 608.424H649.36L650.511 602.555H652.179L652.395 602.857L650.87 610.15H647.907L646.756 604.871L645.606 610.15H642.643L641.118 602.857ZM653.72 601.318V599.391H655.763V601.318H653.72ZM653.749 610.15V602.555H655.734V610.15H653.749ZM657.751 607.82V600.225H659.736V602.555H662.21V604.281H659.736V607.964C659.736 608.27 659.889 608.424 660.196 608.424H662.354V609.503L661.491 610.15H660.081C658.527 610.15 657.751 609.373 657.751 607.82ZM663.905 610.15V599.506H665.889V602.555H668.105C669.658 602.555 670.435 603.332 670.435 604.885V610.15H668.45V604.742C668.45 604.435 668.296 604.281 667.99 604.281H665.889V610.15H663.905ZM676.044 610.15V600.225H682.833V602.095H678.116V604.54H682.402V606.41H678.116V610.15H676.044ZM684.444 610.15V600.225H689.277C690.888 600.225 691.694 601.031 691.694 602.642V604.281C691.694 605.48 691.248 606.233 690.356 606.54L691.981 609.718L691.737 610.15H689.953L688.198 606.698H686.515V610.15H684.444ZM686.515 604.828H689.191C689.478 604.828 689.622 604.684 689.622 604.396V602.527C689.622 602.239 689.478 602.095 689.191 602.095H686.515V604.828ZM693.771 610.15V600.225H695.842V604.152L699.352 600.225H701.294L701.495 600.642L698.201 604.31L701.855 609.733L701.653 610.15H699.755L696.864 605.806L695.842 606.914V610.15H693.771ZM702.601 602.095V600.225H710.713V602.095H707.693V610.15H705.622V602.095H702.601ZM582.911 625.992V622.828C582.911 621.39 583.631 620.67 585.069 620.67H587.083C588.521 620.67 589.24 621.39 589.24 622.828V625.992C589.24 627.431 588.521 628.15 587.083 628.15H585.069C583.631 628.15 582.911 627.431 582.911 625.992ZM584.062 626.136C584.062 626.807 584.398 627.143 585.069 627.143H587.083C587.754 627.143 588.089 626.807 588.089 626.136V622.684C588.089 622.013 587.754 621.677 587.083 621.677H585.069C584.398 621.677 584.062 622.013 584.062 622.684V626.136ZM591.426 628.15V620.67H595.454C596.892 620.67 597.611 621.39 597.611 622.828V628.15H596.461V622.684C596.461 622.013 596.125 621.677 595.454 621.677H592.577V628.15H591.426ZM603.31 628.15V619.664C603.31 618.225 604.029 617.506 605.467 617.506H606.762L607.337 617.937V618.513H605.467C604.796 618.513 604.461 618.848 604.461 619.52V620.67H607.193V621.677H604.461V628.15H603.31ZM608.716 628.15V621.533C609.052 620.958 609.675 620.67 610.586 620.67H612.025L612.6 621.102V621.677H610.586C610.26 621.677 610.021 621.764 609.867 621.936V628.15H608.716ZM615.755 628.15C614.307 628.15 613.583 627.426 613.583 625.978C613.583 624.53 614.307 623.806 615.755 623.806H618.387V622.684C618.387 622.013 618.051 621.677 617.38 621.677H614.302V621.102L614.877 620.67H617.38C618.818 620.67 619.537 621.39 619.537 622.828V628.15H615.755ZM614.733 626.136C614.733 626.807 615.069 627.143 615.74 627.143H618.387V624.813H615.74C615.069 624.813 614.733 625.149 614.733 625.82V626.136ZM621.781 628.15V617.506H622.932V624.482L626.398 620.67H627.52L627.621 620.886L624.946 623.806L627.822 627.934L627.722 628.15H626.6L624.183 624.64L622.932 625.992V628.15H621.781ZM629.323 625.992V618.225H630.474V620.67H633.207V621.677H630.474V626.136C630.474 626.807 630.809 627.143 631.48 627.143H633.35V627.718L632.775 628.15H631.48C630.042 628.15 629.323 627.431 629.323 625.992ZM634.984 619.318V617.995H636.193V619.318H634.984ZM635.013 628.15V620.67H636.164V628.15H635.013ZM638.354 625.992V622.828C638.354 621.39 639.073 620.67 640.511 620.67H642.525C643.963 620.67 644.682 621.39 644.682 622.828V625.992C644.682 627.431 643.963 628.15 642.525 628.15H640.511C639.073 628.15 638.354 627.431 638.354 625.992ZM639.504 626.136C639.504 626.807 639.84 627.143 640.511 627.143H642.525C643.196 627.143 643.532 626.807 643.532 626.136V622.684C643.532 622.013 643.196 621.677 642.525 621.677H640.511C639.84 621.677 639.504 622.013 639.504 622.684V626.136ZM646.869 628.15V620.67H650.896C652.334 620.67 653.054 621.39 653.054 622.828V628.15H651.903V622.684C651.903 622.013 651.567 621.677 650.896 621.677H648.019V628.15H646.869ZM655.297 628.15V626.568H656.735V628.15H655.297ZM660.802 628.15C659.354 628.15 658.63 627.426 658.63 625.978C658.63 624.53 659.354 623.806 660.802 623.806H663.434V622.684C663.434 622.013 663.099 621.677 662.428 621.677H659.349V621.102L659.925 620.67H662.428C663.866 620.67 664.585 621.39 664.585 622.828V628.15H660.802ZM659.781 626.136C659.781 626.807 660.117 627.143 660.788 627.143H663.434V624.813H660.788C660.117 624.813 659.781 625.149 659.781 625.82V626.136ZM666.771 628.15V621.533C667.107 620.958 667.73 620.67 668.641 620.67H670.08L670.655 621.102V621.677H668.641C668.315 621.677 668.076 621.764 667.922 621.936V628.15H666.771ZM672.123 625.992V618.225H673.274V620.67H676.007V621.677H673.274V626.136C673.274 626.807 673.61 627.143 674.281 627.143H676.151V627.718L675.575 628.15H674.281C672.842 628.15 672.123 627.431 672.123 625.992Z" fill="white"/>
    <rect x="513.4" y="571.568" width="231.739" height="67.9235" stroke="white" stroke-width="0.7991"/>
    <path d="M625.5 645.5L627.887 640.5L622.113 640.5L624.5 645.5L625.5 645.5ZM625 680.5L627.887 675.5L622.113 675.5L625 680.5ZM624.5 645L624.5 676L625.5 676L625.5 645L624.5 645Z" fill="white"/>
    <path d="M549.198 710.621V700.696H555.987V702.566H551.269V704.579H555.555V706.449H551.269V708.751H555.987V710.621H549.198ZM559.662 710.621C558.109 710.621 557.332 709.858 557.332 708.334C557.332 706.809 558.109 706.047 559.662 706.047H561.647V705.212C561.647 704.906 561.494 704.752 561.187 704.752H558.137V703.673L559 703.026H561.302C562.855 703.026 563.632 703.803 563.632 705.356V710.621H559.662ZM559.317 708.434C559.317 708.741 559.47 708.895 559.777 708.895H561.647V707.6H559.777C559.47 707.6 559.317 707.754 559.317 708.06V708.434ZM565.585 710.621V704.004C565.94 703.352 566.621 703.026 567.628 703.026H569.181L570.044 703.673V704.752H568.102C567.844 704.752 567.666 704.814 567.57 704.939V710.621H565.585ZM571.458 710.621V703.026H575.658C577.212 703.026 577.988 703.803 577.988 705.356V710.621H576.003V705.212C576.003 704.906 575.85 704.752 575.543 704.752H573.443V710.621H571.458ZM583.598 710.621V700.696H588.431C590.042 700.696 590.847 701.501 590.847 703.112V705.04C590.847 706.651 590.042 707.456 588.431 707.456H585.669V710.621H583.598ZM585.669 705.586H588.345C588.632 705.586 588.776 705.443 588.776 705.155V702.997C588.776 702.71 588.632 702.566 588.345 702.566H585.669V705.586ZM592.77 710.621V700.696H597.603C599.214 700.696 600.02 701.501 600.02 703.112V704.752C600.02 705.951 599.574 706.704 598.682 707.01L600.307 710.189L600.063 710.621H598.279L596.525 707.169H594.842V710.621H592.77ZM594.842 705.299H597.517C597.805 705.299 597.949 705.155 597.949 704.867V702.997C597.949 702.71 597.805 702.566 597.517 702.566H594.842V705.299ZM601.954 708.204V703.112C601.954 701.501 602.759 700.696 604.37 700.696H607.65C609.261 700.696 610.066 701.501 610.066 703.112V708.204C610.066 709.815 609.261 710.621 607.65 710.621H604.37C602.759 710.621 601.954 709.815 601.954 708.204ZM604.025 708.319C604.025 708.607 604.169 708.751 604.456 708.751H607.563C607.851 708.751 607.995 708.607 607.995 708.319V702.997C607.995 702.71 607.851 702.566 607.563 702.566H604.456C604.169 702.566 604.025 702.71 604.025 702.997V708.319ZM611.447 702.566V700.696H619.559V702.566H616.539V710.621H614.468V702.566H611.447ZM620.945 708.204V703.112C620.945 701.501 621.75 700.696 623.361 700.696H626.641C628.252 700.696 629.057 701.501 629.057 703.112V708.204C629.057 709.815 628.252 710.621 626.641 710.621H623.361C621.75 710.621 620.945 709.815 620.945 708.204ZM623.016 708.319C623.016 708.607 623.16 708.751 623.447 708.751H626.554C626.842 708.751 626.986 708.607 626.986 708.319V702.997C626.986 702.71 626.842 702.566 626.554 702.566H623.447C623.16 702.566 623.016 702.71 623.016 702.997V708.319ZM631.129 708.204V703.112C631.129 701.501 631.934 700.696 633.545 700.696H637.385L638.349 701.444V702.566H633.631C633.344 702.566 633.2 702.71 633.2 702.997V708.319C633.2 708.607 633.344 708.751 633.631 708.751H638.349V709.873L637.385 710.621H633.545C631.934 710.621 631.129 709.815 631.129 708.204ZM640.104 708.204V703.112C640.104 701.501 640.91 700.696 642.521 700.696H645.8C647.411 700.696 648.217 701.501 648.217 703.112V708.204C648.217 709.815 647.411 710.621 645.8 710.621H642.521C640.91 710.621 640.104 709.815 640.104 708.204ZM642.176 708.319C642.176 708.607 642.319 708.751 642.607 708.751H645.714C646.002 708.751 646.146 708.607 646.146 708.319V702.997C646.146 702.71 646.002 702.566 645.714 702.566H642.607C642.319 702.566 642.176 702.71 642.176 702.997V708.319ZM650.432 710.621V700.696H652.503V708.751H656.79V710.621H650.432ZM661.768 710.621V700.696H668.557V702.566H663.839V705.011H668.125V706.881H663.839V710.621H661.768ZM670.168 710.621V700.696H676.957V702.566H672.239V704.579H676.525V706.449H672.239V708.751H676.957V710.621H670.168ZM678.848 710.621V700.696H685.638V702.566H680.92V704.579H685.206V706.449H680.92V708.751H685.638V710.621H678.848ZM687.098 709.873V708.751H691.557C691.844 708.751 691.988 708.607 691.988 708.319V707.269C691.988 707.001 691.868 706.843 691.629 706.795L688.824 706.234C687.673 706.003 687.098 705.232 687.098 703.918V703.112C687.098 701.501 687.903 700.696 689.514 700.696H692.808L693.772 701.444V702.566H689.601C689.313 702.566 689.169 702.71 689.169 702.997V703.932C689.169 704.201 689.289 704.359 689.529 704.407L692.334 704.968C693.484 705.198 694.06 705.97 694.06 707.284V708.204C694.06 709.815 693.254 710.621 691.643 710.621H688.062L687.098 709.873ZM699.153 708.291V707.054C699.153 706.555 699.311 706.171 699.628 705.903L700.232 705.399L699.729 704.795C699.537 704.565 699.441 704.287 699.441 703.961V703.026C699.441 701.473 700.218 700.696 701.771 700.696H704.389L705.252 701.343V702.422H701.886C701.579 702.422 701.426 702.575 701.426 702.882V704.119C701.426 704.426 701.579 704.579 701.886 704.579H707.41V706.306H705.971V710.621H701.483C699.93 710.621 699.153 709.844 699.153 708.291ZM701.138 708.434C701.138 708.741 701.292 708.895 701.599 708.895H703.986V706.306H701.599C701.292 706.306 701.138 706.459 701.138 706.766V708.434ZM601.816 728.621V718.696H603.888V726.751H608.174V728.621H601.816ZM609.697 728.621V718.696H614.53C616.141 718.696 616.946 719.501 616.946 721.112V723.04C616.946 724.651 616.141 725.456 614.53 725.456H611.768V728.621H609.697ZM611.768 723.586H614.443C614.731 723.586 614.875 723.443 614.875 723.155V720.997C614.875 720.71 614.731 720.566 614.443 720.566H611.768V723.586ZM622.325 728.621V718.696H629.114V720.566H624.396V723.011H628.682V724.881H624.396V728.621H622.325ZM630.725 728.621V718.696H637.514V720.566H632.796V722.579H637.082V724.449H632.796V726.751H637.514V728.621H630.725ZM639.405 728.621V718.696H646.195V720.566H641.477V722.579H645.763V724.449H641.477V726.751H646.195V728.621H639.405ZM647.655 727.873V726.751H652.114C652.401 726.751 652.545 726.607 652.545 726.319V725.269C652.545 725.001 652.425 724.843 652.186 724.795L649.381 724.234C648.23 724.003 647.655 723.232 647.655 721.918V721.112C647.655 719.501 648.46 718.696 650.071 718.696H653.365L654.329 719.444V720.566H650.158C649.87 720.566 649.726 720.71 649.726 720.997V721.932C649.726 722.201 649.846 722.359 650.086 722.407L652.89 722.968C654.041 723.198 654.616 723.97 654.616 725.284V726.204C654.616 727.815 653.811 728.621 652.2 728.621H648.618L647.655 727.873Z" fill="white"/>
    <rect x="513.4" y="680.4" width="229.201" height="69.2009" stroke="white" stroke-width="0.7991"/>
    <path d="M653 952.757L652.5 952.757L652.5 953.257L653 953.257L653 952.757ZM887 952.757L887.5 952.757L887.5 952.257L887 952.257L887 952.757ZM887 980L889.887 975L884.113 975L887 980ZM653.5 905L655.887 900L650.113 900L652.5 905L653.5 905ZM653 953.257L887 953.257L887 952.257L653 952.257L653 953.257ZM886.5 952.757L886.5 975.5L887.5 975.5L887.5 952.757L886.5 952.757ZM653.5 952.757L653.5 904.5L652.5 904.5L652.5 952.757L653.5 952.757Z" fill="white"/>
    <path d="M600 952.757L600.5 952.757L600.5 953.257L600 953.257L600 952.757ZM371 952.757L370.5 952.757L370.5 952.257L371 952.257L371 952.757ZM371 980L368.113 975L373.887 975L371 980ZM599.5 905L597.113 900L602.887 900L600.5 905L599.5 905ZM600 953.257L371 953.257L371 952.257L600 952.257L600 953.257ZM371.5 952.757L371.5 975.5L370.5 975.5L370.5 952.757L371.5 952.757ZM599.5 952.757L599.5 904.5L600.5 904.5L600.5 952.757L599.5 952.757Z" fill="white"/>
    <path d="M588.175 859.873V858.751H592.634C592.922 858.751 593.066 858.607 593.066 858.319V857.269C593.066 857.001 592.946 856.843 592.706 856.795L589.901 856.234C588.75 856.004 588.175 855.232 588.175 853.918V853.112C588.175 851.501 588.981 850.696 590.592 850.696H593.885L594.849 851.444V852.566H590.678C590.39 852.566 590.246 852.71 590.246 852.997V853.932C590.246 854.201 590.366 854.359 590.606 854.407L593.411 854.968C594.561 855.198 595.137 855.97 595.137 857.284V858.204C595.137 859.815 594.331 860.621 592.72 860.621H589.139L588.175 859.873ZM596.861 858.291V850.696H598.846V853.026H601.32V854.752H598.846V858.434C598.846 858.741 599 858.895 599.307 858.895H601.464V859.973L600.601 860.621H599.191C597.638 860.621 596.861 859.844 596.861 858.291ZM604.943 860.621C603.389 860.621 602.612 859.858 602.612 858.334C602.612 856.809 603.389 856.047 604.943 856.047H606.927V855.212C606.927 854.906 606.774 854.752 606.467 854.752H603.418V853.673L604.281 853.026H606.582C608.136 853.026 608.912 853.803 608.912 855.356V860.621H604.943ZM604.597 858.434C604.597 858.741 604.751 858.895 605.058 858.895H606.927V857.6H605.058C604.751 857.6 604.597 857.754 604.597 858.06V858.434ZM610.923 860.621V849.977H612.908V855.888L615.541 853.026H617.497L617.655 853.357L615.023 856.191L617.856 860.29L617.698 860.621H615.756L613.714 857.615L612.908 858.492V860.621H610.923ZM619.152 858.291V855.356C619.152 853.803 619.929 853.026 621.482 853.026H623.352C624.906 853.026 625.682 853.803 625.682 855.356V857.571H621.137V858.434C621.137 858.741 621.29 858.895 621.597 858.895H625.395V859.973L624.532 860.621H621.482C619.929 860.621 619.152 859.844 619.152 858.291ZM621.137 856.018H623.697V855.212C623.697 854.906 623.544 854.752 623.237 854.752H621.597C621.29 854.752 621.137 854.906 621.137 855.212V856.018ZM630.879 859.873V858.751H635.05C635.338 858.751 635.481 858.607 635.481 858.319V857.485C635.481 857.217 635.362 857.058 635.122 857.01L632.605 856.507C631.454 856.277 630.879 855.505 630.879 854.191V853.544C630.879 851.933 631.684 851.127 633.295 851.127H633.353V849.401H635.079V851.127H636.301L637.265 851.875V852.997H633.381C633.094 852.997 632.95 853.141 632.95 853.429V854.206C632.95 854.474 633.07 854.632 633.31 854.68L635.827 855.184C636.977 855.414 637.553 856.186 637.553 857.499V858.204C637.553 859.815 636.747 860.621 635.136 860.621H635.079V862.347H633.353V860.621H631.842L630.879 859.873ZM639.554 860.621V850.696H646.343V852.566H641.625V855.011H645.912V856.881H641.625V860.621H639.554ZM647.954 860.621V850.696H652.787C654.398 850.696 655.203 851.501 655.203 853.112V854.752C655.203 855.951 654.757 856.704 653.866 857.01L655.491 860.189L655.246 860.621H653.463L651.708 857.169H650.025V860.621H647.954ZM650.025 855.299H652.7C652.988 855.299 653.132 855.155 653.132 854.867V852.997C653.132 852.71 652.988 852.566 652.7 852.566H650.025V855.299ZM657.281 860.621V850.696H659.352V854.623L662.862 850.696H664.804L665.005 851.113L661.711 854.781L665.365 860.204L665.163 860.621H663.264L660.373 856.277L659.352 857.384V860.621H657.281ZM666.111 852.566V850.696H674.223V852.566H671.203V860.621H669.131V852.566H666.111ZM594.784 876.463V873.299C594.784 871.86 595.503 871.141 596.941 871.141H598.955C600.393 871.141 601.113 871.86 601.113 873.299V876.463C601.113 877.902 600.393 878.621 598.955 878.621H596.941C595.503 878.621 594.784 877.902 594.784 876.463ZM595.934 876.607C595.934 877.278 596.27 877.614 596.941 877.614H598.955C599.626 877.614 599.962 877.278 599.962 876.607V873.155C599.962 872.484 599.626 872.148 598.955 872.148H596.941C596.27 872.148 595.934 872.484 595.934 873.155V876.607ZM603.299 878.621V871.141H607.326C608.765 871.141 609.484 871.86 609.484 873.299V878.621H608.333V873.155C608.333 872.484 607.997 872.148 607.326 872.148H604.449V878.621H603.299ZM615.182 878.621V870.134C615.182 868.696 615.901 867.977 617.34 867.977H618.634L619.21 868.408V868.984H617.34C616.669 868.984 616.333 869.319 616.333 869.99V871.141H619.066V872.148H616.333V878.621H615.182ZM620.589 878.621V872.004C620.924 871.429 621.548 871.141 622.459 871.141H623.897L624.472 871.573V872.148H622.459C622.133 872.148 621.893 872.234 621.74 872.407V878.621H620.589ZM627.627 878.621C626.179 878.621 625.455 877.897 625.455 876.449C625.455 875.001 626.179 874.277 627.627 874.277H630.259V873.155C630.259 872.484 629.924 872.148 629.252 872.148H626.174V871.573L626.75 871.141H629.252C630.691 871.141 631.41 871.86 631.41 873.299V878.621H627.627ZM626.606 876.607C626.606 877.278 626.941 877.614 627.613 877.614H630.259V875.284H627.613C626.941 875.284 626.606 875.619 626.606 876.291V876.607ZM633.654 878.621V867.977H634.804V874.953L638.271 871.141H639.393L639.493 871.357L636.818 874.277L639.695 878.405L639.594 878.621H638.472L636.056 875.111L634.804 876.463V878.621H633.654ZM641.195 876.463V868.696H642.346V871.141H645.079V872.148H642.346V876.607C642.346 877.278 642.682 877.614 643.353 877.614H645.223V878.189L644.647 878.621H643.353C641.915 878.621 641.195 877.902 641.195 876.463ZM646.886 878.621V877.039H648.324V878.621H646.886ZM652.391 878.621C650.943 878.621 650.219 877.897 650.219 876.449C650.219 875.001 650.943 874.277 652.391 874.277H655.023V873.155C655.023 872.484 654.688 872.148 654.017 872.148H650.938V871.573L651.514 871.141H654.017C655.455 871.141 656.174 871.86 656.174 873.299V878.621H652.391ZM651.37 876.607C651.37 877.278 651.706 877.614 652.377 877.614H655.023V875.284H652.377C651.706 875.284 651.37 875.619 651.37 876.291V876.607ZM658.36 878.621V872.004C658.696 871.429 659.319 871.141 660.23 871.141H661.669L662.244 871.573V872.148H660.23C659.904 872.148 659.665 872.234 659.511 872.407V878.621H658.36ZM663.712 876.463V868.696H664.863V871.141H667.596V872.148H664.863V876.607C664.863 877.278 665.199 877.614 665.87 877.614H667.74V878.189L667.164 878.621H665.87C664.431 878.621 663.712 877.902 663.712 876.463Z" fill="white"/>
    <rect x="516.4" y="830.4" width="229.201" height="69.2009" stroke="white" stroke-width="0.7991"/>
    <path d="M276.799 1008.08V1000.58H278.87V1008.2C278.87 1008.49 279.014 1008.63 279.302 1008.63H282.121C282.409 1008.63 282.553 1008.49 282.553 1008.2V1000.58H284.624V1008.08C284.624 1009.69 283.818 1010.5 282.207 1010.5H279.215C277.604 1010.5 276.799 1009.69 276.799 1008.08ZM286.901 1010.5V1000.58H289.144L293.086 1007.09V1000.58H295.157V1010.5H292.913L288.972 1003.98V1010.5H286.901ZM297.52 1010.5V1000.58H299.591V1008.63H303.878V1010.5H297.52ZM305.256 1008.08V1002.99C305.256 1001.38 306.062 1000.58 307.673 1000.58H310.952C312.563 1000.58 313.369 1001.38 313.369 1002.99V1008.08C313.369 1009.69 312.563 1010.5 310.952 1010.5H307.673C306.062 1010.5 305.256 1009.69 305.256 1008.08ZM307.328 1008.2C307.328 1008.49 307.471 1008.63 307.759 1008.63H310.866C311.154 1008.63 311.297 1008.49 311.297 1008.2V1002.88C311.297 1002.59 311.154 1002.45 310.866 1002.45H307.759C307.471 1002.45 307.328 1002.59 307.328 1002.88V1008.2ZM315.44 1008.08V1002.99C315.44 1001.38 316.246 1000.58 317.857 1000.58H321.697L322.661 1001.32V1002.45H317.943C317.655 1002.45 317.511 1002.59 317.511 1002.88V1008.2C317.511 1008.49 317.655 1008.63 317.943 1008.63H322.661V1009.75L321.697 1010.5H317.857C316.246 1010.5 315.44 1009.69 315.44 1008.08ZM324.56 1010.5V1000.58H326.631V1004.5L330.141 1000.58H332.082L332.284 1000.99L328.99 1004.66L332.643 1010.08L332.442 1010.5H330.543L327.652 1006.16L326.631 1007.26V1010.5H324.56ZM336.759 1000.96L337.018 1000.58H338.83L341.103 1008.63H341.333L343.605 1000.58H345.418L345.677 1000.96L342.858 1010.5H339.578L336.759 1000.96ZM346.975 1008.08V1002.99C346.975 1001.38 347.78 1000.58 349.391 1000.58H352.671C354.282 1000.58 355.087 1001.38 355.087 1002.99V1008.08C355.087 1009.69 354.282 1010.5 352.671 1010.5H349.391C347.78 1010.5 346.975 1009.69 346.975 1008.08ZM349.046 1008.2C349.046 1008.49 349.19 1008.63 349.478 1008.63H352.585C352.872 1008.63 353.016 1008.49 353.016 1008.2V1002.88C353.016 1002.59 352.872 1002.45 352.585 1002.45H349.478C349.19 1002.45 349.046 1002.59 349.046 1002.88V1008.2ZM356.468 1002.45V1000.58H364.581V1002.45H361.56V1010.5H359.489V1002.45H356.468ZM366.11 1010.5V1000.58H368.181V1010.5H366.11ZM370.535 1010.5V1000.58H372.778L376.72 1007.09V1000.58H378.791V1010.5H376.547L372.606 1003.98V1010.5H370.535ZM381.01 1008.08V1002.99C381.01 1001.38 381.816 1000.58 383.427 1000.58H387.583L388.547 1001.32V1002.45H383.513C383.225 1002.45 383.081 1002.59 383.081 1002.88V1008.2C383.081 1008.49 383.225 1008.63 383.513 1008.63H386.764V1006.33H384.865V1004.46H388.835V1010.5H383.427C381.816 1010.5 381.01 1009.69 381.01 1008.08ZM394.358 1010.5V1000.58H399.191C400.802 1000.58 401.607 1001.38 401.607 1002.99V1004.92C401.607 1006.53 400.802 1007.34 399.191 1007.34H396.429V1010.5H394.358ZM396.429 1005.47H399.104C399.392 1005.47 399.536 1005.32 399.536 1005.03V1002.88C399.536 1002.59 399.392 1002.45 399.104 1002.45H396.429V1005.47ZM403.386 1008.08V1002.99C403.386 1001.38 404.192 1000.58 405.803 1000.58H409.082C410.693 1000.58 411.499 1001.38 411.499 1002.99V1008.08C411.499 1009.69 410.693 1010.5 409.082 1010.5H405.803C404.192 1010.5 403.386 1009.69 403.386 1008.08ZM405.458 1008.2C405.458 1008.49 405.602 1008.63 405.889 1008.63H408.996C409.284 1008.63 409.428 1008.49 409.428 1008.2V1002.88C409.428 1002.59 409.284 1002.45 408.996 1002.45H405.889C405.602 1002.45 405.458 1002.59 405.458 1002.88V1008.2ZM412.937 1000.96L413.225 1000.58H414.922L416.519 1008.63H416.677L418.403 1001.52H420.417L422.143 1008.63H422.301L423.898 1000.58H425.595L425.883 1000.96L423.941 1010.5H420.647L419.41 1005.25L418.173 1010.5H414.879L412.937 1000.96ZM427.466 1010.5V1000.58H434.255V1002.45H429.537V1004.46H433.823V1006.33H429.537V1008.63H434.255V1010.5H427.466ZM436.147 1010.5V1000.58H440.98C442.591 1000.58 443.396 1001.38 443.396 1002.99V1004.63C443.396 1005.83 442.95 1006.58 442.058 1006.89L443.684 1010.07L443.439 1010.5H441.656L439.901 1007.05H438.218V1010.5H436.147ZM438.218 1005.18H440.893C441.181 1005.18 441.325 1005.03 441.325 1004.75V1002.88C441.325 1002.59 441.181 1002.45 440.893 1002.45H438.218V1005.18ZM338.998 1019.67V1018.35H340.207V1019.67H338.998ZM339.027 1028.5V1021.02H340.178V1028.5H339.027ZM342.483 1028.5V1021.02H346.51C347.948 1021.02 348.668 1021.74 348.668 1023.18V1028.5H347.517V1023.03C347.517 1022.36 347.181 1022.03 346.51 1022.03H343.633V1028.5H342.483ZM354.51 1028.5V1018.58H358.394C360.791 1018.58 361.99 1019.77 361.99 1022.17V1024.9C361.99 1027.3 360.791 1028.5 358.394 1028.5H354.51ZM355.718 1027.41H358.466C360.009 1027.41 360.781 1026.63 360.781 1025.09V1021.98C360.781 1020.44 360.009 1019.67 358.466 1019.67H355.718V1027.41ZM363.28 1028.24L366.53 1018.58H368.515L371.766 1028.24L371.593 1028.5H370.601L369.781 1026H365.265L364.445 1028.5H363.452L363.28 1028.24ZM365.624 1024.9H369.422L367.695 1019.67H367.35L365.624 1024.9ZM373.203 1026.3V1020.78C373.203 1019.31 373.936 1018.58 375.403 1018.58H378.769C380.236 1018.58 380.97 1019.31 380.97 1020.78V1026.3C380.97 1027.77 380.236 1028.5 378.769 1028.5H375.403C373.936 1028.5 373.203 1027.77 373.203 1026.3ZM374.411 1026.43C374.411 1027.08 374.737 1027.41 375.389 1027.41H378.784C379.436 1027.41 379.762 1027.08 379.762 1026.43V1020.65C379.762 1019.99 379.436 1019.67 378.784 1019.67H375.389C374.737 1019.67 374.411 1019.99 374.411 1020.65V1026.43Z" fill="white"/>
    <rect x="245.4" y="980.4" width="229.201" height="69.2009" stroke="white" stroke-width="0.7991"/>
    <path d="M852.121 1009.82V999.892H858.91V1001.76H854.193V1003.78H858.479V1005.65H854.193V1007.95H858.91V1009.82H852.121ZM862.586 1009.82C861.032 1009.82 860.256 1009.05 860.256 1007.53C860.256 1006.01 861.032 1005.24 862.586 1005.24H864.571V1004.41C864.571 1004.1 864.417 1003.95 864.11 1003.95H861.061V1002.87L861.924 1002.22H864.226C865.779 1002.22 866.556 1003 866.556 1004.55V1009.82H862.586ZM862.241 1007.63C862.241 1007.94 862.394 1008.09 862.701 1008.09H864.571V1006.8H862.701C862.394 1006.8 862.241 1006.95 862.241 1007.26V1007.63ZM868.509 1009.82V1003.2C868.864 1002.55 869.545 1002.22 870.552 1002.22H872.105L872.968 1002.87V1003.95H871.026C870.767 1003.95 870.59 1004.01 870.494 1004.14V1009.82H868.509ZM874.382 1009.82V1002.22H878.582C880.135 1002.22 880.912 1003 880.912 1004.55V1009.82H878.927V1004.41C878.927 1004.1 878.774 1003.95 878.467 1003.95H876.367V1009.82H874.382ZM886.09 1009.07V1007.95H890.549C890.837 1007.95 890.981 1007.8 890.981 1007.52V1006.47C890.981 1006.2 890.861 1006.04 890.621 1005.99L887.816 1005.43C886.666 1005.2 886.09 1004.43 886.09 1003.11V1002.31C886.09 1000.7 886.896 999.892 888.507 999.892H891.801L892.764 1000.64V1001.76H888.593C888.305 1001.76 888.161 1001.91 888.161 1002.19V1003.13C888.161 1003.4 888.281 1003.56 888.521 1003.6L891.326 1004.16C892.477 1004.39 893.052 1005.17 893.052 1006.48V1007.4C893.052 1009.01 892.246 1009.82 890.635 1009.82H887.054L886.09 1009.07ZM894.834 1009.82V999.173H896.819V1002.22H899.034C900.587 1002.22 901.364 1003 901.364 1004.55V1009.82H899.379V1004.41C899.379 1004.1 899.226 1003.95 898.919 1003.95H896.819V1009.82H894.834ZM905.302 1009.82C903.748 1009.82 902.972 1009.05 902.972 1007.53C902.972 1006.01 903.748 1005.24 905.302 1005.24H907.287V1004.41C907.287 1004.1 907.133 1003.95 906.826 1003.95H903.777V1002.87L904.64 1002.22H906.942C908.495 1002.22 909.272 1003 909.272 1004.55V1009.82H905.302ZM904.957 1007.63C904.957 1007.94 905.11 1008.09 905.417 1008.09H907.287V1006.8H905.417C905.11 1006.8 904.957 1006.95 904.957 1007.26V1007.63ZM911.225 1009.82V1003.2C911.58 1002.55 912.261 1002.22 913.268 1002.22H914.821L915.684 1002.87V1003.95H913.742C913.483 1003.95 913.306 1004.01 913.21 1004.14V1009.82H911.225ZM916.983 1007.49V1004.55C916.983 1003 917.76 1002.22 919.313 1002.22H921.183C922.736 1002.22 923.513 1003 923.513 1004.55V1006.77H918.968V1007.63C918.968 1007.94 919.121 1008.09 919.428 1008.09H923.225V1009.17L922.362 1009.82H919.313C917.76 1009.82 916.983 1009.04 916.983 1007.49ZM918.968 1005.21H921.528V1004.41C921.528 1004.1 921.375 1003.95 921.068 1003.95H919.428C919.121 1003.95 918.968 1004.1 918.968 1004.41V1005.21ZM925.211 1009.17V1008.09H928.519C928.845 1008.09 929.008 1007.91 929.008 1007.54C929.008 1007.17 928.864 1006.96 928.577 1006.91L927.023 1006.65C925.815 1006.45 925.211 1005.75 925.211 1004.55C925.211 1003 925.988 1002.22 927.541 1002.22H929.771L930.634 1002.87V1003.95H927.671C927.344 1003.95 927.181 1004.13 927.181 1004.5C927.181 1004.87 927.325 1005.08 927.613 1005.13L929.166 1005.39C930.375 1005.59 930.979 1006.29 930.979 1007.49C930.979 1009.04 930.202 1009.82 928.649 1009.82H926.074L925.211 1009.17ZM936.23 1007.66V1004.5C936.23 1003.06 936.949 1002.34 938.387 1002.34H940.401C941.839 1002.34 942.558 1003.06 942.558 1004.5V1007.66C942.558 1009.1 941.839 1009.82 940.401 1009.82H938.387C936.949 1009.82 936.23 1009.1 936.23 1007.66ZM937.38 1007.8C937.38 1008.47 937.716 1008.81 938.387 1008.81H940.401C941.072 1008.81 941.408 1008.47 941.408 1007.8V1004.35C941.408 1003.68 941.072 1003.34 940.401 1003.34H938.387C937.716 1003.34 937.38 1003.68 937.38 1004.35V1007.8ZM944.745 1009.82V1001.33C944.745 999.892 945.464 999.173 946.902 999.173H948.197L948.772 999.605V1000.18H946.902C946.231 1000.18 945.895 1000.52 945.895 1001.19V1002.34H948.628V1003.34H945.895V1009.82H944.745ZM835.803 1025.66V1022.5C835.803 1021.06 836.522 1020.34 837.96 1020.34H839.83C841.269 1020.34 841.988 1021.06 841.988 1022.5V1024.57H836.953V1025.8C836.953 1026.47 837.289 1026.81 837.96 1026.81H841.7V1027.39L841.125 1027.82H837.96C836.522 1027.82 835.803 1027.1 835.803 1025.66ZM836.953 1023.56H840.837V1022.35C840.837 1021.68 840.501 1021.34 839.83 1021.34H837.96C837.289 1021.34 836.953 1021.68 836.953 1022.35V1023.56ZM844.062 1025.66V1022.5C844.062 1021.06 844.781 1020.34 846.22 1020.34H849.039L849.614 1020.77V1021.34H846.22C845.549 1021.34 845.213 1021.68 845.213 1022.35V1025.8C845.213 1026.47 845.549 1026.81 846.22 1026.81H849.614V1027.39L849.039 1027.82H846.22C844.781 1027.82 844.062 1027.1 844.062 1025.66ZM851.31 1025.66V1022.5C851.31 1021.06 852.029 1020.34 853.468 1020.34H855.482C856.92 1020.34 857.639 1021.06 857.639 1022.5V1025.66C857.639 1027.1 856.92 1027.82 855.482 1027.82H853.468C852.029 1027.82 851.31 1027.1 851.31 1025.66ZM852.461 1025.8C852.461 1026.47 852.797 1026.81 853.468 1026.81H855.482C856.153 1026.81 856.488 1026.47 856.488 1025.8V1022.35C856.488 1021.68 856.153 1021.34 855.482 1021.34H853.468C852.797 1021.34 852.461 1021.68 852.461 1022.35V1025.8ZM859.538 1027.39V1026.81H862.846C863.517 1026.81 863.853 1026.47 863.853 1025.8C863.853 1025.13 863.565 1024.75 862.99 1024.65L861.264 1024.36C860.113 1024.17 859.538 1023.54 859.538 1022.47C859.538 1021.05 860.257 1020.34 861.695 1020.34H864.083L864.658 1020.77V1021.34H861.695C861.024 1021.34 860.688 1021.68 860.688 1022.35C860.688 1022.93 860.976 1023.26 861.551 1023.36L863.277 1023.65C864.428 1023.84 865.003 1024.52 865.003 1025.69C865.003 1027.11 864.284 1027.82 862.846 1027.82H860.113L859.538 1027.39ZM866.154 1020.54L866.284 1020.34H867.276L869.462 1026.81H869.75L871.936 1020.34H872.929L873.058 1020.54L869.549 1030.69H868.556L868.427 1030.49L869.391 1027.82H868.671L866.154 1020.54ZM874.202 1027.39V1026.81H877.511C878.182 1026.81 878.517 1026.47 878.517 1025.8C878.517 1025.13 878.23 1024.75 877.654 1024.65L875.928 1024.36C874.778 1024.17 874.202 1023.54 874.202 1022.47C874.202 1021.05 874.922 1020.34 876.36 1020.34H878.748L879.323 1020.77V1021.34H876.36C875.689 1021.34 875.353 1021.68 875.353 1022.35C875.353 1022.93 875.641 1023.26 876.216 1023.36L877.942 1023.65C879.093 1023.84 879.668 1024.52 879.668 1025.69C879.668 1027.11 878.949 1027.82 877.511 1027.82H874.778L874.202 1027.39ZM881.624 1025.66V1017.89H882.775V1020.34H885.508V1021.34H882.775V1025.8C882.775 1026.47 883.111 1026.81 883.782 1026.81H885.652V1027.39L885.076 1027.82H883.782C882.344 1027.82 881.624 1027.1 881.624 1025.66ZM887.2 1025.66V1022.5C887.2 1021.06 887.919 1020.34 889.357 1020.34H891.227C892.665 1020.34 893.385 1021.06 893.385 1022.5V1024.57H888.35V1025.8C888.35 1026.47 888.686 1026.81 889.357 1026.81H893.097V1027.39L892.522 1027.82H889.357C887.919 1027.82 887.2 1027.1 887.2 1025.66ZM888.35 1023.56H892.234V1022.35C892.234 1021.68 891.898 1021.34 891.227 1021.34H889.357C888.686 1021.34 888.35 1021.68 888.35 1022.35V1023.56ZM895.574 1027.82V1020.34H904.061C905.499 1020.34 906.218 1021.06 906.218 1022.5V1027.82H905.067V1022.35C905.067 1021.68 904.732 1021.34 904.061 1021.34H901.471V1027.82H900.321V1021.34H896.725V1027.82H895.574ZM911.867 1027.82V1021.2C912.203 1020.63 912.826 1020.34 913.737 1020.34H915.175L915.751 1020.77V1021.34H913.737C913.411 1021.34 913.171 1021.43 913.018 1021.6V1027.82H911.867ZM917.161 1025.66V1022.5C917.161 1021.06 917.88 1020.34 919.319 1020.34H921.189C922.627 1020.34 923.346 1021.06 923.346 1022.5V1024.57H918.312V1025.8C918.312 1026.47 918.647 1026.81 919.319 1026.81H923.059V1027.39L922.483 1027.82H919.319C917.88 1027.82 917.161 1027.1 917.161 1025.66ZM918.312 1023.56H922.195V1022.35C922.195 1021.68 921.86 1021.34 921.189 1021.34H919.319C918.647 1021.34 918.312 1021.68 918.312 1022.35V1023.56ZM924.673 1020.54L924.802 1020.34H925.795L927.981 1026.81H928.269L930.455 1020.34H931.447L931.577 1020.54L929.06 1027.82H927.19L924.673 1020.54ZM932.893 1025.66V1022.5C932.893 1021.06 933.613 1020.34 935.051 1020.34H936.921C938.359 1020.34 939.078 1021.06 939.078 1022.5V1024.57H934.044V1025.8C934.044 1026.47 934.38 1026.81 935.051 1026.81H938.791V1027.39L938.215 1027.82H935.051C933.613 1027.82 932.893 1027.1 932.893 1025.66ZM934.044 1023.56H937.928V1022.35C937.928 1021.68 937.592 1021.34 936.921 1021.34H935.051C934.38 1021.34 934.044 1021.68 934.044 1022.35V1023.56ZM941.268 1027.82V1020.34H945.295C946.734 1020.34 947.453 1021.06 947.453 1022.5V1027.82H946.302V1022.35C946.302 1021.68 945.967 1021.34 945.295 1021.34H942.419V1027.82H941.268ZM949.638 1025.66V1020.34H950.789V1025.8C950.789 1026.47 951.125 1026.81 951.796 1026.81H954.673V1020.34H955.823V1027.82H951.796C950.358 1027.82 949.638 1027.1 949.638 1025.66ZM958.009 1025.66V1022.5C958.009 1021.06 958.728 1020.34 960.167 1020.34H962.036C963.475 1020.34 964.194 1021.06 964.194 1022.5V1024.57H959.16V1025.8C959.16 1026.47 959.495 1026.81 960.167 1026.81H963.906V1027.39L963.331 1027.82H960.167C958.728 1027.82 958.009 1027.1 958.009 1025.66ZM959.16 1023.56H963.043V1022.35C963.043 1021.68 962.708 1021.34 962.036 1021.34H960.167C959.495 1021.34 959.16 1021.68 959.16 1022.35V1023.56Z" fill="white"/>
    <rect x="785.4" y="980.4" width="229.201" height="69.2009" stroke="white" stroke-width="0.7991"/>
    <path d="M549.117 1008.2V1000.7H551.188V1008.32C551.188 1008.61 551.332 1008.75 551.619 1008.75H554.439C554.726 1008.75 554.87 1008.61 554.87 1008.32V1000.7H556.941V1008.2C556.941 1009.82 556.136 1010.62 554.525 1010.62H551.533C549.922 1010.62 549.117 1009.82 549.117 1008.2ZM559.218 1010.62V1000.7H561.462L565.403 1007.21V1000.7H567.475V1010.62H565.231L561.289 1004.1V1010.62H559.218ZM569.838 1010.62V1000.7H571.909V1008.75H576.195V1010.62H569.838ZM577.574 1008.2V1003.11C577.574 1001.5 578.379 1000.7 579.99 1000.7H583.27C584.881 1000.7 585.686 1001.5 585.686 1003.11V1008.2C585.686 1009.82 584.881 1010.62 583.27 1010.62H579.99C578.379 1010.62 577.574 1009.82 577.574 1008.2ZM579.645 1008.32C579.645 1008.61 579.789 1008.75 580.077 1008.75H583.184C583.471 1008.75 583.615 1008.61 583.615 1008.32V1003C583.615 1002.71 583.471 1002.57 583.184 1002.57H580.077C579.789 1002.57 579.645 1002.71 579.645 1003V1008.32ZM587.758 1008.2V1003.11C587.758 1001.5 588.563 1000.7 590.174 1000.7H594.015L594.978 1001.44V1002.57H590.26C589.973 1002.57 589.829 1002.71 589.829 1003V1008.32C589.829 1008.61 589.973 1008.75 590.26 1008.75H594.978V1009.87L594.015 1010.62H590.174C588.563 1010.62 587.758 1009.82 587.758 1008.2ZM596.877 1010.62V1000.7H598.949V1004.62L602.458 1000.7H604.4L604.601 1001.11L601.308 1004.78L604.961 1010.2L604.76 1010.62H602.861L599.97 1006.28L598.949 1007.38V1010.62H596.877ZM609.997 1010.62V1000.7H614.83C616.441 1000.7 617.246 1001.5 617.246 1003.11V1004.75C617.246 1005.95 616.801 1006.7 615.909 1007.01L617.534 1010.19L617.29 1010.62H615.506L613.751 1007.17H612.068V1010.62H609.997ZM612.068 1005.3H614.744C615.031 1005.3 615.175 1005.15 615.175 1004.87V1003C615.175 1002.71 615.031 1002.57 614.744 1002.57H612.068V1005.3ZM619.324 1010.62V1000.7H626.113V1002.57H621.395V1004.58H625.682V1006.45H621.395V1008.75H626.113V1010.62H619.324ZM628.005 1010.62V1000.7H631.773C634.478 1000.7 635.83 1002.05 635.83 1004.75V1006.56C635.83 1009.27 634.478 1010.62 631.773 1010.62H628.005ZM630.076 1008.75H631.888C633.135 1008.75 633.758 1008.13 633.758 1006.88V1004.44C633.758 1003.19 633.135 1002.57 631.888 1002.57H630.076V1008.75ZM637.821 1008.2V1000.7H639.893V1008.32C639.893 1008.61 640.037 1008.75 640.324 1008.75H643.143C643.431 1008.75 643.575 1008.61 643.575 1008.32V1000.7H645.646V1008.2C645.646 1009.82 644.841 1010.62 643.23 1010.62H640.238C638.627 1010.62 637.821 1009.82 637.821 1008.2ZM647.779 1008.2V1003.11C647.779 1001.5 648.585 1000.7 650.196 1000.7H654.036L655 1001.44V1002.57H650.282C649.994 1002.57 649.85 1002.71 649.85 1003V1008.32C649.85 1008.61 649.994 1008.75 650.282 1008.75H655V1009.87L654.036 1010.62H650.196C648.585 1010.62 647.779 1009.82 647.779 1008.2ZM656.899 1010.62V1000.7H663.688V1002.57H658.97V1004.58H663.257V1006.45H658.97V1008.75H663.688V1010.62H656.899ZM665.58 1010.62V1000.7H669.348C672.052 1000.7 673.405 1002.05 673.405 1004.75V1006.56C673.405 1009.27 672.052 1010.62 669.348 1010.62H665.58ZM667.651 1008.75H669.463C670.71 1008.75 671.333 1008.13 671.333 1006.88V1004.44C671.333 1003.19 670.71 1002.57 669.463 1002.57H667.651V1008.75ZM678.938 1010.62V1000.7H685.727V1002.57H681.009V1005.01H685.296V1006.88H681.009V1010.62H678.938ZM687.338 1010.62V1000.7H694.127V1002.57H689.409V1004.58H693.696V1006.45H689.409V1008.75H694.127V1010.62H687.338ZM696.019 1010.62V1000.7H702.808V1002.57H698.09V1004.58H702.377V1006.45H698.09V1008.75H702.808V1010.62H696.019ZM704.268 1009.87V1008.75H708.727C709.015 1008.75 709.159 1008.61 709.159 1008.32V1007.27C709.159 1007 709.039 1006.84 708.799 1006.79L705.994 1006.23C704.844 1006 704.268 1005.23 704.268 1003.92V1003.11C704.268 1001.5 705.074 1000.7 706.685 1000.7H709.979L710.942 1001.44V1002.57H706.771C706.483 1002.57 706.34 1002.71 706.34 1003V1003.93C706.34 1004.2 706.459 1004.36 706.699 1004.41L709.504 1004.97C710.655 1005.2 711.23 1005.97 711.23 1007.28V1008.2C711.23 1009.82 710.425 1010.62 708.814 1010.62H705.232L704.268 1009.87ZM583.642 1026.46V1023.3C583.642 1021.86 584.361 1021.14 585.8 1021.14H587.813C589.252 1021.14 589.971 1021.86 589.971 1023.3V1026.46C589.971 1027.9 589.252 1028.62 587.813 1028.62H585.8C584.361 1028.62 583.642 1027.9 583.642 1026.46ZM584.793 1026.61C584.793 1027.28 585.128 1027.61 585.8 1027.61H587.813C588.485 1027.61 588.82 1027.28 588.82 1026.61V1023.15C588.82 1022.48 588.485 1022.15 587.813 1022.15H585.8C585.128 1022.15 584.793 1022.48 584.793 1023.15V1026.61ZM592.157 1028.62V1021.14H596.184C597.623 1021.14 598.342 1021.86 598.342 1023.3V1028.62H597.191V1023.15C597.191 1022.48 596.856 1022.15 596.184 1022.15H593.308V1028.62H592.157ZM604.041 1028.62V1020.13C604.041 1018.7 604.76 1017.98 606.198 1017.98H607.493L608.068 1018.41V1018.98H606.198C605.527 1018.98 605.191 1019.32 605.191 1019.99V1021.14H607.924V1022.15H605.191V1028.62H604.041ZM609.447 1028.62V1022C609.783 1021.43 610.406 1021.14 611.317 1021.14H612.755L613.331 1021.57V1022.15H611.317C610.991 1022.15 610.751 1022.23 610.598 1022.41V1028.62H609.447ZM616.485 1028.62C615.037 1028.62 614.313 1027.9 614.313 1026.45C614.313 1025 615.037 1024.28 616.485 1024.28H619.117V1023.15C619.117 1022.48 618.782 1022.15 618.111 1022.15H615.032V1021.57L615.608 1021.14H618.111C619.549 1021.14 620.268 1021.86 620.268 1023.3V1028.62H616.485ZM615.464 1026.61C615.464 1027.28 615.8 1027.61 616.471 1027.61H619.117V1025.28H616.471C615.8 1025.28 615.464 1025.62 615.464 1026.29V1026.61ZM622.512 1028.62V1017.98H623.663V1024.95L627.129 1021.14H628.251L628.352 1021.36L625.676 1024.28L628.553 1028.4L628.452 1028.62H627.33L624.914 1025.11L623.663 1026.46V1028.62H622.512ZM630.054 1026.46V1018.7H631.204V1021.14H633.937V1022.15H631.204V1026.61C631.204 1027.28 631.54 1027.61 632.211 1027.61H634.081V1028.19L633.506 1028.62H632.211C630.773 1028.62 630.054 1027.9 630.054 1026.46ZM635.715 1019.79V1018.47H636.923V1019.79H635.715ZM635.744 1028.62V1021.14H636.895V1028.62H635.744ZM639.084 1026.46V1023.3C639.084 1021.86 639.804 1021.14 641.242 1021.14H643.256C644.694 1021.14 645.413 1021.86 645.413 1023.3V1026.46C645.413 1027.9 644.694 1028.62 643.256 1028.62H641.242C639.804 1028.62 639.084 1027.9 639.084 1026.46ZM640.235 1026.61C640.235 1027.28 640.571 1027.61 641.242 1027.61H643.256C643.927 1027.61 644.262 1027.28 644.262 1026.61V1023.15C644.262 1022.48 643.927 1022.15 643.256 1022.15H641.242C640.571 1022.15 640.235 1022.48 640.235 1023.15V1026.61ZM647.599 1028.62V1021.14H651.627C653.065 1021.14 653.784 1021.86 653.784 1023.3V1028.62H652.634V1023.15C652.634 1022.48 652.298 1022.15 651.627 1022.15H648.75V1028.62H647.599ZM656.027 1028.62V1027.04H657.466V1028.62H656.027ZM661.533 1028.62C660.085 1028.62 659.361 1027.9 659.361 1026.45C659.361 1025 660.085 1024.28 661.533 1024.28H664.165V1023.15C664.165 1022.48 663.83 1022.15 663.158 1022.15H660.08V1021.57L660.656 1021.14H663.158C664.597 1021.14 665.316 1021.86 665.316 1023.3V1028.62H661.533ZM660.512 1026.61C660.512 1027.28 660.847 1027.61 661.519 1027.61H664.165V1025.28H661.519C660.847 1025.28 660.512 1025.62 660.512 1026.29V1026.61ZM667.502 1028.62V1022C667.838 1021.43 668.461 1021.14 669.372 1021.14H670.81L671.386 1021.57V1022.15H669.372C669.046 1022.15 668.806 1022.23 668.653 1022.41V1028.62H667.502ZM672.854 1026.46V1018.7H674.005V1021.14H676.738V1022.15H674.005V1026.61C674.005 1027.28 674.34 1027.61 675.011 1027.61H676.881V1028.19L676.306 1028.62H675.011C673.573 1028.62 672.854 1027.9 672.854 1026.46Z" fill="white"/>
    <rect x="515.4" y="980.4" width="229.201" height="69.2009" stroke="white" stroke-width="0.7991"/>
    <path d="M625.5 905L627.887 900L622.113 900L624.5 905L625.5 905ZM625 979.5L627.887 974.5L622.113 974.5L625 979.5ZM624.5 904.5L624.5 975L625.5 975L625.5 904.5L624.5 904.5Z" fill="white"/>
    <path d="M625.5 498L627.887 493L622.113 493L624.5 498L625.5 498ZM625 572.5L627.887 567.5L622.113 567.5L625 572.5ZM624.5 497.5L624.5 568L625.5 568L625.5 497.5L624.5 497.5Z" fill="white"/>
    <path d="M186.424 555V554.5H186.924V555H186.424ZM186.424 1018V1018.5H185.924V1018H186.424ZM244 1018L239 1020.89V1015.11L244 1018ZM148 555.5L143 557.887V552.113L148 554.5V555.5ZM186.924 555V1018H185.924V555H186.924ZM186.424 1017.5H239.5V1018.5H186.424V1017.5ZM186.424 555.5H147.5V554.5H186.424V555.5Z" fill="white"/>
    <path d="M188.765 508V508.5H189.265V508H188.765ZM188.765 45V44.5H188.265V45H188.765ZM239.5 45L234.5 42.1132V47.8868L239.5 45ZM148 507.5L143 505.113V510.887L148 508.5V507.5ZM189.265 508V45H188.265V508H189.265ZM188.765 45.5H235V44.5H188.765V45.5ZM188.765 507.5H147.5V508.5H188.765V507.5Z" fill="white"/>
    <rect x="0.5" y="496.5" width="64" height="69" fill="white" stroke="white"/>
    <path d="M10.1795 526V516.075H14.8686C16.4796 516.075 17.2851 516.881 17.2851 518.492V519.355C17.2851 519.681 17.1892 519.959 16.9974 520.189L16.494 520.793L17.0981 521.296C17.4145 521.555 17.5727 521.939 17.5727 522.447V523.584C17.5727 525.195 16.7673 526 15.1563 526H10.1795ZM12.2507 524.13H15.07C15.3576 524.13 15.5015 523.986 15.5015 523.699V522.26C15.5015 521.973 15.3576 521.829 15.07 521.829H12.2507V524.13ZM12.2507 519.959H14.7823C15.07 519.959 15.2138 519.815 15.2138 519.527V518.377C15.2138 518.089 15.07 517.945 14.7823 517.945H12.2507V519.959ZM19.4764 523.584V516.075H21.5476V523.699C21.5476 523.986 21.6915 524.13 21.9791 524.13H24.7984C25.086 524.13 25.2299 523.986 25.2299 523.699V516.075H27.3011V523.584C27.3011 525.195 26.4957 526 24.8847 526H21.8928C20.2819 526 19.4764 525.195 19.4764 523.584ZM28.6574 516.464L28.9019 516.075H30.6711L32.8287 520.29L34.9863 516.075H36.7555L37 516.464L33.8643 522.49V526H31.7931V522.49L28.6574 516.464ZM41.6092 523.67V522.433C41.6092 521.934 41.7674 521.551 42.0839 521.282L42.688 520.779L42.1846 520.175C41.9928 519.944 41.8969 519.666 41.8969 519.34V518.405C41.8969 516.852 42.6736 516.075 44.2271 516.075H46.8449L47.708 516.722V517.801H44.3421C44.0353 517.801 43.8819 517.955 43.8819 518.262V519.499C43.8819 519.805 44.0353 519.959 44.3421 519.959H49.8655V521.685H48.4271V526H43.9394C42.3859 526 41.6092 525.223 41.6092 523.67ZM43.5942 523.814C43.5942 524.121 43.7476 524.274 44.0545 524.274H46.4422V521.685H44.0545C43.7476 521.685 43.5942 521.838 43.5942 522.145V523.814ZM9.74796 543.252V542.13H14.2069C14.4946 542.13 14.6385 541.986 14.6385 541.699V540.649C14.6385 540.38 14.5186 540.222 14.2789 540.174L11.474 539.613C10.3233 539.383 9.74796 538.611 9.74796 537.297V536.492C9.74796 534.881 10.5535 534.075 12.1644 534.075H15.4583L16.422 534.823V535.945H12.2507C11.9631 535.945 11.8192 536.089 11.8192 536.377V537.312C11.8192 537.58 11.9391 537.738 12.1788 537.786L14.9837 538.347C16.1344 538.577 16.7097 539.349 16.7097 540.663V541.584C16.7097 543.195 15.9042 544 14.2932 544H10.7117L9.74796 543.252ZM17.8013 535.945V534.075H25.9138V535.945H22.8932V544H20.8219V535.945H17.8013ZM25.8059 543.612L28.7546 534.075H31.919L34.8677 543.612L34.6088 544H32.8827L32.2786 541.986H28.395L27.7909 544H26.0648L25.8059 543.612ZM28.956 540.116H31.7177L30.4519 535.945H30.2217L28.956 540.116ZM36.3063 544V534.075H38.3776V538.002L41.8872 534.075H43.829L44.0304 534.492L40.7365 538.16L44.39 543.583L44.1886 544H42.29L39.3988 539.656L38.3776 540.764V544H36.3063ZM45.9704 544V534.075H52.7596V535.945H48.0417V537.959H52.3281V539.829H48.0417V542.13H52.7596V544H45.9704Z" fill="black"/>
    <rect x="65.5" y="496.5" width="76" height="69" fill="black" stroke="white"/>
    <path d="M78.1795 526V516.075H84.9686V517.945H80.2507V520.39H84.5371V522.26H80.2507V526H78.1795ZM86.5794 526V516.075H91.4124C93.0233 516.075 93.8288 516.881 93.8288 518.492V520.131C93.8288 521.33 93.3829 522.083 92.4911 522.39L94.1165 525.568L93.872 526H92.0884L90.3336 522.548H88.6507V526H86.5794ZM88.6507 520.678H91.326C91.6137 520.678 91.7576 520.534 91.7576 520.246V518.377C91.7576 518.089 91.6137 517.945 91.326 517.945H88.6507V520.678ZM94.9858 525.612L97.9345 516.075H101.099L104.048 525.612L103.789 526H102.063L101.459 523.986H97.5749L96.9708 526H95.2447L94.9858 525.612ZM98.1359 522.116H100.898L99.6318 517.945H99.4017L98.1359 522.116ZM105.486 526V516.075H107.558V520.002L111.067 516.075H113.009L113.21 516.492L109.916 520.16L113.57 525.583L113.369 526H111.47L108.579 521.656L107.558 522.764V526H105.486ZM114.316 517.945V516.075H122.429V517.945H119.408V526H117.337V517.945H114.316ZM78.1795 544V534.075H80.4233L84.3645 540.591V534.075H86.4358V544H84.1919L80.2507 537.484V544H78.1795ZM88.7988 544V534.075H95.5879V535.945H90.87V538.39H95.1564V540.26H90.87V544H88.7988ZM96.3644 535.945V534.075H104.477V535.945H101.456V544H99.385V535.945H96.3644ZM105.027 543.353V542.274H108.336C108.662 542.274 108.825 542.092 108.825 541.727C108.825 541.353 108.681 541.142 108.393 541.094L106.84 540.836C105.631 540.634 105.027 539.934 105.027 538.736C105.027 537.182 105.804 536.405 107.357 536.405H109.587L110.45 537.053V538.131H107.487C107.161 538.131 106.998 538.314 106.998 538.678C106.998 539.052 107.142 539.263 107.429 539.311L108.983 539.57C110.191 539.771 110.795 540.471 110.795 541.67C110.795 543.223 110.018 544 108.465 544H105.89L105.027 543.353Z" fill="white"/>
    <path d="M148 532.5L143 530.113V535.887L148 533.5V532.5ZM245 533L240 530.113V535.887L245 533ZM147.5 533.5H240.5V532.5H147.5V533.5Z" fill="white"/>
</svg>
