<svg width="1037" height="679" viewBox="0 0 1037 679" fill="none" xmlns="http://www.w3.org/2000/svg">
    <rect x="65" y="1" width="913" height="677" fill="black" stroke="white" stroke-width="2"/>
    <rect x="914.5" y="286.5" width="64" height="51" fill="black" stroke="white"/>
    <rect x="979.5" y="286.5" width="57" height="51" fill="white" stroke="white"/>
    <path d="M472.218 91.982V82.0572H474.692L477.497 88.0552L480.301 82.0572H482.775V91.982H480.704V85.7107L478.374 90.6875H476.619L474.289 85.7107V91.982H472.218ZM484.968 83.1503V81.2229H487.011V83.1503H484.968ZM484.997 91.982V84.3873H486.982V91.982H484.997ZM489.056 91.982V84.3873H493.256C494.81 84.3873 495.587 85.1641 495.587 86.7175V91.982H493.602V86.5737C493.602 86.2668 493.448 86.1134 493.141 86.1134H491.041V91.982H489.056ZM497.539 89.6518V82.0572H499.524V84.3873H501.998V86.1134H499.524V89.7957C499.524 90.1025 499.678 90.2559 499.984 90.2559H502.142V91.3347L501.279 91.982H499.869C498.316 91.982 497.539 91.2053 497.539 89.6518ZM507.292 91.982V82.0572H509.364V85.9839L512.873 82.0572H514.815L515.016 82.4743L511.723 86.1422L515.376 91.5649L515.175 91.982H513.276L510.385 87.6381L509.364 88.7456V91.982H507.292ZM516.755 89.6518V84.3873H518.74V89.7957C518.74 90.1025 518.893 90.2559 519.2 90.2559H521.3V84.3873H523.285V91.982H519.085C517.532 91.982 516.755 91.2053 516.755 89.6518ZM525.295 91.982V85.3654C525.65 84.7134 526.331 84.3873 527.338 84.3873H528.891L529.754 85.0346V86.1134H527.813C527.554 86.1134 527.376 86.1757 527.28 86.3004V91.982H525.295ZM532.955 91.982C531.402 91.982 530.625 91.2197 530.625 89.695C530.625 88.1703 531.402 87.4079 532.955 87.4079H534.94V86.5737C534.94 86.2668 534.787 86.1134 534.48 86.1134H531.431V85.0346L532.294 84.3873H534.595C536.148 84.3873 536.925 85.1641 536.925 86.7175V91.982H532.955ZM532.61 89.7957C532.61 90.1025 532.763 90.2559 533.07 90.2559H534.94V88.9614H533.07C532.763 88.9614 532.61 89.1148 532.61 89.4217V89.7957ZM538.879 89.6518V82.0572H540.864V84.3873H543.338V86.1134H540.864V89.7957C540.864 90.1025 541.017 90.2559 541.324 90.2559H543.481V91.3347L542.618 91.982H541.209C539.655 91.982 538.879 91.2053 538.879 89.6518ZM544.917 89.6518V86.7175C544.917 85.1641 545.694 84.3873 547.247 84.3873H549.117C550.671 84.3873 551.448 85.1641 551.448 86.7175V88.9326H546.902V89.7957C546.902 90.1025 547.056 90.2559 547.363 90.2559H551.16V91.3347L550.297 91.982H547.247C545.694 91.982 544.917 91.2053 544.917 89.6518ZM546.902 87.3792H549.463V86.5737C549.463 86.2668 549.309 86.1134 549.002 86.1134H547.363C547.056 86.1134 546.902 86.2668 546.902 86.5737V87.3792ZM553.289 89.6518V86.7175C553.289 85.1641 554.066 84.3873 555.619 84.3873H557.834V81.338H559.819V91.982H555.619C554.066 91.982 553.289 91.2053 553.289 89.6518ZM555.274 89.7957C555.274 90.1025 555.428 90.2559 555.734 90.2559H557.834V86.1134H555.734C555.428 86.1134 555.274 86.2668 555.274 86.5737V89.7957ZM565.229 89.6518V86.7175C565.229 85.1641 566.006 84.3873 567.559 84.3873H570.234L571.097 85.0346V86.1134H567.674C567.367 86.1134 567.214 86.2668 567.214 86.5737V89.7957C567.214 90.1025 567.367 90.2559 567.674 90.2559H571.097V91.3347L570.234 91.982H567.559C566.006 91.982 565.229 91.2053 565.229 89.6518ZM572.674 89.6518V86.7175C572.674 85.1641 573.45 84.3873 575.004 84.3873H577.017C578.571 84.3873 579.348 85.1641 579.348 86.7175V89.6518C579.348 91.2053 578.571 91.982 577.017 91.982H575.004C573.45 91.982 572.674 91.2053 572.674 89.6518ZM574.659 89.7957C574.659 90.1025 574.812 90.2559 575.119 90.2559H576.902C577.209 90.2559 577.363 90.1025 577.363 89.7957V86.5737C577.363 86.2668 577.209 86.1134 576.902 86.1134H575.119C574.812 86.1134 574.659 86.2668 574.659 86.5737V89.7957ZM581.243 89.2203V81.338H583.228V89.4217C583.228 90.0162 583.535 90.3422 584.149 90.3998V92.1258C582.212 92.1258 581.243 91.1573 581.243 89.2203ZM585.696 89.2203V81.338H587.681V89.4217C587.681 90.0162 587.988 90.3422 588.602 90.3998V92.1258C586.665 92.1258 585.696 91.1573 585.696 89.2203ZM590.091 89.6518V86.7175C590.091 85.1641 590.868 84.3873 592.422 84.3873H594.292C595.845 84.3873 596.622 85.1641 596.622 86.7175V88.9326H592.076V89.7957C592.076 90.1025 592.23 90.2559 592.537 90.2559H596.334V91.3347L595.471 91.982H592.422C590.868 91.982 590.091 91.2053 590.091 89.6518ZM592.076 87.3792H594.637V86.5737C594.637 86.2668 594.483 86.1134 594.176 86.1134H592.537C592.23 86.1134 592.076 86.2668 592.076 86.5737V87.3792ZM598.463 89.6518V86.7175C598.463 85.1641 599.24 84.3873 600.793 84.3873H603.469L604.332 85.0346V86.1134H600.909C600.602 86.1134 600.448 86.2668 600.448 86.5737V89.7957C600.448 90.1025 600.602 90.2559 600.909 90.2559H604.332V91.3347L603.469 91.982H600.793C599.24 91.982 598.463 91.2053 598.463 89.6518ZM605.966 89.6518V82.0572H607.951V84.3873H610.425V86.1134H607.951V89.7957C607.951 90.1025 608.104 90.2559 608.411 90.2559H610.568V91.3347L609.705 91.982H608.296C606.742 91.982 605.966 91.2053 605.966 89.6518ZM612.091 83.1503V81.2229H614.133V83.1503H612.091ZM612.119 91.982V84.3873H614.104V91.982H612.119ZM616.064 89.6518V86.7175C616.064 85.1641 616.841 84.3873 618.394 84.3873H620.408C621.961 84.3873 622.738 85.1641 622.738 86.7175V89.6518C622.738 91.2053 621.961 91.982 620.408 91.982H618.394C616.841 91.982 616.064 91.2053 616.064 89.6518ZM618.049 89.7957C618.049 90.1025 618.202 90.2559 618.509 90.2559H620.293C620.599 90.2559 620.753 90.1025 620.753 89.7957V86.5737C620.753 86.2668 620.599 86.1134 620.293 86.1134H618.509C618.202 86.1134 618.049 86.2668 618.049 86.5737V89.7957ZM624.691 91.982V84.3873H628.891C630.445 84.3873 631.221 85.1641 631.221 86.7175V91.982H629.236V86.5737C629.236 86.2668 629.083 86.1134 628.776 86.1134H626.676V91.982H624.691ZM632.973 91.3347V90.2559H636.281C636.607 90.2559 636.77 90.0737 636.77 89.7094C636.77 89.3354 636.626 89.1244 636.338 89.0765L634.785 88.8176C633.577 88.6162 632.973 87.9162 632.973 86.7175C632.973 85.1641 633.749 84.3873 635.303 84.3873H637.532L638.395 85.0346V86.1134H635.432C635.106 86.1134 634.943 86.2956 634.943 86.66C634.943 87.034 635.087 87.2449 635.375 87.2929L636.928 87.5518C638.136 87.7532 638.741 88.4532 638.741 89.6518C638.741 91.2053 637.964 91.982 636.41 91.982H633.836L632.973 91.3347ZM493.825 107.824V104.66C493.825 103.222 494.544 102.502 495.983 102.502H497.996C499.435 102.502 500.154 103.222 500.154 104.66V107.824C500.154 109.263 499.435 109.982 497.996 109.982H495.983C494.544 109.982 493.825 109.263 493.825 107.824ZM494.976 107.968C494.976 108.64 495.312 108.975 495.983 108.975H497.996C498.668 108.975 499.003 108.64 499.003 107.968V104.516C499.003 103.845 498.668 103.509 497.996 103.509H495.983C495.312 103.509 494.976 103.845 494.976 104.516V107.968ZM502.34 109.982V102.502H506.368C507.806 102.502 508.525 103.222 508.525 104.66V109.982H507.375V104.516C507.375 103.845 507.039 103.509 506.368 103.509H503.491V109.982H502.34ZM514.368 109.982V100.057H520.84V101.15H515.576V104.66H520.409V105.753H515.576V109.982H514.368ZM522.571 109.982V100.057H527.274C528.741 100.057 529.475 100.791 529.475 102.258V103.84C529.475 105.087 528.943 105.806 527.878 105.998L529.763 109.694L529.604 109.982H528.583L526.584 106.041H523.779V109.982H522.571ZM523.779 104.948H527.289C527.941 104.948 528.267 104.622 528.267 103.97V102.128C528.267 101.476 527.941 101.15 527.289 101.15H523.779V104.948ZM530.764 109.723L534.015 100.057H536L539.251 109.723L539.078 109.982H538.086L537.266 107.479H532.749L531.93 109.982H530.937L530.764 109.723ZM533.109 106.386H536.906L535.18 101.15H534.835L533.109 106.386ZM540.831 109.982V100.057H542.04V105.149L546.599 100.057H547.707L547.836 100.33L544.413 104.142L548.167 109.709L548.038 109.982H546.93L543.622 105.02L542.04 106.76V109.982H540.831ZM548.942 101.15V100.057H556.767V101.15H553.459V109.982H552.251V101.15H548.942ZM561.428 109.479V108.889H565.858C566.51 108.889 566.836 108.563 566.836 107.911V106.731C566.836 106.185 566.592 105.863 566.103 105.768L563.01 105.149C561.955 104.938 561.428 104.228 561.428 103.02V102.258C561.428 100.791 562.161 100.057 563.629 100.057H567.109L567.757 100.561V101.15H563.614C562.962 101.15 562.636 101.476 562.636 102.128V103.107C562.636 103.653 562.881 103.974 563.37 104.07L566.462 104.689C567.517 104.9 568.044 105.609 568.044 106.818V107.781C568.044 109.248 567.311 109.982 565.844 109.982H562.075L561.428 109.479ZM571.828 109.982C570.38 109.982 569.657 109.258 569.657 107.81C569.657 106.362 570.38 105.638 571.828 105.638H574.461V104.516C574.461 103.845 574.125 103.509 573.454 103.509H570.376V102.934L570.951 102.502H573.454C574.892 102.502 575.611 103.222 575.611 104.66V109.982H571.828ZM570.807 107.968C570.807 108.64 571.143 108.975 571.814 108.975H574.461V106.645H571.814C571.143 106.645 570.807 106.981 570.807 107.652V107.968ZM577.855 109.982V102.502H581.883C583.321 102.502 584.04 103.222 584.04 104.66V109.982H582.889V104.516C582.889 103.845 582.554 103.509 581.883 103.509H579.006V109.982H577.855ZM586.168 107.824V104.66C586.168 103.222 586.887 102.502 588.326 102.502H591.202V99.338H592.353V109.982H588.326C586.887 109.982 586.168 109.263 586.168 107.824ZM587.319 107.968C587.319 108.64 587.654 108.975 588.326 108.975H591.202V103.509H588.326C587.654 103.509 587.319 103.845 587.319 104.516V107.968ZM594.655 109.982V99.338H595.806V102.502H598.682C600.121 102.502 600.84 103.222 600.84 104.66V107.824C600.84 109.263 600.121 109.982 598.682 109.982H594.655ZM595.806 108.975H598.682C599.354 108.975 599.689 108.64 599.689 107.968V104.516C599.689 103.845 599.354 103.509 598.682 103.509H595.806V108.975ZM602.912 107.824V104.66C602.912 103.222 603.631 102.502 605.069 102.502H607.083C608.521 102.502 609.241 103.222 609.241 104.66V107.824C609.241 109.263 608.521 109.982 607.083 109.982H605.069C603.631 109.982 602.912 109.263 602.912 107.824ZM604.062 107.968C604.062 108.64 604.398 108.975 605.069 108.975H607.083C607.754 108.975 608.09 108.64 608.09 107.968V104.516C608.09 103.845 607.754 103.509 607.083 103.509H605.069C604.398 103.509 604.062 103.845 604.062 104.516V107.968ZM610.708 109.766L613.354 106.17L610.808 102.718L610.909 102.502H611.973L614.016 105.336L616.058 102.502H617.123L617.223 102.718L614.677 106.17L617.324 109.766L617.223 109.982H616.159L614.016 107.005L611.873 109.982H610.808L610.708 109.766Z" fill="white"/>
    <rect x="439.4" y="62.3996" width="231.739" height="67.9235" stroke="white" stroke-width="0.7991"/>
    <path d="M475.926 243.412V233.487H482.715V235.357H477.997V237.802H482.284V239.672H477.997V243.412H475.926ZM484.125 241.081V235.817H486.11V241.225C486.11 241.532 486.263 241.686 486.57 241.686H488.67V235.817H490.655V243.412H486.455C484.901 243.412 484.125 242.635 484.125 241.081ZM492.464 242.764V241.686H495.772C496.098 241.686 496.261 241.503 496.261 241.139C496.261 240.765 496.117 240.554 495.829 240.506L494.276 240.247C493.068 240.046 492.464 239.346 492.464 238.147C492.464 236.594 493.24 235.817 494.794 235.817H497.023L497.886 236.464V237.543H494.923C494.597 237.543 494.434 237.725 494.434 238.09C494.434 238.464 494.578 238.675 494.866 238.722L496.419 238.981C497.627 239.183 498.232 239.883 498.232 241.081C498.232 242.635 497.455 243.412 495.901 243.412H493.327L492.464 242.764ZM499.998 234.58V232.652H502.041V234.58H499.998ZM500.027 243.412V235.817H502.012V243.412H500.027ZM503.971 241.081V238.147C503.971 236.594 504.748 235.817 506.301 235.817H508.315C509.869 235.817 510.645 236.594 510.645 238.147V241.081C510.645 242.635 509.869 243.412 508.315 243.412H506.301C504.748 243.412 503.971 242.635 503.971 241.081ZM505.956 241.225C505.956 241.532 506.11 241.686 506.416 241.686H508.2C508.507 241.686 508.66 241.532 508.66 241.225V238.003C508.66 237.696 508.507 237.543 508.2 237.543H506.416C506.11 237.543 505.956 237.696 505.956 238.003V241.225ZM512.599 243.412V235.817H516.799C518.352 235.817 519.129 236.594 519.129 238.147V243.412H517.144V238.003C517.144 237.696 516.99 237.543 516.684 237.543H514.584V243.412H512.599ZM524.738 243.412V233.487H526.81V241.542H531.096V243.412H524.738ZM532.618 243.412V233.487H537.451C539.062 233.487 539.868 234.292 539.868 235.903V237.831C539.868 239.442 539.062 240.247 537.451 240.247H534.69V243.412H532.618ZM534.69 238.377H537.365C537.653 238.377 537.797 238.233 537.797 237.946V235.788C537.797 235.5 537.653 235.357 537.365 235.357H534.69V238.377ZM544.887 242.664V241.542H549.058C549.346 241.542 549.49 241.398 549.49 241.11V240.276C549.49 240.007 549.37 239.849 549.13 239.801L546.613 239.298C545.462 239.068 544.887 238.296 544.887 236.982V236.335C544.887 234.724 545.692 233.918 547.303 233.918H547.361V232.192H549.087V233.918H550.31L551.273 234.666V235.788H547.39C547.102 235.788 546.958 235.932 546.958 236.22V236.996C546.958 237.265 547.078 237.423 547.318 237.471L549.835 237.974C550.986 238.205 551.561 238.977 551.561 240.29V240.995C551.561 242.606 550.755 243.412 549.144 243.412H549.087V245.138H547.361V243.412H545.851L544.887 242.664ZM553.562 243.412V233.487H560.351V235.357H555.633V237.802H559.92V239.672H555.633V243.412H553.562ZM561.962 243.412V233.487H566.795C568.406 233.487 569.211 234.292 569.211 235.903V237.543C569.211 238.742 568.766 239.494 567.874 239.801L569.499 242.98L569.255 243.412H567.471L565.716 239.959H564.033V243.412H561.962ZM564.033 238.09H566.709C566.996 238.09 567.14 237.946 567.14 237.658V235.788C567.14 235.5 566.996 235.357 566.709 235.357H564.033V238.09ZM571.289 243.412V233.487H573.36V237.414L576.87 233.487H578.812L579.013 233.904L575.719 237.572L579.373 242.994L579.171 243.412H577.273L574.382 239.068L573.36 240.175V243.412H571.289ZM580.119 235.357V233.487H588.231V235.357H585.211V243.412H583.139V235.357H580.119ZM592.612 239.873V238.176H596.927V239.873H592.612ZM601.776 242.664V241.542H605.947C606.235 241.542 606.379 241.398 606.379 241.11V240.276C606.379 240.007 606.259 239.849 606.019 239.801L603.502 239.298C602.351 239.068 601.776 238.296 601.776 236.982V236.335C601.776 234.724 602.581 233.918 604.192 233.918H604.25V232.192H605.976V233.918H607.199L608.162 234.666V235.788H604.279C603.991 235.788 603.847 235.932 603.847 236.22V236.996C603.847 237.265 603.967 237.423 604.207 237.471L606.724 237.974C607.875 238.205 608.45 238.977 608.45 240.29V240.995C608.45 242.606 607.645 243.412 606.034 243.412H605.976V245.138H604.25V243.412H602.74L601.776 242.664ZM610.02 242.664V241.542H614.479C614.766 241.542 614.91 241.398 614.91 241.11V240.06C614.91 239.792 614.79 239.633 614.551 239.585L611.746 239.025C610.595 238.794 610.02 238.022 610.02 236.709V235.903C610.02 234.292 610.825 233.487 612.436 233.487H615.73L616.694 234.235V235.357H612.522C612.235 235.357 612.091 235.5 612.091 235.788V236.723C612.091 236.992 612.211 237.15 612.451 237.198L615.255 237.759C616.406 237.989 616.981 238.761 616.981 240.075V240.995C616.981 242.606 616.176 243.412 614.565 243.412H610.983L610.02 242.664ZM618.763 240.995V235.903C618.763 234.292 619.569 233.487 621.18 233.487H624.459C626.07 233.487 626.876 234.292 626.876 235.903V240.995C626.876 242.606 626.07 243.412 624.459 243.412H621.18C619.569 243.412 618.763 242.606 618.763 240.995ZM620.835 241.11C620.835 241.398 620.979 241.542 621.266 241.542H624.373C624.661 241.542 624.805 241.398 624.805 241.11V235.788C624.805 235.5 624.661 235.357 624.373 235.357H621.266C620.979 235.357 620.835 235.5 620.835 235.788V241.11ZM629.091 243.412V233.487H631.162V241.542H635.449V243.412H629.091ZM517.353 259.254V256.09C517.353 254.651 518.073 253.932 519.511 253.932H521.525C522.963 253.932 523.682 254.651 523.682 256.09V259.254C523.682 260.692 522.963 261.412 521.525 261.412H519.511C518.073 261.412 517.353 260.692 517.353 259.254ZM518.504 259.398C518.504 260.069 518.84 260.405 519.511 260.405H521.525C522.196 260.405 522.532 260.069 522.532 259.398V255.946C522.532 255.274 522.196 254.939 521.525 254.939H519.511C518.84 254.939 518.504 255.274 518.504 255.946V259.398ZM525.868 261.412V253.932H529.896C531.334 253.932 532.053 254.651 532.053 256.09V261.412H530.903V255.946C530.903 255.274 530.567 254.939 529.896 254.939H527.019V261.412H525.868ZM537.896 261.412V251.487H542.599C544.066 251.487 544.8 252.22 544.8 253.687V255.27C544.8 256.516 544.268 257.235 543.203 257.427L545.088 261.124L544.929 261.412H543.908L541.909 257.47H539.104V261.412H537.896ZM539.104 256.377H542.614C543.266 256.377 543.592 256.051 543.592 255.399V253.558C543.592 252.906 543.266 252.58 542.614 252.58H539.104V256.377ZM548.722 261.412C547.274 261.412 546.55 260.688 546.55 259.24C546.55 257.792 547.274 257.068 548.722 257.068H551.354V255.946C551.354 255.274 551.018 254.939 550.347 254.939H547.269V254.364L547.844 253.932H550.347C551.785 253.932 552.505 254.651 552.505 256.09V261.412H548.722ZM547.7 259.398C547.7 260.069 548.036 260.405 548.707 260.405H551.354V258.075H548.707C548.036 258.075 547.7 258.41 547.7 259.081V259.398ZM553.885 254.133L554.015 253.932H555.007L557.194 260.405H557.481L559.668 253.932H560.66L560.79 254.133L557.28 264.288H556.287L556.158 264.087L557.122 261.412H556.402L553.885 254.133ZM562.106 259.254V256.09C562.106 254.651 562.825 253.932 564.264 253.932H567.14V250.768H568.291V261.412H564.264C562.825 261.412 562.106 260.692 562.106 259.254ZM563.257 259.398C563.257 260.069 563.592 260.405 564.264 260.405H567.14V254.939H564.264C563.592 254.939 563.257 255.274 563.257 255.946V259.398ZM570.564 252.58V251.257H571.772V252.58H570.564ZM570.593 261.412V253.932H571.744V261.412H570.593ZM573.991 259.254V253.932H575.142V259.398C575.142 260.069 575.477 260.405 576.149 260.405H579.025V253.932H580.176V261.412H576.149C574.71 261.412 573.991 260.692 573.991 259.254ZM582.477 261.412V253.932H590.963C592.401 253.932 593.121 254.651 593.121 256.09V261.412H591.97V255.946C591.97 255.274 591.634 254.939 590.963 254.939H588.374V261.412H587.223V254.939H583.627V261.412H582.477Z" fill="white"/>
    <rect x="439.4" y="213.829" width="231.739" height="67.9235" stroke="white" stroke-width="0.7991"/>
    <path d="M254.218 317.982V308.057H261.007V309.927H256.289V311.941H260.576V313.811H256.289V316.112H261.007V317.982H254.218ZM264.682 317.982C263.129 317.982 262.352 317.22 262.352 315.695C262.352 314.17 263.129 313.408 264.682 313.408H266.667V312.574C266.667 312.267 266.514 312.113 266.207 312.113H263.158V311.035L264.021 310.387H266.322C267.876 310.387 268.652 311.164 268.652 312.718V317.982H264.682ZM264.337 315.796C264.337 316.103 264.491 316.256 264.798 316.256H266.667V314.961H264.798C264.491 314.961 264.337 315.115 264.337 315.422V315.796ZM270.606 317.982V311.365C270.961 310.713 271.641 310.387 272.648 310.387H274.202L275.065 311.035V312.113H273.123C272.864 312.113 272.687 312.176 272.591 312.3V317.982H270.606ZM276.479 317.982V310.387H280.679C282.232 310.387 283.009 311.164 283.009 312.718V317.982H281.024V312.574C281.024 312.267 280.87 312.113 280.564 312.113H278.464V317.982H276.479ZM288.259 317.234V316.112H292.43C292.718 316.112 292.862 315.968 292.862 315.681V314.846C292.862 314.578 292.742 314.42 292.502 314.372L289.985 313.868C288.834 313.638 288.259 312.866 288.259 311.552V310.905C288.259 309.294 289.064 308.489 290.675 308.489H290.733V306.763H292.459V308.489H293.681L294.645 309.237V310.359H290.762C290.474 310.359 290.33 310.502 290.33 310.79V311.567C290.33 311.835 290.45 311.994 290.69 312.041L293.207 312.545C294.357 312.775 294.933 313.547 294.933 314.861V315.566C294.933 317.177 294.127 317.982 292.516 317.982H292.459V319.708H290.733V317.982H289.222L288.259 317.234ZM296.934 317.982V308.057H303.723V309.927H299.005V312.372H303.292V314.242H299.005V317.982H296.934ZM305.334 317.982V308.057H310.167C311.778 308.057 312.583 308.863 312.583 310.474V312.113C312.583 313.312 312.137 314.065 311.246 314.372L312.871 317.55L312.626 317.982H310.843L309.088 314.53H307.405V317.982H305.334ZM307.405 312.66H310.081C310.368 312.66 310.512 312.516 310.512 312.228V310.359C310.512 310.071 310.368 309.927 310.081 309.927H307.405V312.66ZM314.661 317.982V308.057H316.732V311.984L320.242 308.057H322.184L322.385 308.474L319.091 312.142L322.745 317.565L322.543 317.982H320.645L317.753 313.638L316.732 314.746V317.982H314.661ZM323.491 309.927V308.057H331.603V309.927H328.583V317.982H326.511V309.927H323.491Z" fill="white"/>
    <rect x="221.376" y="289.4" width="142.24" height="49.5442" stroke="white" stroke-width="0.7991"/>
    <path d="M211.446 519.101V509.176H215.215C217.919 509.176 219.271 510.528 219.271 513.233V515.045C219.271 517.749 217.919 519.101 215.215 519.101H211.446ZM213.518 517.231H215.33C216.577 517.231 217.2 516.608 217.2 515.361V512.916C217.2 511.67 216.577 511.046 215.33 511.046H213.518V517.231ZM220.429 518.713L223.377 509.176H226.542L229.491 518.713L229.232 519.101H227.506L226.901 517.087H223.018L222.414 519.101H220.688L220.429 518.713ZM223.579 515.218H226.34L225.075 511.046H224.845L223.579 515.218ZM230.785 516.685V511.593C230.785 509.982 231.591 509.176 233.202 509.176H236.481C238.092 509.176 238.898 509.982 238.898 511.593V516.685C238.898 518.296 238.092 519.101 236.481 519.101H233.202C231.591 519.101 230.785 518.296 230.785 516.685ZM232.857 516.8C232.857 517.087 233 517.231 233.288 517.231H236.395C236.683 517.231 236.826 517.087 236.826 516.8V511.478C236.826 511.19 236.683 511.046 236.395 511.046H233.288C233 511.046 232.857 511.19 232.857 511.478V516.8ZM243.648 509.565L243.907 509.176H245.719L247.992 517.231H248.222L250.495 509.176H252.307L252.566 509.565L249.747 519.101H246.467L243.648 509.565ZM253.313 516.771V513.837C253.313 512.283 254.09 511.506 255.644 511.506H257.657C259.211 511.506 259.988 512.283 259.988 513.837V516.771C259.988 518.324 259.211 519.101 257.657 519.101H255.644C254.09 519.101 253.313 518.324 253.313 516.771ZM255.298 516.915C255.298 517.222 255.452 517.375 255.759 517.375H257.542C257.849 517.375 258.003 517.222 258.003 516.915V513.693C258.003 513.386 257.849 513.233 257.542 513.233H255.759C255.452 513.233 255.298 513.386 255.298 513.693V516.915ZM261.883 516.771V509.176H263.868V511.506H266.342V513.233H263.868V516.915C263.868 517.222 264.022 517.375 264.329 517.375H266.486V518.454L265.623 519.101H264.213C262.66 519.101 261.883 518.324 261.883 516.771ZM268.008 510.269V508.342H270.051V510.269H268.008ZM268.037 519.101V511.506H270.022V519.101H268.037ZM272.097 519.101V511.506H276.297C277.85 511.506 278.627 512.283 278.627 513.837V519.101H276.642V513.693C276.642 513.386 276.488 513.233 276.182 513.233H274.082V519.101H272.097ZM280.464 516.771V513.837C280.464 512.283 281.241 511.506 282.795 511.506H286.995V519.648C286.995 521.201 286.218 521.978 284.664 521.978H281.975L281.112 521.331V520.252H284.549C284.856 520.252 285.01 520.098 285.01 519.792V519.101H282.795C281.241 519.101 280.464 518.324 280.464 516.771ZM282.449 516.915C282.449 517.222 282.603 517.375 282.91 517.375H285.01V513.233H282.91C282.603 513.233 282.449 513.386 282.449 513.693V516.915ZM228.408 537.101V527.176H233.241C234.852 527.176 235.657 527.982 235.657 529.593V531.52C235.657 533.131 234.852 533.937 233.241 533.937H230.479V537.101H228.408ZM230.479 532.067H233.154C233.442 532.067 233.586 531.923 233.586 531.635V529.478C233.586 529.19 233.442 529.046 233.154 529.046H230.479V532.067ZM237.321 534.771V531.837C237.321 530.283 238.098 529.506 239.651 529.506H241.665C243.219 529.506 243.995 530.283 243.995 531.837V534.771C243.995 536.324 243.219 537.101 241.665 537.101H239.651C238.098 537.101 237.321 536.324 237.321 534.771ZM239.306 534.915C239.306 535.222 239.46 535.375 239.767 535.375H241.55C241.857 535.375 242.01 535.222 242.01 534.915V531.693C242.01 531.386 241.857 531.233 241.55 531.233H239.767C239.46 531.233 239.306 531.386 239.306 531.693V534.915ZM245.229 529.809L245.445 529.506H247.114L248.264 535.375H248.365L249.746 529.506H251.99L253.371 535.375H253.471L254.622 529.506H256.291L256.506 529.809L254.982 537.101H252.019L250.868 531.822L249.717 537.101H246.754L245.229 529.809ZM257.745 534.771V531.837C257.745 530.283 258.522 529.506 260.075 529.506H261.945C263.499 529.506 264.275 530.283 264.275 531.837V534.052H259.73V534.915C259.73 535.222 259.884 535.375 260.19 535.375H263.988V536.454L263.125 537.101H260.075C258.522 537.101 257.745 536.324 257.745 534.771ZM259.73 532.498H262.29V531.693C262.29 531.386 262.137 531.233 261.83 531.233H260.19C259.884 531.233 259.73 531.386 259.73 531.693V532.498ZM266.175 537.101V530.485C266.529 529.833 267.21 529.506 268.217 529.506H269.771L270.634 530.154V531.233H268.692C268.433 531.233 268.255 531.295 268.16 531.42V537.101H266.175Z" fill="white"/>
    <rect x="178.4" y="489.519" width="141.441" height="67.9235" stroke="white" stroke-width="0.7991"/>
    <path d="M925.063 315.252V314.13H929.234C929.522 314.13 929.666 313.986 929.666 313.699V312.864C929.666 312.596 929.546 312.438 929.306 312.39L926.789 311.886C925.638 311.656 925.063 310.884 925.063 309.57V308.923C925.063 307.312 925.868 306.507 927.479 306.507H927.537V304.781H929.263V306.507H930.486L931.449 307.255V308.377H927.566C927.278 308.377 927.134 308.52 927.134 308.808V309.585C927.134 309.853 927.254 310.012 927.494 310.059L930.011 310.563C931.162 310.793 931.737 311.565 931.737 312.879V313.584C931.737 315.195 930.931 316 929.321 316H929.263V317.726H927.537V316H926.027L925.063 315.252ZM933.738 316V306.075H940.527V307.945H935.809V310.39H940.096V312.26H935.809V316H933.738ZM942.138 316V306.075H946.971C948.582 306.075 949.387 306.881 949.387 308.492V310.131C949.387 311.33 948.942 312.083 948.05 312.39L949.675 315.568L949.431 316H947.647L945.892 312.548H944.209V316H942.138ZM944.209 310.678H946.885C947.172 310.678 947.316 310.534 947.316 310.246V308.377C947.316 308.089 947.172 307.945 946.885 307.945H944.209V310.678ZM951.465 316V306.075H953.536V310.002L957.046 306.075H958.988L959.189 306.492L955.895 310.16L959.549 315.583L959.347 316H957.449L954.558 311.656L953.536 312.764V316H951.465ZM960.295 307.945V306.075H968.407V307.945H965.387V316H963.316V307.945H960.295Z" fill="white"/>
    <path d="M994.549 316V306.075H999.238C1000.85 306.075 1001.65 306.881 1001.65 308.492V309.355C1001.65 309.681 1001.56 309.959 1001.37 310.189L1000.86 310.793L1001.47 311.296C1001.78 311.555 1001.94 311.939 1001.94 312.447V313.584C1001.94 315.195 1001.14 316 999.525 316H994.549ZM996.62 314.13H999.439C999.727 314.13 999.871 313.986 999.871 313.699V312.26C999.871 311.973 999.727 311.829 999.439 311.829H996.62V314.13ZM996.62 309.959H999.151C999.439 309.959 999.583 309.815 999.583 309.527V308.377C999.583 308.089 999.439 307.945 999.151 307.945H996.62V309.959ZM1003.85 313.584V306.075H1005.92V313.699C1005.92 313.986 1006.06 314.13 1006.35 314.13H1009.17C1009.46 314.13 1009.6 313.986 1009.6 313.699V306.075H1011.67V313.584C1011.67 315.195 1010.86 316 1009.25 316H1006.26C1004.65 316 1003.85 315.195 1003.85 313.584ZM1013.03 306.464L1013.27 306.075H1015.04L1017.2 310.29L1019.36 306.075H1021.12L1021.37 306.464L1018.23 312.49V316H1016.16V312.49L1013.03 306.464Z" fill="black"/>
    <path d="M488.839 394.493V393.371H493.298C493.586 393.371 493.729 393.227 493.729 392.939V391.889C493.729 391.621 493.61 391.463 493.37 391.415L490.565 390.854C489.414 390.623 488.839 389.852 488.839 388.538V387.732C488.839 386.121 489.644 385.316 491.255 385.316H494.549L495.513 386.064V387.186H491.342C491.054 387.186 490.91 387.33 490.91 387.617V388.552C490.91 388.821 491.03 388.979 491.27 389.027L494.075 389.588C495.225 389.818 495.801 390.59 495.801 391.904V392.824C495.801 394.435 494.995 395.241 493.384 395.241H489.803L488.839 394.493ZM497.525 392.91V385.316H499.51V387.646H501.984V389.372H499.51V393.054C499.51 393.361 499.664 393.515 499.97 393.515H502.128V394.593L501.265 395.241H499.855C498.302 395.241 497.525 394.464 497.525 392.91ZM505.606 395.241C504.053 395.241 503.276 394.478 503.276 392.954C503.276 391.429 504.053 390.667 505.606 390.667H507.591V389.832C507.591 389.526 507.438 389.372 507.131 389.372H504.082V388.293L504.945 387.646H507.246C508.8 387.646 509.576 388.423 509.576 389.976V395.241H505.606ZM505.261 393.054C505.261 393.361 505.415 393.515 505.721 393.515H507.591V392.22H505.721C505.415 392.22 505.261 392.374 505.261 392.68V393.054ZM511.587 395.241V384.597H513.572V390.508L516.204 387.646H518.161L518.319 387.977L515.687 390.81L518.52 394.91L518.362 395.241H516.42L514.378 392.234L513.572 393.112V395.241H511.587ZM519.816 392.91V389.976C519.816 388.423 520.593 387.646 522.146 387.646H524.016C525.569 387.646 526.346 388.423 526.346 389.976V392.191H521.801V393.054C521.801 393.361 521.954 393.515 522.261 393.515H526.058V394.593L525.195 395.241H522.146C520.593 395.241 519.816 394.464 519.816 392.91ZM521.801 390.638H524.361V389.832C524.361 389.526 524.208 389.372 523.901 389.372H522.261C521.954 389.372 521.801 389.526 521.801 389.832V390.638ZM531.543 394.493V393.371H535.714C536.001 393.371 536.145 393.227 536.145 392.939V392.105C536.145 391.837 536.025 391.678 535.786 391.63L533.269 391.127C532.118 390.897 531.543 390.125 531.543 388.811V388.164C531.543 386.553 532.348 385.747 533.959 385.747H534.017V384.021H535.743V385.747H536.965L537.929 386.495V387.617H534.045C533.758 387.617 533.614 387.761 533.614 388.049V388.825C533.614 389.094 533.734 389.252 533.973 389.3L536.491 389.804C537.641 390.034 538.217 390.806 538.217 392.119V392.824C538.217 394.435 537.411 395.241 535.8 395.241H535.743V396.967H534.017V395.241H532.506L531.543 394.493ZM540.218 395.241V385.316H547.007V387.186H542.289V389.631H546.575V391.501H542.289V395.241H540.218ZM548.618 395.241V385.316H553.451C555.062 385.316 555.867 386.121 555.867 387.732V389.372C555.867 390.571 555.421 391.323 554.529 391.63L556.155 394.809L555.91 395.241H554.127L552.372 391.789H550.689V395.241H548.618ZM550.689 389.919H553.364C553.652 389.919 553.796 389.775 553.796 389.487V387.617C553.796 387.33 553.652 387.186 553.364 387.186H550.689V389.919ZM557.945 395.241V385.316H560.016V389.243L563.526 385.316H565.467L565.669 385.733L562.375 389.401L566.028 394.824L565.827 395.241H563.928L561.037 390.897L560.016 392.004V395.241H557.945ZM566.775 387.186V385.316H574.887V387.186H571.866V395.241H569.795V387.186H566.775ZM579.267 391.702V390.005H583.583V391.702H579.267ZM588.432 394.493V393.371H592.603C592.891 393.371 593.034 393.227 593.034 392.939V392.105C593.034 391.837 592.915 391.678 592.675 391.63L590.158 391.127C589.007 390.897 588.432 390.125 588.432 388.811V388.164C588.432 386.553 589.237 385.747 590.848 385.747H590.906V384.021H592.632V385.747H593.854L594.818 386.495V387.617H590.934C590.647 387.617 590.503 387.761 590.503 388.049V388.825C590.503 389.094 590.623 389.252 590.862 389.3L593.38 389.804C594.53 390.034 595.106 390.806 595.106 392.119V392.824C595.106 394.435 594.3 395.241 592.689 395.241H592.632V396.967H590.906V395.241H589.395L588.432 394.493ZM596.675 394.493V393.371H601.134C601.422 393.371 601.566 393.227 601.566 392.939V391.889C601.566 391.621 601.446 391.463 601.206 391.415L598.401 390.854C597.251 390.623 596.675 389.852 596.675 388.538V387.732C596.675 386.121 597.481 385.316 599.092 385.316H602.386L603.349 386.064V387.186H599.178C598.89 387.186 598.747 387.33 598.747 387.617V388.552C598.747 388.821 598.866 388.979 599.106 389.027L601.911 389.588C603.062 389.818 603.637 390.59 603.637 391.904V392.824C603.637 394.435 602.832 395.241 601.221 395.241H597.639L596.675 394.493ZM605.419 392.824V387.732C605.419 386.121 606.225 385.316 607.836 385.316H611.115C612.726 385.316 613.532 386.121 613.532 387.732V392.824C613.532 394.435 612.726 395.241 611.115 395.241H607.836C606.225 395.241 605.419 394.435 605.419 392.824ZM607.49 392.939C607.49 393.227 607.634 393.371 607.922 393.371H611.029C611.316 393.371 611.46 393.227 611.46 392.939V387.617C611.46 387.33 611.316 387.186 611.029 387.186H607.922C607.634 387.186 607.49 387.33 607.49 387.617V392.939ZM615.747 395.241V385.316H617.818V393.371H622.104V395.241H615.747ZM519.053 411.083V407.919C519.053 406.48 519.772 405.761 521.211 405.761H523.224C524.663 405.761 525.382 406.48 525.382 407.919V411.083C525.382 412.521 524.663 413.241 523.224 413.241H521.211C519.772 413.241 519.053 412.521 519.053 411.083ZM520.204 411.227C520.204 411.898 520.539 412.234 521.211 412.234H523.224C523.896 412.234 524.231 411.898 524.231 411.227V407.775C524.231 407.104 523.896 406.768 523.224 406.768H521.211C520.539 406.768 520.204 407.104 520.204 407.775V411.227ZM527.568 413.241V405.761H531.595C533.034 405.761 533.753 406.48 533.753 407.919V413.241H532.602V407.775C532.602 407.104 532.267 406.768 531.595 406.768H528.719V413.241H527.568ZM539.452 413.241V404.754C539.452 403.316 540.171 402.597 541.609 402.597H542.904L543.479 403.028V403.604H541.609C540.938 403.604 540.602 403.939 540.602 404.61V405.761H543.335V406.768H540.602V413.241H539.452ZM544.858 413.241V406.624C545.194 406.049 545.817 405.761 546.728 405.761H548.166L548.742 406.193V406.768H546.728C546.402 406.768 546.162 406.854 546.009 407.027V413.241H544.858ZM551.896 413.241C550.448 413.241 549.724 412.517 549.724 411.069C549.724 409.621 550.448 408.897 551.896 408.897H554.528V407.775C554.528 407.104 554.193 406.768 553.522 406.768H550.443V406.193L551.019 405.761H553.522C554.96 405.761 555.679 406.48 555.679 407.919V413.241H551.896ZM550.875 411.227C550.875 411.898 551.211 412.234 551.882 412.234H554.528V409.904H551.882C551.211 409.904 550.875 410.239 550.875 410.91V411.227ZM557.923 413.241V402.597H559.074V409.573L562.54 405.761H563.662L563.763 405.977L561.087 408.897L563.964 413.025L563.863 413.241H562.741L560.325 409.731L559.074 411.083V413.241H557.923ZM565.465 411.083V403.316H566.615V405.761H569.348V406.768H566.615V411.227C566.615 411.898 566.951 412.234 567.622 412.234H569.492V412.809L568.917 413.241H567.622C566.184 413.241 565.465 412.521 565.465 411.083ZM571.155 413.241V411.658H572.593V413.241H571.155ZM576.661 413.241C575.213 413.241 574.489 412.517 574.489 411.069C574.489 409.621 575.213 408.897 576.661 408.897H579.293V407.775C579.293 407.104 578.957 406.768 578.286 406.768H575.208V406.193L575.783 405.761H578.286C579.724 405.761 580.443 406.48 580.443 407.919V413.241H576.661ZM575.639 411.227C575.639 411.898 575.975 412.234 576.646 412.234H579.293V409.904H576.646C575.975 409.904 575.639 410.239 575.639 410.91V411.227ZM582.63 413.241V406.624C582.965 406.049 583.589 405.761 584.5 405.761H585.938L586.513 406.193V406.768H584.5C584.174 406.768 583.934 406.854 583.78 407.027V413.241H582.63ZM587.981 411.083V403.316H589.132V405.761H591.865V406.768H589.132V411.227C589.132 411.898 589.468 412.234 590.139 412.234H592.009V412.809L591.434 413.241H590.139C588.701 413.241 587.981 412.521 587.981 411.083Z" fill="white"/>
    <rect x="439.4" y="365.658" width="231.739" height="67.9235" stroke="white" stroke-width="0.7991"/>
    <path d="M507.391 607.982V598.057H514.18V599.927H509.462V601.941H513.748V603.811H509.462V606.112H514.18V607.982H507.391ZM517.855 607.982C516.302 607.982 515.525 607.22 515.525 605.695C515.525 604.17 516.302 603.408 517.855 603.408H519.84V602.574C519.84 602.267 519.687 602.113 519.38 602.113H516.33V601.035L517.193 600.387H519.495C521.048 600.387 521.825 601.164 521.825 602.718V607.982H517.855ZM517.51 605.796C517.51 606.103 517.663 606.256 517.97 606.256H519.84V604.961H517.97C517.663 604.961 517.51 605.115 517.51 605.422V605.796ZM523.778 607.982V601.365C524.133 600.713 524.814 600.387 525.821 600.387H527.374L528.237 601.035V602.113H526.296C526.037 602.113 525.859 602.176 525.763 602.3V607.982H523.778ZM529.651 607.982V600.387H533.851C535.405 600.387 536.182 601.164 536.182 602.718V607.982H534.197V602.574C534.197 602.267 534.043 602.113 533.736 602.113H531.636V607.982H529.651ZM541.359 607.234V606.112H545.818C546.106 606.112 546.25 605.968 546.25 605.681V604.631C546.25 604.362 546.13 604.204 545.89 604.156L543.086 603.595C541.935 603.365 541.359 602.593 541.359 601.279V600.474C541.359 598.863 542.165 598.057 543.776 598.057H547.07L548.034 598.805V599.927H543.862C543.575 599.927 543.431 600.071 543.431 600.359V601.294C543.431 601.562 543.551 601.72 543.79 601.768L546.595 602.329C547.746 602.559 548.321 603.331 548.321 604.645V605.566C548.321 607.177 547.516 607.982 545.905 607.982H542.323L541.359 607.234ZM550.103 607.982V597.338H552.088V600.387H554.303C555.857 600.387 556.633 601.164 556.633 602.718V607.982H554.649V602.574C554.649 602.267 554.495 602.113 554.188 602.113H552.088V607.982H550.103ZM560.571 607.982C559.018 607.982 558.241 607.22 558.241 605.695C558.241 604.17 559.018 603.408 560.571 603.408H562.556V602.574C562.556 602.267 562.403 602.113 562.096 602.113H559.046V601.035L559.909 600.387H562.211C563.764 600.387 564.541 601.164 564.541 602.718V607.982H560.571ZM560.226 605.796C560.226 606.103 560.379 606.256 560.686 606.256H562.556V604.961H560.686C560.379 604.961 560.226 605.115 560.226 605.422V605.796ZM566.494 607.982V601.365C566.849 600.713 567.53 600.387 568.537 600.387H570.09L570.953 601.035V602.113H569.012C568.753 602.113 568.575 602.176 568.479 602.3V607.982H566.494ZM572.252 605.652V602.718C572.252 601.164 573.029 600.387 574.582 600.387H576.452C578.006 600.387 578.782 601.164 578.782 602.718V604.933H574.237V605.796C574.237 606.103 574.391 606.256 574.697 606.256H578.495V607.335L577.632 607.982H574.582C573.029 607.982 572.252 607.205 572.252 605.652ZM574.237 603.379H576.797V602.574C576.797 602.267 576.644 602.113 576.337 602.113H574.697C574.391 602.113 574.237 602.267 574.237 602.574V603.379ZM580.48 607.335V606.256H583.788C584.114 606.256 584.277 606.074 584.277 605.709C584.277 605.335 584.134 605.124 583.846 605.076L582.293 604.818C581.084 604.616 580.48 603.916 580.48 602.718C580.48 601.164 581.257 600.387 582.81 600.387H585.04L585.903 601.035V602.113H582.94C582.614 602.113 582.451 602.296 582.451 602.66C582.451 603.034 582.595 603.245 582.882 603.293L584.436 603.552C585.644 603.753 586.248 604.453 586.248 605.652C586.248 607.205 585.471 607.982 583.918 607.982H581.343L580.48 607.335ZM591.499 605.824V602.66C591.499 601.222 592.218 600.502 593.656 600.502H595.67C597.109 600.502 597.828 601.222 597.828 602.66V605.824C597.828 607.263 597.109 607.982 595.67 607.982H593.656C592.218 607.982 591.499 607.263 591.499 605.824ZM592.65 605.968C592.65 606.64 592.985 606.975 593.656 606.975H595.67C596.341 606.975 596.677 606.64 596.677 605.968V602.516C596.677 601.845 596.341 601.509 595.67 601.509H593.656C592.985 601.509 592.65 601.845 592.65 602.516V605.968ZM600.014 607.982V599.496C600.014 598.057 600.733 597.338 602.171 597.338H603.466L604.041 597.769V598.345H602.171C601.5 598.345 601.165 598.68 601.165 599.352V600.502H603.897V601.509H601.165V607.982H600.014ZM491.072 623.824V620.66C491.072 619.222 491.791 618.502 493.23 618.502H495.099C496.538 618.502 497.257 619.222 497.257 620.66V622.731H492.223V623.968C492.223 624.64 492.558 624.975 493.23 624.975H496.969V625.55L496.394 625.982H493.23C491.791 625.982 491.072 625.263 491.072 623.824ZM492.223 621.724H496.106V620.516C496.106 619.845 495.771 619.509 495.099 619.509H493.23C492.558 619.509 492.223 619.845 492.223 620.516V621.724ZM499.331 623.824V620.66C499.331 619.222 500.051 618.502 501.489 618.502H504.308L504.884 618.934V619.509H501.489C500.818 619.509 500.482 619.845 500.482 620.516V623.968C500.482 624.64 500.818 624.975 501.489 624.975H504.884V625.55L504.308 625.982H501.489C500.051 625.982 499.331 625.263 499.331 623.824ZM506.58 623.824V620.66C506.58 619.222 507.299 618.502 508.737 618.502H510.751C512.189 618.502 512.908 619.222 512.908 620.66V623.824C512.908 625.263 512.189 625.982 510.751 625.982H508.737C507.299 625.982 506.58 625.263 506.58 623.824ZM507.73 623.968C507.73 624.64 508.066 624.975 508.737 624.975H510.751C511.422 624.975 511.758 624.64 511.758 623.968V620.516C511.758 619.845 511.422 619.509 510.751 619.509H508.737C508.066 619.509 507.73 619.845 507.73 620.516V623.968ZM514.807 625.55V624.975H518.115C518.786 624.975 519.122 624.64 519.122 623.968C519.122 623.297 518.834 622.913 518.259 622.818L516.533 622.53C515.382 622.338 514.807 621.705 514.807 620.631C514.807 619.212 515.526 618.502 516.964 618.502H519.352L519.928 618.934V619.509H516.964C516.293 619.509 515.958 619.845 515.958 620.516C515.958 621.091 516.245 621.427 516.821 621.523L518.547 621.811C519.697 622.002 520.273 622.683 520.273 623.853C520.273 625.272 519.554 625.982 518.115 625.982H515.382L514.807 625.55ZM521.423 618.704L521.553 618.502H522.545L524.732 624.975H525.019L527.206 618.502H528.198L528.328 618.704L524.818 628.859H523.826L523.696 628.657L524.66 625.982H523.941L521.423 618.704ZM529.472 625.55V624.975H532.78C533.451 624.975 533.787 624.64 533.787 623.968C533.787 623.297 533.499 622.913 532.924 622.818L531.198 622.53C530.047 622.338 529.472 621.705 529.472 620.631C529.472 619.212 530.191 618.502 531.629 618.502H534.017L534.592 618.934V619.509H531.629C530.958 619.509 530.622 619.845 530.622 620.516C530.622 621.091 530.91 621.427 531.485 621.523L533.211 621.811C534.362 622.002 534.937 622.683 534.937 623.853C534.937 625.272 534.218 625.982 532.78 625.982H530.047L529.472 625.55ZM536.894 623.824V616.057H538.044V618.502H540.777V619.509H538.044V623.968C538.044 624.64 538.38 624.975 539.051 624.975H540.921V625.55L540.346 625.982H539.051C537.613 625.982 536.894 625.263 536.894 623.824ZM542.469 623.824V620.66C542.469 619.222 543.188 618.502 544.626 618.502H546.496C547.935 618.502 548.654 619.222 548.654 620.66V622.731H543.62V623.968C543.62 624.64 543.955 624.975 544.626 624.975H548.366V625.55L547.791 625.982H544.626C543.188 625.982 542.469 625.263 542.469 623.824ZM543.62 621.724H547.503V620.516C547.503 619.845 547.168 619.509 546.496 619.509H544.626C543.955 619.509 543.62 619.845 543.62 620.516V621.724ZM550.843 625.982V618.502H559.33C560.768 618.502 561.487 619.222 561.487 620.66V625.982H560.337V620.516C560.337 619.845 560.001 619.509 559.33 619.509H556.741V625.982H555.59V619.509H551.994V625.982H550.843ZM567.136 625.982V619.365C567.472 618.79 568.095 618.502 569.006 618.502H570.444L571.02 618.934V619.509H569.006C568.68 619.509 568.44 619.596 568.287 619.768V625.982H567.136ZM572.43 623.824V620.66C572.43 619.222 573.15 618.502 574.588 618.502H576.458C577.896 618.502 578.615 619.222 578.615 620.66V622.731H573.581V623.968C573.581 624.64 573.917 624.975 574.588 624.975H578.328V625.55L577.752 625.982H574.588C573.15 625.982 572.43 625.263 572.43 623.824ZM573.581 621.724H577.465V620.516C577.465 619.845 577.129 619.509 576.458 619.509H574.588C573.917 619.509 573.581 619.845 573.581 620.516V621.724ZM579.942 618.704L580.071 618.502H581.064L583.25 624.975H583.538L585.724 618.502H586.717L586.846 618.704L584.329 625.982H582.459L579.942 618.704ZM588.163 623.824V620.66C588.163 619.222 588.882 618.502 590.32 618.502H592.19C593.629 618.502 594.348 619.222 594.348 620.66V622.731H589.313V623.968C589.313 624.64 589.649 624.975 590.32 624.975H594.06V625.55L593.485 625.982H590.32C588.882 625.982 588.163 625.263 588.163 623.824ZM589.313 621.724H593.197V620.516C593.197 619.845 592.861 619.509 592.19 619.509H590.32C589.649 619.509 589.313 619.845 589.313 620.516V621.724ZM596.537 625.982V618.502H600.565C602.003 618.502 602.722 619.222 602.722 620.66V625.982H601.572V620.516C601.572 619.845 601.236 619.509 600.565 619.509H597.688V625.982H596.537ZM604.908 623.824V618.502H606.058V623.968C606.058 624.64 606.394 624.975 607.065 624.975H609.942V618.502H611.093V625.982H607.065C605.627 625.982 604.908 625.263 604.908 623.824ZM613.278 623.824V620.66C613.278 619.222 613.997 618.502 615.436 618.502H617.306C618.744 618.502 619.463 619.222 619.463 620.66V622.731H614.429V623.968C614.429 624.64 614.765 624.975 615.436 624.975H619.176V625.55L618.6 625.982H615.436C613.997 625.982 613.278 625.263 613.278 623.824ZM614.429 621.724H618.313V620.516C618.313 619.845 617.977 619.509 617.306 619.509H615.436C614.765 619.509 614.429 619.845 614.429 620.516V621.724Z" fill="white"/>
    <rect x="439.4" y="582.4" width="231.739" height="61.5307" stroke="white" stroke-width="0.7991"/>
    <path d="M100.5 284L98.1132 289H103.887L101.5 284H100.5ZM101 96.5V96H100.5V96.5H101ZM439 96.5L434 93.6132V99.3868L439 96.5ZM101.5 284.5V96.5H100.5V284.5H101.5ZM101 97H434.5V96H101V97Z" fill="white"/>
    <path d="M394.5 300V300.5H395V300H394.5ZM394.5 110V109.5H394V110H394.5ZM438.5 110L433.5 107.113V112.887L438.5 110ZM369.5 299.5L364.5 297.113V302.887L369.5 300.5V299.5ZM395 300V110H394V300H395ZM394.5 110.5H434V109.5H394.5V110.5ZM394.5 299.5H369V300.5H394.5V299.5Z" fill="white"/>
    <path d="M413 312V312.75H413.75V312H413ZM413 250.5V249.75H412.25V250.5H413ZM438.5 250.5L431 246.17V254.83L438.5 250.5ZM364.5 312L372 316.33V307.67L364.5 312ZM413.75 312V250.5H412.25V312H413.75ZM413 251.25H431.75V249.75H413V251.25ZM413 311.25H371.25V312.75H413V311.25Z" fill="white"/>
    <path d="M394.5 325H395.25V324.25H394.5V325ZM394.5 401H393.75V401.75H394.5V401ZM438.5 401L431 396.67V405.33L438.5 401ZM364.5 325L372 329.33V320.67L364.5 325ZM393.75 325V401H395.25V325H393.75ZM394.5 401.75H431.75V400.25H394.5V401.75ZM394.5 324.25H371.25V325.75H394.5V324.25Z" fill="white"/>
    <path d="M716 300V300.5H715.5V300H716ZM716 110V109.5H716.5V110H716ZM672 110L677 107.113V112.887L672 110ZM909 299.5L914 297.113V302.887L909 300.5V299.5ZM715.5 300V110H716.5V300H715.5ZM716 110.5H676.5V109.5H716V110.5ZM716 299.5H909.5V300.5H716V299.5Z" fill="white"/>
    <path d="M697.5 312V312.5H697V312H697.5ZM697.5 250.5V250H698V250.5H697.5ZM672 250.5L677 247.613V253.387L672 250.5ZM909 311.5L914 309.113V314.887L909 312.5V311.5ZM697 312V250.5H698V312H697ZM697.5 251H676.5V250H697.5V251ZM697.5 311.5H909.5V312.5H697.5V311.5Z" fill="white"/>
    <path d="M716 325H715.5V324.5H716V325ZM716 401H716.5V401.5H716V401ZM672 401L677 398.113V403.887L672 401ZM909 324.5L914 322.113V327.887L909 325.5V324.5ZM716.5 325V401H715.5V325H716.5ZM716 401.5H676.5V400.5H716V401.5ZM716 324.5H909.5V325.5H716V324.5Z" fill="white"/>
    <path d="M101.5 345.5L103.887 340.5H98.1132L100.5 345.5H101.5ZM101 524H100.5V524.5H101V524ZM177.5 524L172.5 521.113V526.887L177.5 524ZM100.5 345V524H101.5V345H100.5ZM101 524.5H173V523.5H101V524.5Z" fill="white"/>
    <path d="M752.221 521.982V512.057H757.054C758.665 512.057 759.47 512.863 759.47 514.474V516.113C759.47 517.312 759.025 518.065 758.133 518.372L759.758 521.55L759.514 521.982H757.73L755.975 518.53H754.292V521.982H752.221ZM754.292 516.66H756.968C757.255 516.66 757.399 516.516 757.399 516.228V514.359C757.399 514.071 757.255 513.927 756.968 513.927H754.292V516.66ZM761.289 519.652V516.718C761.289 515.164 762.066 514.387 763.619 514.387H765.489C767.043 514.387 767.819 515.164 767.819 516.718V518.933H763.274V519.796C763.274 520.103 763.428 520.256 763.734 520.256H767.532V521.335L766.669 521.982H763.619C762.066 521.982 761.289 521.205 761.289 519.652ZM763.274 517.379H765.834V516.574C765.834 516.267 765.681 516.113 765.374 516.113H763.734C763.428 516.113 763.274 516.267 763.274 516.574V517.379ZM769.661 519.652V516.718C769.661 515.164 770.438 514.387 771.991 514.387H774.206V511.338H776.191V521.982H771.991C770.438 521.982 769.661 521.205 769.661 519.652ZM771.646 519.796C771.646 520.103 771.799 520.256 772.106 520.256H774.206V516.113H772.106C771.799 516.113 771.646 516.267 771.646 516.574V519.796ZM778.203 519.652V514.387H780.188V519.796C780.188 520.103 780.341 520.256 780.648 520.256H782.748V514.387H784.733V521.982H780.533C778.979 521.982 778.203 521.205 778.203 519.652ZM786.686 519.652V516.718C786.686 515.164 787.462 514.387 789.016 514.387H791.691L792.554 515.035V516.113H789.131C788.824 516.113 788.67 516.267 788.67 516.574V519.796C788.67 520.103 788.824 520.256 789.131 520.256H792.554V521.335L791.691 521.982H789.016C787.462 521.982 786.686 521.205 786.686 519.652ZM794.13 519.652V516.718C794.13 515.164 794.907 514.387 796.46 514.387H798.33C799.884 514.387 800.661 515.164 800.661 516.718V518.933H796.115V519.796C796.115 520.103 796.269 520.256 796.576 520.256H800.373V521.335L799.51 521.982H796.46C794.907 521.982 794.13 521.205 794.13 519.652ZM796.115 517.379H798.676V516.574C798.676 516.267 798.522 516.113 798.215 516.113H796.576C796.269 516.113 796.115 516.267 796.115 516.574V517.379ZM802.502 519.652V516.718C802.502 515.164 803.279 514.387 804.832 514.387H807.047V511.338H809.032V521.982H804.832C803.279 521.982 802.502 521.205 802.502 519.652ZM804.487 519.796C804.487 520.103 804.64 520.256 804.947 520.256H807.047V516.113H804.947C804.64 516.113 804.487 516.267 804.487 516.574V519.796ZM814.557 521.982V513.668C814.557 512.115 815.334 511.338 816.887 511.338H818.297L819.16 511.985V513.064H817.002C816.695 513.064 816.542 513.217 816.542 513.524V514.387H819.016V516.113H816.542V521.982H814.557ZM820.369 519.652V516.718C820.369 515.164 821.146 514.387 822.7 514.387H824.57C826.123 514.387 826.9 515.164 826.9 516.718V518.933H822.354V519.796C822.354 520.103 822.508 520.256 822.815 520.256H826.612V521.335L825.749 521.982H822.7C821.146 521.982 820.369 521.205 820.369 519.652ZM822.354 517.379H824.915V516.574C824.915 516.267 824.761 516.113 824.454 516.113H822.815C822.508 516.113 822.354 516.267 822.354 516.574V517.379ZM828.741 519.652V516.718C828.741 515.164 829.518 514.387 831.071 514.387H832.941C834.495 514.387 835.272 515.164 835.272 516.718V518.933H830.726V519.796C830.726 520.103 830.88 520.256 831.187 520.256H834.984V521.335L834.121 521.982H831.071C829.518 521.982 828.741 521.205 828.741 519.652ZM830.726 517.379H833.287V516.574C833.287 516.267 833.133 516.113 832.826 516.113H831.187C830.88 516.113 830.726 516.267 830.726 516.574V517.379ZM836.969 521.335V520.256H840.278C840.604 520.256 840.767 520.074 840.767 519.709C840.767 519.335 840.623 519.124 840.335 519.076L838.782 518.818C837.573 518.616 836.969 517.916 836.969 516.718C836.969 515.164 837.746 514.387 839.299 514.387H841.529L842.392 515.035V516.113H839.429C839.103 516.113 838.94 516.296 838.94 516.66C838.94 517.034 839.084 517.245 839.371 517.293L840.925 517.552C842.133 517.753 842.737 518.453 842.737 519.652C842.737 521.205 841.96 521.982 840.407 521.982H837.832L836.969 521.335ZM750.911 537.824V534.66C750.911 533.222 751.631 532.502 753.069 532.502H755.083C756.521 532.502 757.24 533.222 757.24 534.66V537.824C757.24 539.263 756.521 539.982 755.083 539.982H753.069C751.631 539.982 750.911 539.263 750.911 537.824ZM752.062 537.968C752.062 538.64 752.398 538.975 753.069 538.975H755.083C755.754 538.975 756.089 538.64 756.089 537.968V534.516C756.089 533.845 755.754 533.509 755.083 533.509H753.069C752.398 533.509 752.062 533.845 752.062 534.516V537.968ZM759.426 539.982V532.502H763.454C764.892 532.502 765.611 533.222 765.611 534.66V539.982H764.461V534.516C764.461 533.845 764.125 533.509 763.454 533.509H760.577V539.982H759.426ZM771.31 539.982V531.496C771.31 530.057 772.029 529.338 773.467 529.338H774.762L775.337 529.77V530.345H773.467C772.796 530.345 772.461 530.68 772.461 531.352V532.502H775.193V533.509H772.461V539.982H771.31ZM776.716 539.982V533.365C777.052 532.79 777.675 532.502 778.586 532.502H780.025L780.6 532.934V533.509H778.586C778.26 533.509 778.021 533.596 777.867 533.768V539.982H776.716ZM783.755 539.982C782.307 539.982 781.583 539.258 781.583 537.81C781.583 536.362 782.307 535.638 783.755 535.638H786.387V534.516C786.387 533.845 786.051 533.509 785.38 533.509H782.302V532.934L782.877 532.502H785.38C786.818 532.502 787.537 533.222 787.537 534.66V539.982H783.755ZM782.733 537.968C782.733 538.64 783.069 538.975 783.74 538.975H786.387V536.645H783.74C783.069 536.645 782.733 536.981 782.733 537.652V537.968ZM789.781 539.982V529.338H790.932V536.314L794.398 532.502H795.52L795.621 532.718L792.946 535.638L795.822 539.766L795.722 539.982H794.6L792.183 536.472L790.932 537.824V539.982H789.781ZM797.323 537.824V530.057H798.474V532.502H801.207V533.509H798.474V537.968C798.474 538.64 798.809 538.975 799.48 538.975H801.35V539.55L800.775 539.982H799.48C798.042 539.982 797.323 539.263 797.323 537.824ZM802.984 531.15V529.827H804.193V531.15H802.984ZM803.013 539.982V532.502H804.164V539.982H803.013ZM806.354 537.824V534.66C806.354 533.222 807.073 532.502 808.511 532.502H810.525C811.963 532.502 812.682 533.222 812.682 534.66V537.824C812.682 539.263 811.963 539.982 810.525 539.982H808.511C807.073 539.982 806.354 539.263 806.354 537.824ZM807.504 537.968C807.504 538.64 807.84 538.975 808.511 538.975H810.525C811.196 538.975 811.532 538.64 811.532 537.968V534.516C811.532 533.845 811.196 533.509 810.525 533.509H808.511C807.84 533.509 807.504 533.845 807.504 534.516V537.968ZM814.869 539.982V532.502H818.896C820.334 532.502 821.054 533.222 821.054 534.66V539.982H819.903V534.516C819.903 533.845 819.567 533.509 818.896 533.509H816.019V539.982H814.869ZM823.297 539.982V538.4H824.735V539.982H823.297ZM828.802 539.982C827.354 539.982 826.63 539.258 826.63 537.81C826.63 536.362 827.354 535.638 828.802 535.638H831.434V534.516C831.434 533.845 831.099 533.509 830.428 533.509H827.349V532.934L827.925 532.502H830.428C831.866 532.502 832.585 533.222 832.585 534.66V539.982H828.802ZM827.781 537.968C827.781 538.64 828.117 538.975 828.788 538.975H831.434V536.645H828.788C828.117 536.645 827.781 536.981 827.781 537.652V537.968ZM834.771 539.982V533.365C835.107 532.79 835.73 532.502 836.641 532.502H838.08L838.655 532.934V533.509H836.641C836.315 533.509 836.076 533.596 835.922 533.768V539.982H834.771ZM840.123 537.824V530.057H841.274V532.502H844.007V533.509H841.274V537.968C841.274 538.64 841.61 538.975 842.281 538.975H844.151V539.55L843.575 539.982H842.281C840.842 539.982 840.123 539.263 840.123 537.824Z" fill="white"/>
    <rect x="681.4" y="492.4" width="231.739" height="67.9235" stroke="white" stroke-width="0.7991"/>
    <rect x="133.25" y="131.25" width="176.101" height="68.2226" fill="black"/>
    <path d="M165.75 160.234V159.112H170.209C170.496 159.112 170.64 158.968 170.64 158.681V157.631C170.64 157.362 170.52 157.204 170.28 157.156L167.476 156.595C166.325 156.365 165.75 155.593 165.75 154.279V153.474C165.75 151.863 166.555 151.057 168.166 151.057H171.46L172.424 151.805V152.927H168.252C167.965 152.927 167.821 153.071 167.821 153.359V154.294C167.821 154.562 167.941 154.72 168.18 154.768L170.985 155.329C172.136 155.559 172.711 156.331 172.711 157.645V158.566C172.711 160.177 171.906 160.982 170.295 160.982H166.713L165.75 160.234ZM176.421 160.982C174.867 160.982 174.091 160.22 174.091 158.695C174.091 157.17 174.867 156.408 176.421 156.408H178.406V155.574C178.406 155.267 178.252 155.113 177.945 155.113H174.896V154.035L175.759 153.387H178.06C179.614 153.387 180.391 154.164 180.391 155.718V160.982H176.421ZM176.076 158.796C176.076 159.103 176.229 159.256 176.536 159.256H178.406V157.961H176.536C176.229 157.961 176.076 158.115 176.076 158.422V158.796ZM182.402 160.982V153.387H186.602C188.155 153.387 188.932 154.164 188.932 155.718V160.982H186.947V155.574C186.947 155.267 186.793 155.113 186.487 155.113H184.387V160.982H182.402ZM190.827 158.652V155.718C190.827 154.164 191.604 153.387 193.157 153.387H195.372V150.338H197.357V160.982H193.157C191.604 160.982 190.827 160.205 190.827 158.652ZM192.812 158.796C192.812 159.103 192.965 159.256 193.272 159.256H195.372V155.113H193.272C192.965 155.113 192.812 155.267 192.812 155.574V158.796ZM199.426 160.982V150.338H201.411V153.387H203.626C205.18 153.387 205.956 154.164 205.956 155.718V158.652C205.956 160.205 205.18 160.982 203.626 160.982H199.426ZM201.411 159.256H203.511C203.818 159.256 203.971 159.103 203.971 158.796V155.574C203.971 155.267 203.818 155.113 203.511 155.113H201.411V159.256ZM207.795 158.652V155.718C207.795 154.164 208.572 153.387 210.125 153.387H212.139C213.693 153.387 214.469 154.164 214.469 155.718V158.652C214.469 160.205 213.693 160.982 212.139 160.982H210.125C208.572 160.982 207.795 160.205 207.795 158.652ZM209.78 158.796C209.78 159.103 209.934 159.256 210.241 159.256H212.024C212.331 159.256 212.484 159.103 212.484 158.796V155.574C212.484 155.267 212.331 155.113 212.024 155.113H210.241C209.934 155.113 209.78 155.267 209.78 155.574V158.796ZM215.79 160.651L218.278 157.142L215.862 153.718L216.02 153.387H217.847L219.386 155.66L220.925 153.387H222.752L222.91 153.718L220.493 157.142L222.982 160.651L222.823 160.982H220.997L219.386 158.637L217.775 160.982H215.948L215.79 160.651ZM228.015 160.982V151.057H230.086V159.112H234.372V160.982H228.015ZM235.636 158.652V155.718C235.636 154.164 236.413 153.387 237.966 153.387H239.98C241.533 153.387 242.31 154.164 242.31 155.718V158.652C242.31 160.205 241.533 160.982 239.98 160.982H237.966C236.413 160.982 235.636 160.205 235.636 158.652ZM237.621 158.796C237.621 159.103 237.774 159.256 238.081 159.256H239.865C240.172 159.256 240.325 159.103 240.325 158.796V155.574C240.325 155.267 240.172 155.113 239.865 155.113H238.081C237.774 155.113 237.621 155.267 237.621 155.574V158.796ZM244.206 158.652V151.057H246.191V153.387H248.665V155.113H246.191V158.796C246.191 159.103 246.344 159.256 246.651 159.256H248.808V160.335L247.945 160.982H246.536C244.982 160.982 244.206 160.205 244.206 158.652ZM250.302 158.652V151.057H252.287V153.387H254.761V155.113H252.287V158.796C252.287 159.103 252.44 159.256 252.747 159.256H254.905V160.335L254.042 160.982H252.632C251.079 160.982 250.302 160.205 250.302 158.652ZM256.341 158.652V155.718C256.341 154.164 257.117 153.387 258.671 153.387H260.541C262.094 153.387 262.871 154.164 262.871 155.718V157.933H258.326V158.796C258.326 159.103 258.479 159.256 258.786 159.256H262.583V160.335L261.72 160.982H258.671C257.117 160.982 256.341 160.205 256.341 158.652ZM258.326 156.379H260.886V155.574C260.886 155.267 260.733 155.113 260.426 155.113H258.786C258.479 155.113 258.326 155.267 258.326 155.574V156.379ZM264.77 160.982V154.365C265.125 153.713 265.806 153.387 266.813 153.387H268.366L269.229 154.035V155.113H267.287C267.028 155.113 266.851 155.176 266.755 155.3V160.982H264.77ZM269.866 153.689L270.068 153.387H271.779L273.534 159.256H273.678L275.433 153.387H277.144L277.346 153.689L274.167 163.859H272.455L272.254 163.557L273.117 160.982H272.153L269.866 153.689ZM190.096 178.982V169.057H196.885V170.927H192.167V172.941H196.453V174.811H192.167V177.112H196.885V178.982H190.096ZM198.575 176.22V168.338H200.56V176.422C200.56 177.016 200.867 177.342 201.481 177.4V179.126C199.544 179.126 198.575 178.157 198.575 176.22ZM203.057 170.15V168.223H205.099V170.15H203.057ZM203.085 178.982V171.387H205.07V178.982H203.085ZM206.972 176.652V173.718C206.972 172.164 207.749 171.387 209.302 171.387H213.502V179.529C213.502 181.082 212.726 181.859 211.172 181.859H208.483L207.619 181.212V180.133H211.057C211.364 180.133 211.518 179.979 211.518 179.672V178.982H209.302C207.749 178.982 206.972 178.205 206.972 176.652ZM208.957 176.796C208.957 177.103 209.111 177.256 209.417 177.256H211.518V173.113H209.417C209.111 173.113 208.957 173.267 208.957 173.574V176.796ZM215.488 170.15V168.223H217.53V170.15H215.488ZM215.517 178.982V171.387H217.502V178.982H215.517ZM219.576 178.982V168.338H221.561V171.387H223.776C225.33 171.387 226.106 172.164 226.106 173.718V176.652C226.106 178.205 225.33 178.982 223.776 178.982H219.576ZM221.561 177.256H223.661C223.968 177.256 224.121 177.103 224.121 176.796V173.574C224.121 173.267 223.968 173.113 223.661 173.113H221.561V177.256ZM228.032 170.15V168.223H230.074V170.15H228.032ZM228.06 178.982V171.387H230.045V178.982H228.06ZM232.062 176.22V168.338H234.047V176.422C234.047 177.016 234.354 177.342 234.968 177.4V179.126C233.031 179.126 232.062 178.157 232.062 176.22ZM236.544 170.15V168.223H238.586V170.15H236.544ZM236.573 178.982V171.387H238.558V178.982H236.573ZM240.575 176.652V169.057H242.56V171.387H245.034V173.113H242.56V176.796C242.56 177.103 242.713 177.256 243.02 177.256H245.177V178.335L244.314 178.982H242.905C241.351 178.982 240.575 178.205 240.575 176.652ZM245.952 171.689L246.153 171.387H247.865L249.62 177.256H249.763L251.518 171.387H253.23L253.431 171.689L250.252 181.859H248.541L248.339 181.557L249.202 178.982H248.239L245.952 171.689Z" fill="white"/>
    <rect x="133.25" y="131.25" width="176.101" height="68.2226" stroke="white" stroke-width="0.5" stroke-dasharray="1 1"/>
    <path d="M103.5 165.5L101 164.307V167.193L103.5 166V165.5ZM133 165.75L130.5 164.307V167.193L133 165.75ZM102.5 166H103.5V165.5H102.5V166ZM104.5 166H105.5V165.5H104.5V166ZM106.5 166H107.5V165.5H106.5V166ZM108.5 166H109.5V165.5H108.5V166ZM110.5 166H111.5V165.5H110.5V166ZM112.5 166H113.5V165.5H112.5V166ZM114.5 166H115.5V165.5H114.5V166ZM116.5 166H117.5V165.5H116.5V166ZM118.5 166H119.5V165.5H118.5V166ZM120.5 166H121.5V165.5H120.5V166ZM122.5 166H123.5V165.5H122.5V166ZM124.5 166H125.5V165.5H124.5V166ZM126.5 166H127.5V165.5H126.5V166ZM128.5 166H129.5V165.5H128.5V166ZM130.5 166H131.5V165.5H130.5V166Z" fill="white"/>
    <path d="M312.5 164.75L310 163.557V166.443L312.5 165.25V164.75ZM342 165V165.25H342.25V165H342ZM342 97.5L340.557 100H343.443L342 97.5ZM311.5 165.25H312.5V164.75H311.5V165.25ZM313.5 165.25H314.5V164.75H313.5V165.25ZM315.5 165.25H316.5V164.75H315.5V165.25ZM317.5 165.25H318.5V164.75H317.5V165.25ZM319.5 165.25H320.5V164.75H319.5V165.25ZM321.5 165.25H322.5V164.75H321.5V165.25ZM323.5 165.25H324.5V164.75H323.5V165.25ZM325.5 165.25H326.5V164.75H325.5V165.25ZM327.5 165.25H328.5V164.75H327.5V165.25ZM329.5 165.25H330.5V164.75H329.5V165.25ZM331.5 165.25H332.5V164.75H331.5V165.25ZM333.5 165.25H334.5V164.75H333.5V165.25ZM335.5 165.25H336.5V164.75H335.5V165.25ZM337.5 165.25H338.5V164.75H337.5V165.25ZM339.5 165.25H340.5V164.75H339.5V165.25ZM341.5 165.25H342V164.75H341.5V165.25ZM342.25 165V164.504H341.75V165H342.25ZM342.25 163.511V162.518H341.75V163.511H342.25ZM342.25 161.526V160.533H341.75V161.526H342.25ZM342.25 159.54V158.548H341.75V159.54H342.25ZM342.25 157.555V156.562H341.75V157.555H342.25ZM342.25 155.57V154.577H341.75V155.57H342.25ZM342.25 153.585V152.592H341.75V153.585H342.25ZM342.25 151.599V150.607H341.75V151.599H342.25ZM342.25 149.614V148.621H341.75V149.614H342.25ZM342.25 147.629V146.636H341.75V147.629H342.25ZM342.25 145.643V144.651H341.75V145.643H342.25ZM342.25 143.658V142.665H341.75V143.658H342.25ZM342.25 141.673V140.68H341.75V141.673H342.25ZM342.25 139.687V138.695H341.75V139.687H342.25ZM342.25 137.702V136.71H341.75V137.702H342.25ZM342.25 135.717V134.724H341.75V135.717H342.25ZM342.25 133.732V132.739H341.75V133.732H342.25ZM342.25 131.746V130.754H341.75V131.746H342.25ZM342.25 129.761V128.768H341.75V129.761H342.25ZM342.25 127.776V126.783H341.75V127.776H342.25ZM342.25 125.79V124.798H341.75V125.79H342.25ZM342.25 123.805V122.813H341.75V123.805H342.25ZM342.25 121.82V120.827H341.75V121.82H342.25ZM342.25 119.835V118.842H341.75V119.835H342.25ZM342.25 117.849V116.857H341.75V117.849H342.25ZM342.25 115.864V114.871H341.75V115.864H342.25ZM342.25 113.879V112.886H341.75V113.879H342.25ZM342.25 111.893V110.901H341.75V111.893H342.25ZM342.25 109.908V108.915H341.75V109.908H342.25ZM342.25 107.923V106.93H341.75V107.923H342.25ZM342.25 105.938V104.945H341.75V105.938H342.25ZM342.25 103.952V102.96H341.75V103.952H342.25ZM342.25 101.967V100.974H341.75V101.967H342.25ZM342.25 99.9817V98.989H341.75V99.9817H342.25Z" fill="white"/>
    <path d="M322.5 525.5L327.5 528.387V522.613L322.5 525.5ZM521 525.5V526H521.5V525.5H521ZM521.5 442L523.887 437H518.113L520.5 442H521.5ZM327 526H521V525H327V526ZM521.5 525.5V441.5H520.5V525.5H521.5Z" fill="white"/>
    <path d="M677 525.5L672 522.613V528.387L677 525.5ZM589 525.5H588.5V526H589V525.5ZM589.5 442L591.887 437H586.113L588.5 442H589.5ZM672.5 525H589V526H672.5V525ZM589.5 525.5V441.5H588.5V525.5H589.5Z" fill="white"/>
    <path d="M147 313.5L142 311.113V316.887L147 314.5V313.5ZM220.5 314L215.5 311.113V316.887L220.5 314ZM146.5 314.5H216V313.5H146.5V314.5Z" fill="white"/>
    <path d="M555.5 442.5L557.887 437.5L552.113 437.5L554.5 442.5L555.5 442.5ZM554.646 579.854C554.842 580.049 555.158 580.049 555.354 579.854L558.536 576.672C558.731 576.476 558.731 576.16 558.536 575.964C558.34 575.769 558.024 575.769 557.828 575.964L555 578.793L552.172 575.964C551.976 575.769 551.66 575.769 551.464 575.964C551.269 576.16 551.269 576.476 551.464 576.672L554.646 579.854ZM554.5 442L554.5 579.5L555.5 579.5L555.5 442L554.5 442Z" fill="white"/>
    <rect x="0.5" y="289.5" width="64" height="51" fill="white" stroke="white"/>
    <rect x="65.5" y="289.5" width="76" height="51" fill="black" stroke="white"/>
    <path d="M11.1795 310V300.075H15.8686C17.4796 300.075 18.2851 300.881 18.2851 302.492V303.355C18.2851 303.681 18.1892 303.959 17.9974 304.189L17.494 304.793L18.0981 305.296C18.4145 305.555 18.5727 305.939 18.5727 306.447V307.584C18.5727 309.195 17.7673 310 16.1563 310H11.1795ZM13.2507 308.13H16.07C16.3576 308.13 16.5015 307.986 16.5015 307.699V306.26C16.5015 305.973 16.3576 305.829 16.07 305.829H13.2507V308.13ZM13.2507 303.959H15.7823C16.07 303.959 16.2138 303.815 16.2138 303.527V302.377C16.2138 302.089 16.07 301.945 15.7823 301.945H13.2507V303.959ZM20.4764 307.584V300.075H22.5476V307.699C22.5476 307.986 22.6915 308.13 22.9791 308.13H25.7984C26.086 308.13 26.2299 307.986 26.2299 307.699V300.075H28.3011V307.584C28.3011 309.195 27.4957 310 25.8847 310H22.8928C21.2819 310 20.4764 309.195 20.4764 307.584ZM29.6574 300.464L29.9019 300.075H31.6711L33.8287 304.29L35.9863 300.075H37.7555L38 300.464L34.8643 306.49V310H32.7931V306.49L29.6574 300.464ZM42.6092 307.67V306.433C42.6092 305.934 42.7674 305.551 43.0839 305.282L43.688 304.779L43.1846 304.175C42.9928 303.944 42.8969 303.666 42.8969 303.34V302.405C42.8969 300.852 43.6736 300.075 45.2271 300.075H47.8449L48.708 300.722V301.801H45.3421C45.0353 301.801 44.8819 301.955 44.8819 302.262V303.499C44.8819 303.805 45.0353 303.959 45.3421 303.959H50.8655V305.685H49.4271V310H44.9394C43.3859 310 42.6092 309.223 42.6092 307.67ZM44.5942 307.814C44.5942 308.121 44.7476 308.274 45.0545 308.274H47.4422V305.685H45.0545C44.7476 305.685 44.5942 305.838 44.5942 306.145V307.814ZM10.748 327.252V326.13H15.2069C15.4946 326.13 15.6385 325.986 15.6385 325.699V324.649C15.6385 324.38 15.5186 324.222 15.2789 324.174L12.474 323.613C11.3233 323.383 10.748 322.611 10.748 321.297V320.492C10.748 318.881 11.5535 318.075 13.1644 318.075H16.4583L17.422 318.823V319.945H13.2507C12.9631 319.945 12.8192 320.089 12.8192 320.377V321.312C12.8192 321.58 12.9391 321.738 13.1788 321.786L15.9837 322.347C17.1344 322.577 17.7097 323.349 17.7097 324.663V325.584C17.7097 327.195 16.9042 328 15.2932 328H11.7117L10.748 327.252ZM18.8013 319.945V318.075H26.9138V319.945H23.8932V328H21.8219V319.945H18.8013ZM26.8059 327.612L29.7546 318.075H32.919L35.8677 327.612L35.6088 328H33.8827L33.2786 325.986H29.395L28.7909 328H27.0648L26.8059 327.612ZM29.956 324.116H32.7177L31.4519 319.945H31.2217L29.956 324.116ZM37.3063 328V318.075H39.3776V322.002L42.8872 318.075H44.829L45.0304 318.492L41.7365 322.16L45.39 327.583L45.1886 328H43.29L40.3988 323.656L39.3776 324.764V328H37.3063ZM46.9704 328V318.075H53.7596V319.945H49.0417V321.959H53.3281V323.829H49.0417V326.13H53.7596V328H46.9704Z" fill="black"/>
    <path d="M78.1795 310V300.075H84.9686V301.945H80.2507V304.39H84.5371V306.26H80.2507V310H78.1795ZM86.5794 310V300.075H91.4124C93.0233 300.075 93.8288 300.881 93.8288 302.492V304.131C93.8288 305.33 93.3829 306.083 92.4911 306.39L94.1165 309.568L93.872 310H92.0884L90.3336 306.548H88.6507V310H86.5794ZM88.6507 304.678H91.326C91.6137 304.678 91.7576 304.534 91.7576 304.246V302.377C91.7576 302.089 91.6137 301.945 91.326 301.945H88.6507V304.678ZM94.9858 309.612L97.9345 300.075H101.099L104.048 309.612L103.789 310H102.063L101.459 307.986H97.5749L96.9708 310H95.2447L94.9858 309.612ZM98.1359 306.116H100.898L99.6318 301.945H99.4017L98.1359 306.116ZM105.486 310V300.075H107.558V304.002L111.067 300.075H113.009L113.21 300.492L109.916 304.16L113.57 309.583L113.369 310H111.47L108.579 305.656L107.558 306.764V310H105.486ZM114.316 301.945V300.075H122.429V301.945H119.408V310H117.337V301.945H114.316ZM78.1795 328V318.075H80.4233L84.3645 324.591V318.075H86.4358V328H84.1919L80.2507 321.484V328H78.1795ZM88.7988 328V318.075H95.5879V319.945H90.87V322.39H95.1564V324.26H90.87V328H88.7988ZM96.3644 319.945V318.075H104.477V319.945H101.456V328H99.385V319.945H96.3644ZM105.027 327.353V326.274H108.336C108.662 326.274 108.825 326.092 108.825 325.727C108.825 325.353 108.681 325.142 108.393 325.094L106.84 324.836C105.631 324.634 105.027 323.934 105.027 322.736C105.027 321.182 105.804 320.405 107.357 320.405H109.587L110.45 321.053V322.131H107.487C107.161 322.131 106.998 322.314 106.998 322.678C106.998 323.052 107.142 323.263 107.429 323.311L108.983 323.57C110.191 323.771 110.795 324.471 110.795 325.67C110.795 327.223 110.018 328 108.465 328H105.89L105.027 327.353Z" fill="white"/>
</svg>
