<svg width="186" height="32" viewBox="0 0 186 32" fill="none" xmlns="http://www.w3.org/2000/svg">
    <path d="M46.6351 0H16.3882C7.4955 0 0.286865 6.99007 0.286865 15.6121C0.286865 24.2342 7.4955 31.2242 16.3871 31.2242H46.634C55.5267 31.2242 62.7353 24.2342 62.7353 15.6121C62.7353 6.99007 55.5267 0 46.6351 0Z" fill="white"/>
    <path d="M46.0679 28.6711C53.5513 28.6711 59.6171 22.7874 59.6171 15.5299C59.6171 8.27126 53.5513 2.38757 46.0689 2.38757C38.5855 2.38757 32.5197 8.27126 32.5197 15.5299C32.5197 22.7874 38.5855 28.6711 46.0679 28.6711ZM16.9783 28.6711C24.4617 28.6711 30.5275 22.7874 30.5275 15.5299C30.5275 8.27126 24.4607 2.38757 16.9783 2.38757C9.49491 2.38757 3.42908 8.27126 3.42908 15.5299C3.42908 22.7874 9.49491 28.6711 16.9783 28.6711Z" fill="white" stroke="#010101" stroke-width="0.780606" stroke-miterlimit="10"/>
    <path d="M46.0678 25.7652C51.8963 25.7652 56.6216 21.1825 56.6216 15.5299C56.6216 9.87729 51.8963 5.29462 46.0678 5.29462C40.2403 5.29462 35.5161 9.87729 35.5161 15.5299C35.5161 21.1815 40.2414 25.7652 46.0689 25.7652H46.0678ZM16.9783 25.7652C22.8068 25.7652 27.531 21.1825 27.531 15.5299C27.531 9.87729 22.8058 5.29462 16.9772 5.29462C11.1498 5.29462 6.42554 9.87729 6.42554 15.5299C6.42554 21.1815 11.1508 25.7652 16.9783 25.7652Z" fill="white" stroke="#010101" stroke-width="1.56121" stroke-miterlimit="10"/>
    <path d="M21.1186 21.0565C22.8755 21.0565 24.3014 18.9645 24.3014 16.3833C24.3014 13.8021 22.8755 11.709 21.1186 11.709C19.3597 11.709 17.9348 13.8011 17.9348 16.3823C17.9348 18.9635 19.3607 21.0565 21.1186 21.0565Z" fill="#010101"/>
    <path d="M21.9283 17.1763C22.6163 17.1763 23.1752 16.3572 23.1752 15.3455C23.1752 14.336 22.6163 13.5158 21.9283 13.5158C21.2393 13.5158 20.6804 14.3349 20.6804 15.3455C20.6804 16.3572 21.2393 17.1763 21.9273 17.1763H21.9283Z" fill="white"/>
    <path d="M50.2082 21.0565C51.9661 21.0565 53.391 18.9645 53.391 16.3833C53.391 13.8021 51.9651 11.709 50.2082 11.709C48.4503 11.709 47.0254 13.8011 47.0254 16.3823C47.0254 18.9635 48.4513 21.0565 50.2082 21.0565Z" fill="#010101"/>
    <path d="M51.0179 17.1763C51.7069 17.1763 52.2648 16.3572 52.2648 15.3455C52.2648 14.336 51.7069 13.5158 51.0179 13.5158C50.3289 13.5158 49.771 14.3349 49.771 15.3455C49.771 16.3572 50.3289 17.1763 51.0179 17.1763Z" fill="white"/>
    <path d="M79.0136 7.55355H75.2667V23.0408H79.0136C83.9054 23.0408 87.236 19.9808 87.236 15.2972C87.236 10.6343 84.0095 7.55355 79.0136 7.55355ZM77.2026 9.36456H79.1177C82.6772 9.36456 85.2584 11.4878 85.2584 15.318C85.2584 19.0857 82.6772 21.2298 79.0969 21.2298H77.2026V9.36456ZM91.1374 9.19803C91.8243 9.19803 92.3239 8.69844 92.3239 8.03232C92.3239 7.36621 91.8243 6.86662 91.1374 6.86662C90.4504 6.86662 89.9509 7.36621 89.9509 8.03232C89.9509 8.69844 90.4504 9.19803 91.1374 9.19803ZM90.1798 23.0408H92.0949V11.7792H90.1798V23.0408ZM100.019 11.5503C97.3754 11.5503 94.8983 13.8608 94.8983 17.2122C94.8983 20.5845 97.3546 22.8534 100.019 22.8534C101.601 22.8534 103.058 22.0416 103.891 20.7302V22.4371C103.891 24.5187 102.205 25.8718 100.186 25.8718C98.6868 25.8718 97.2297 25.2681 96.064 24.2065V26.2673C97.2297 27.1416 98.7493 27.662 100.269 27.662C103.204 27.662 105.806 25.7677 105.806 22.1249V11.7792H104.245L104.016 13.7359C103.162 12.3205 101.622 11.5503 100.019 11.5503ZM100.394 13.3196C102.392 13.3196 103.953 14.9225 103.953 17.1498C103.953 19.4188 102.392 21.1049 100.394 21.1049C98.3954 21.1049 96.8342 19.4396 96.8342 17.2331C96.8342 14.9849 98.3954 13.3196 100.394 13.3196ZM110.307 9.19803C110.994 9.19803 111.493 8.69844 111.493 8.03232C111.493 7.36621 110.994 6.86662 110.307 6.86662C109.62 6.86662 109.12 7.36621 109.12 8.03232C109.12 8.69844 109.62 9.19803 110.307 9.19803ZM109.349 23.0408H111.264V11.7792H109.349V23.0408ZM117.149 9.13558H115.317V11.7792H113.589V13.4445H115.275V19.1065C115.275 21.7294 116.857 23.1865 119.293 23.1865C119.917 23.1865 120.417 23.1032 120.625 23.0616V21.3963C120.271 21.4587 119.938 21.5004 119.626 21.5004C118.189 21.5004 117.149 20.7718 117.149 19.0233V13.4445H120.375V11.7792H117.149V9.13558ZM127.198 23.2906C128.822 23.2906 130.362 22.4996 131.215 20.98L131.444 23.0408H133.006V11.7792H131.444L131.215 13.8608C130.362 12.3413 128.822 11.5294 127.198 11.5294C124.554 11.5294 122.077 13.8192 122.077 17.4204C122.077 20.98 124.554 23.2906 127.198 23.2906ZM127.593 21.5004C125.574 21.5004 124.013 19.8351 124.013 17.4204C124.013 14.9849 125.574 13.3196 127.593 13.3196C129.571 13.3196 131.153 14.9849 131.153 17.3996C131.153 19.8351 129.571 21.5004 127.593 21.5004ZM136.549 23.0408H138.464V6.38785H136.549V23.0408ZM142.37 23.0408H150.863V21.2506H144.306V16.0049H150.385V14.298H144.306V9.36456H150.863V7.55355H142.37V23.0408ZM162.76 11.7792H160.761L157.66 20.3555H157.618L154.517 11.7792H152.435L156.64 22.6453L154.704 27.4122H156.661L162.76 11.7792ZM174.176 17.1914C174.176 13.4862 171.99 11.5294 169.326 11.5294C166.412 11.5294 163.893 13.8192 163.893 17.462C163.893 20.9383 166.099 23.2906 169.597 23.2906C171.054 23.2906 172.386 22.8742 173.531 22.0416V20.1473C172.365 21.1465 171.033 21.6253 169.742 21.6253C167.619 21.6253 166.037 20.2722 165.766 18.0449H174.114C174.155 17.7951 174.176 17.5245 174.176 17.1914ZM165.766 16.6086C166.058 14.5061 167.577 13.1947 169.305 13.1947C170.846 13.1947 172.282 14.2772 172.323 16.6086H165.766ZM180.458 11.5294C177.96 11.5294 176.399 12.9449 176.399 14.8392C176.399 16.8167 178.044 17.4204 179.896 17.9824C181.52 18.482 182.582 18.8359 182.582 19.9183C182.582 20.9175 181.707 21.5836 180.188 21.5836C178.564 21.5836 177.232 20.8759 176.358 19.9808V22.0416C177.398 22.8742 178.793 23.2906 180.25 23.2906C182.852 23.2906 184.455 21.9583 184.455 19.8975C184.455 17.6286 182.498 17.0665 180.771 16.5669C179.251 16.1298 178.273 15.7551 178.273 14.7559C178.273 13.84 179.064 13.2364 180.479 13.2364C181.811 13.2364 183.04 13.7151 183.851 14.4021V12.5078C183.06 11.9041 181.749 11.5294 180.458 11.5294Z" fill="white"/>
</svg>
