<svg width="187" height="18" viewBox="0 0 187 18" fill="none" xmlns="http://www.w3.org/2000/svg">
    <path fill-rule="evenodd" clip-rule="evenodd" d="M12.7708 12.0287C12.8817 12.2153 12.8734 12.4495 12.7495 12.6278L10.0714 16.4828C9.84056 16.815 9.34299 16.7958 9.13842 16.4467L0.0768437 0.981623C-0.139547 0.612315 0.126781 0.147583 0.554814 0.147583H5.39736C5.59282 0.147583 5.77381 0.250581 5.87363 0.41862L12.7708 12.0287ZM25.7315 16.3613C25.9473 16.7307 25.6809 17.1948 25.2532 17.1948H20.4402C20.2435 17.1948 20.0616 17.0905 19.9622 16.9209L10.6228 0.981623C10.4065 0.612315 10.6727 0.147583 11.1008 0.147583H15.9407C16.1376 0.147583 16.3197 0.252093 16.419 0.422099L25.7315 16.3613ZM3.89757 17.044C4.32694 17.044 4.59309 16.5767 4.37402 16.2074L1.05345 10.6099C0.76605 10.1254 0.023025 10.3292 0.023025 10.8925V16.49C0.023025 16.796 0.271049 17.044 0.577002 17.044H3.89757Z" fill="white"/>
    <path d="M37.6459 17.1947H40.4444V5.91925L46.9499 17.1947H49.3311L55.8366 5.91925V17.1947H58.6351V0.147568H55.8856L48.1528 13.5905L40.3953 0.147568H37.6459V17.1947Z" fill="white"/>
    <path d="M65.1382 17.1947H75.9642V14.4185H67.9367V10.0593H75.9642V7.28301H67.9367V2.92381H75.9642V0.147552H65.1382V17.1947Z" fill="white"/>
    <path d="M86.6761 17.1947H89.4746V2.92381H95.9555V0.147552H80.1707V2.92381H86.6761V17.1947Z" fill="white"/>
    <path d="M112.682 17.1947H115.75L107.772 0.147552H105.047L97.069 17.1947H100.138L101.512 14.2236H111.283L112.682 17.1947ZM102.813 11.4474L106.398 3.77617L109.981 11.4474H102.813Z" fill="white"/>
    <path d="M120.597 17.1947H123.395V11.837H127.004C130.441 11.837 132.92 9.37739 132.92 5.9923C132.92 2.63157 130.441 0.147552 127.004 0.147552H120.597V17.1947ZM123.395 9.06081V2.92381H127.004C128.821 2.92381 130.122 4.21452 130.122 5.9923C130.122 7.77006 128.821 9.06081 127.004 9.06081H123.395Z" fill="white"/>
    <path d="M138.212 17.1947H149.186V14.4185H141.011V0.147552H138.212V17.1947Z" fill="white"/>
    <path d="M154.101 17.1947H164.927V14.4185H156.899V10.0593H164.927V7.28301H156.899V2.92381H164.927V0.147552H154.101V17.1947Z" fill="white"/>
    <path d="M169.306 17.1947H172.914L178.069 10.8873L183.2 17.1947H186.809L179.861 8.67114L186.809 0.147552H183.225L178.069 6.45501L172.914 0.147552H169.306L176.253 8.67114L169.306 17.1947Z" fill="white"/>
</svg>
