<svg width="188" height="58" viewBox="0 0 188 58" fill="none" xmlns="http://www.w3.org/2000/svg">
    <path d="M26.0678 47.6185C17.3919 47.6185 10.3574 40.584 10.3574 31.9081C10.3574 23.4668 24.5436 8.57722 25.1299 7.99101L25.8332 7.17032L26.5367 7.99101C27.123 8.57722 41.6608 23.4668 41.6608 31.9081C41.7781 40.584 34.7436 47.6185 26.0678 47.6185ZM25.9506 10.2186C24.6608 11.6255 22.0816 14.4393 19.5022 17.9565C14.9298 24.0531 12.4678 28.86 12.4678 31.9081C12.4678 39.4116 18.5643 45.5082 26.0678 45.5082C33.5712 45.5082 39.6677 39.4116 39.6677 31.9081C39.6677 28.86 37.2056 24.0531 32.516 17.9565C29.9368 14.5565 27.2402 11.6255 25.9506 10.2186Z" fill="white"/>
    <path d="M26.0676 52.6592C14.578 52.6592 5.31592 43.3972 5.31592 31.9076C5.31592 20.7695 20.909 5.1765 21.6125 4.47305C22.0815 4.12132 22.6676 4.12132 23.1365 4.47305C23.4882 4.94202 23.4882 5.52823 23.1365 5.99719C22.9021 6.11442 7.42625 21.5902 7.42625 31.9076C7.42625 42.2248 15.7504 50.5489 26.0676 50.5489C36.3848 50.5489 44.709 42.2248 44.709 31.9076C44.709 27.6868 42.0124 21.8247 36.8538 15.0248C32.8676 9.74891 28.8814 5.76271 28.8814 5.76271C28.4125 5.41098 28.4125 4.70753 28.8814 4.23857C29.2332 3.7696 29.9366 3.7696 30.4056 4.23857C31.1091 4.94202 46.9366 20.7695 46.9366 31.9076C46.8192 43.3972 37.5573 52.6592 26.0676 52.6592Z" fill="white"/>
    <path d="M26.0676 57.6995C12.2331 57.6995 0.860718 46.3273 0.860718 32.4926C0.860718 26.7479 3.79174 19.7134 9.41933 11.5065C13.64 5.52724 17.7435 1.18931 17.9779 0.954825C18.3297 0.485861 19.0331 0.485861 19.502 0.954825C19.971 1.30655 19.971 2.01 19.502 2.47897C19.502 2.47897 15.2814 6.8169 11.1779 12.7962C5.78485 20.5341 2.97105 27.334 2.97105 32.61C2.97105 45.3892 13.4055 55.7064 26.0676 55.7064C38.7297 55.7064 49.164 45.1548 49.164 32.4926C49.164 27.2168 46.3503 20.4169 40.9573 12.6789C36.8537 6.8169 32.633 2.47897 32.633 2.36173C32.2814 1.89276 32.2814 1.30655 32.633 0.837583C33.1021 0.485861 33.6882 0.485861 34.1572 0.837583C34.7435 1.65828 51.2745 18.7755 51.2745 32.4926C51.2745 46.3273 40.0193 57.6995 26.0676 57.6995Z" fill="white"/>
    <path d="M62.1777 37.5355L67.2192 37.0666C67.5709 38.7079 68.157 39.9975 69.0951 40.8182C70.0329 41.6389 71.3227 41.9906 72.8467 41.9906C74.4882 41.9906 75.7778 41.6389 76.5985 40.9356C77.4192 40.2321 77.8881 39.4114 77.8881 38.4734C77.8881 37.8873 77.6537 37.301 77.302 36.9492C76.9502 36.4803 76.3639 36.1285 75.4261 35.8942C74.8398 35.6596 73.433 35.3079 71.3225 34.7218C68.5088 34.0183 66.633 33.1976 65.4606 32.1424C63.9365 30.7356 63.1158 28.9768 63.1158 26.9838C63.1158 25.6942 63.4675 24.4045 64.1708 23.3493C64.8743 22.2941 65.9295 21.3562 67.3363 20.7701C68.7433 20.1838 70.3847 19.8321 72.3778 19.8321C75.6605 19.8321 78.0053 20.5355 79.6468 21.9423C81.2882 23.3493 82.1088 25.2252 82.226 27.5701L77.0674 27.8044C76.8329 26.5148 76.3639 25.577 75.6605 24.9907C74.9571 24.4045 73.9019 24.0528 72.3778 24.0528C70.8536 24.0528 69.6812 24.4045 68.8605 24.9907C68.2744 25.3424 68.0398 25.9287 68.0398 26.632C68.0398 27.2183 68.2744 27.8044 68.8605 28.1562C69.564 28.7425 71.0881 29.3286 73.6674 29.9149C76.2468 30.501 78.0053 31.0873 79.2951 31.7906C80.4675 32.3769 81.4054 33.3148 82.1088 34.37C82.8123 35.4252 83.1639 36.832 83.1639 38.4734C83.1639 39.9975 82.8123 41.2871 81.9917 42.5769C81.1708 43.8665 79.9984 44.8044 78.4744 45.3907C76.9502 45.9768 75.0743 46.3286 72.8467 46.3286C69.564 46.3286 67.102 45.6251 65.3432 44.1011C63.5847 42.5769 62.5295 40.4665 62.1777 37.5355Z" fill="white"/>
    <path d="M87.3848 45.9761V20.183H106.378V24.521H92.5434V30.2657H105.44V34.6036H92.5434V41.6381H106.847V45.9761H87.3848Z" fill="white"/>
    <path d="M111.419 45.9761V20.183H122.323C125.019 20.183 127.012 20.4174 128.302 20.8865C129.592 21.3555 130.529 22.1761 131.233 23.3486C131.936 24.521 132.405 25.9278 132.405 27.4519C132.405 29.3278 131.819 30.9692 130.647 32.259C129.474 33.5486 127.833 34.2521 125.605 34.6036C126.778 35.3071 127.598 36.0106 128.419 36.7141C129.123 37.5348 130.178 38.9416 131.35 40.9346L134.516 45.9761H128.302L124.55 40.3485C123.261 38.3554 122.323 37.0658 121.854 36.5967C121.385 36.1278 120.799 35.776 120.33 35.5417C119.743 35.3071 118.923 35.3071 117.75 35.3071H116.695V45.9761H111.419ZM116.578 31.0865H120.447C122.909 31.0865 124.433 30.9692 125.136 30.7348C125.723 30.5002 126.192 30.1485 126.543 29.6796C126.895 29.2106 127.012 28.5072 127.012 27.8037C127.012 26.983 126.778 26.2795 126.309 25.6934C125.84 25.1071 125.254 24.8727 124.316 24.6382C123.847 24.6382 122.674 24.521 120.564 24.521H116.461L116.578 31.0865Z" fill="white"/>
    <path d="M137.212 20.183H142.371V34.1347C142.371 36.3623 142.488 37.7691 142.605 38.4726C142.84 39.5278 143.309 40.3485 144.247 41.052C145.067 41.6381 146.24 41.9899 147.647 41.9899C149.171 41.9899 150.226 41.6381 150.929 41.052C151.633 40.4657 152.102 39.7622 152.336 38.8244C152.454 38.0037 152.571 36.4795 152.571 34.4864V20.183H157.729V33.6658C157.729 36.7141 157.612 38.9416 157.26 40.2313C157.026 41.5209 156.44 42.5762 155.736 43.514C155.033 44.3347 153.978 45.0382 152.688 45.6243C151.398 46.2106 149.757 46.445 147.764 46.445C145.302 46.445 143.426 46.2106 142.136 45.6243C140.847 45.0382 139.909 44.3347 139.088 43.3968C138.385 42.4588 137.916 41.5209 137.681 40.5831C137.33 39.0589 137.212 36.9485 137.212 34.0175V20.183Z" fill="white"/>
    <path d="M163.122 45.9761V20.183H170.86L175.55 37.6519L180.123 20.183H187.86V45.8589H183.053V25.6934L178.012 45.9761H172.971L167.929 25.6934V45.9761H163.122Z" fill="white"/>
</svg>
