<svg width="185" height="23" viewBox="0 0 185 23" fill="none" xmlns="http://www.w3.org/2000/svg">
    <g clip-path="url(#clip0_7_86)">
        <path d="M54.8709 9.07559H41.4478V4.61153H58.3462V0.147461H41.4169C40.2411 0.147461 39.1135 0.614514 38.2821 1.44588C37.4509 2.27724 36.9838 3.40481 36.9838 4.58053V9.10658C36.9838 10.2823 37.4509 11.4099 38.2821 12.2412C39.1135 13.0726 40.2411 13.5397 41.4169 13.5397H54.84V18.0037H37.303V22.4678H54.8709C56.0467 22.4678 57.1744 22.0007 58.0056 21.1694C58.837 20.338 59.3041 19.2104 59.3041 18.0347V13.5087C59.3041 12.3329 58.837 11.2054 58.0056 10.374C57.1744 9.54264 56.0467 9.07559 54.8709 9.07559Z" fill="white"/>
        <path d="M80.8648 0.147461H67.3922C66.81 0.147461 66.2338 0.262148 65.696 0.484968C65.1585 0.707789 64.67 1.03438 64.2585 1.44606C63.8472 1.85775 63.521 2.34647 63.2985 2.88431C63.076 3.42213 62.9618 3.99851 62.962 4.58053V18.0347C62.9618 18.6167 63.076 19.1931 63.2985 19.7309C63.521 20.2688 63.8472 20.7575 64.2585 21.1692C64.67 21.5809 65.1585 21.9075 65.696 22.1303C66.2338 22.3531 66.81 22.4678 67.3922 22.4678H80.8648C82.0406 22.4678 83.1682 22.0007 83.9996 21.1694C84.8308 20.338 85.2979 19.2104 85.2979 18.0347V4.58053C85.2979 3.40481 84.8308 2.27724 83.9996 1.44588C83.1682 0.614514 82.0406 0.147461 80.8648 0.147461ZM80.8339 18.0037H67.4417V4.61153H80.8339V18.0037Z" fill="white"/>
        <path d="M128.017 0.147462H114.879C113.703 0.147462 112.575 0.614516 111.744 1.44588C110.913 2.27724 110.446 3.40481 110.446 4.58053V22.4678H114.91V15.1331H127.986V22.4678H132.45V4.58053C132.45 3.99825 132.336 3.42162 132.113 2.88358C131.891 2.34556 131.564 1.8567 131.152 1.44497C130.741 1.03324 130.252 0.706718 129.714 0.484079C129.176 0.261441 128.599 0.147054 128.017 0.147462ZM127.986 10.669H114.91V4.61153H127.986V10.669Z" fill="white"/>
        <path d="M180.283 0.147471H167.148C166.566 0.146248 165.988 0.26001 165.449 0.482245C164.91 0.704479 164.421 1.03082 164.008 1.44259C163.595 1.85436 163.268 2.34347 163.045 2.88193C162.821 3.42036 162.706 3.9976 162.706 4.58053V22.4678H167.17V15.1331H180.252V22.4678H184.716V4.58053C184.716 3.40481 184.249 2.27725 183.418 1.44589C182.587 0.614525 181.459 0.147471 180.283 0.147471ZM180.252 10.669H167.179V4.61153H180.252V10.669Z" fill="white"/>
        <path d="M154.277 18.0037H152.492L146.093 2.00749C145.874 1.45865 145.496 0.988042 145.007 0.656469C144.518 0.324897 143.94 0.147592 143.349 0.147461H139.375C138.592 0.147461 137.84 0.45872 137.286 1.01277C136.732 1.56682 136.421 2.31826 136.421 3.10181V22.4678H140.885V4.61153H142.671L149.066 20.6078C149.284 21.1566 149.662 21.6273 150.15 21.959C150.639 22.2906 151.216 22.4679 151.806 22.4678H155.781C156.564 22.4678 157.316 22.1565 157.87 21.6025C158.424 21.0484 158.735 20.297 158.735 19.5134V0.147461H154.271L154.277 18.0037Z" fill="white"/>
        <path d="M93.7176 0.147461H89.2535V18.0347C89.2535 19.2104 89.7206 20.338 90.5521 21.1694C91.3835 22.0007 92.5109 22.4678 93.6867 22.4678H107.11V18.0037H93.7176V0.147461Z" fill="white"/>
        <path fill-rule="evenodd" clip-rule="evenodd" d="M5.29821 17.1668C5.37747 17.0809 5.47324 17.012 5.57977 16.964C5.6863 16.9161 5.80141 16.8902 5.91822 16.8878H25.3988C25.4814 16.8889 25.5616 16.9139 25.6302 16.9596C25.6988 17.0053 25.7527 17.0699 25.7855 17.1456C25.8183 17.2212 25.8285 17.3047 25.8148 17.386C25.8013 17.4673 25.7646 17.543 25.709 17.6039L21.5797 22.1888C21.5004 22.2747 21.4046 22.3436 21.2981 22.3916C21.1916 22.4395 21.0764 22.4655 20.9596 22.4678H1.46656C1.38413 22.4667 1.3038 22.4417 1.23522 22.396C1.16664 22.3503 1.11273 22.2857 1.07998 22.21C1.04724 22.1344 1.03704 22.0509 1.05062 21.9696C1.06421 21.8883 1.10099 21.8126 1.15655 21.7517L5.29821 17.1668ZM25.7276 13.3661C25.7831 13.427 25.8199 13.5027 25.8334 13.584C25.8471 13.6653 25.8369 13.7488 25.8041 13.8244C25.7713 13.9001 25.7174 13.9646 25.6488 14.0104C25.5802 14.0561 25.5 14.0811 25.4174 14.0822L5.93062 14.0977C5.81383 14.0953 5.69869 14.0694 5.59216 14.0215C5.48563 13.9735 5.38986 13.9046 5.31062 13.8187L1.15035 9.24926C1.09479 9.18837 1.05801 9.11271 1.04442 9.03141C1.03084 8.9501 1.04103 8.86661 1.07378 8.79095C1.10653 8.71529 1.16044 8.65073 1.22902 8.605C1.2976 8.55926 1.37793 8.53432 1.46036 8.53315L20.9472 8.51764C21.0641 8.52004 21.1792 8.54596 21.2857 8.59391C21.3922 8.64185 21.488 8.71081 21.5673 8.79665L25.7276 13.3661ZM5.29821 0.426526C5.37747 0.34069 5.47324 0.271736 5.57977 0.223794C5.6863 0.175852 5.80141 0.14991 5.91822 0.147522L25.4114 0.163022C25.4937 0.164183 25.5741 0.189132 25.6427 0.234869C25.7113 0.280606 25.7652 0.345182 25.7978 0.42083C25.8306 0.496479 25.8408 0.579978 25.8273 0.661282C25.8136 0.742589 25.7769 0.818238 25.7213 0.879133L21.5797 5.4486C21.5004 5.53444 21.4046 5.6034 21.2981 5.65134C21.1916 5.69929 21.0764 5.72521 20.9596 5.7276H1.46656C1.38413 5.72644 1.3038 5.70149 1.23522 5.65576C1.16664 5.61003 1.11273 5.54544 1.07998 5.4698C1.04724 5.39415 1.03704 5.31066 1.05062 5.22935C1.06421 5.14804 1.10099 5.07239 1.15655 5.01149L5.29821 0.426526Z" fill="white"/>
    </g>
    <defs>
        <clipPath id="clip0_7_86">
            <rect width="184.143" height="22.3203" fill="white" transform="translate(0.57373 0.147583)"/>
        </clipPath>
    </defs>
</svg>
