<svg width="187" height="39" viewBox="0 0 187 39" fill="none" xmlns="http://www.w3.org/2000/svg">
<path d="M52.4404 27.4426H57.5622C57.5622 28.9494 58.8798 30.3612 61.1804 30.3612C63.3427 30.3612 64.7526 29.373 64.7526 27.9611C64.7526 26.7368 63.8117 26.1721 62.1673 25.796L59.2539 25.0453C54.3194 23.7259 53.0506 21.0871 53.0506 18.3164C53.0506 14.8859 56.4342 11.8697 61.2278 11.8697C65.128 11.8697 69.546 13.8 69.4987 18.7399H64.282C64.282 17.187 62.9197 16.2462 61.3688 16.2462C59.6769 16.2462 58.5015 17.1869 58.5015 18.5525C58.5015 19.6819 59.5834 20.3402 60.8523 20.6226L64.3769 21.5634C69.3103 22.834 70.2037 25.9399 70.2037 27.9639C70.2037 32.434 65.7394 34.7865 61.2753 34.7865C56.9047 34.7839 52.5339 32.149 52.4404 27.4426Z" fill="white"/>
<path d="M74.3837 23.2551C74.3837 16.2912 79.786 11.8673 86.0383 11.8673C92.2905 11.8673 97.7403 16.2912 97.7403 23.2551C97.7403 30.2189 92.2892 34.7841 86.0383 34.7841C79.7873 34.7841 74.3837 30.2203 74.3837 23.2551ZM92.2418 23.2551C92.2418 19.4908 89.4219 16.9496 86.0383 16.9496C82.6545 16.9496 79.8822 19.4908 79.8822 23.2551C79.8822 27.1144 82.6493 29.7017 86.0383 29.7017C89.4273 29.7017 92.2418 27.1144 92.2418 23.2551Z" fill="white"/>
<path d="M103.328 0.573792H108.779V34.3124H103.328V0.573792Z" fill="white"/>
<path d="M114.236 27.4426H119.357C119.357 28.9494 120.675 30.3612 122.977 30.3612C125.138 30.3612 126.548 29.373 126.548 27.9611C126.548 26.7368 125.608 26.1721 123.964 25.796L121.049 25.0453C116.116 23.7259 114.847 21.0871 114.847 18.3164C114.847 14.8859 118.229 11.8697 123.016 11.8697C126.918 11.8697 131.335 13.8 131.287 18.7399H126.071C126.071 17.187 124.708 16.2462 123.157 16.2462C121.465 16.2462 120.291 17.1869 120.291 18.5525C120.291 19.6819 121.372 20.3402 122.641 20.6226L126.166 21.5634C131.1 22.834 131.993 25.9399 131.993 27.9639C131.993 32.434 127.528 34.7865 123.064 34.7865C118.7 34.7839 114.329 32.149 114.236 27.4426Z" fill="white"/>
<path d="M158.787 25.2312H141.824C142.433 28.2896 144.784 29.8491 148.025 29.8491C150.421 29.8491 152.677 28.9084 153.993 27.1206L157.612 29.8914C155.591 33.0909 151.739 34.785 147.743 34.785C141.164 34.785 136.184 30.1737 136.184 23.3062C136.184 16.2948 141.446 11.8709 147.697 11.8709C153.993 11.8709 158.929 16.2473 158.929 23.1175C158.922 23.8242 158.875 24.53 158.787 25.2312ZM153.476 21.4195C153.149 18.4086 150.841 16.6696 147.791 16.6696C144.83 16.6696 142.48 18.0813 141.824 21.4195H153.476Z" fill="white"/>
<path d="M186.602 12.3385V34.3132H181.151V31.3485C179.647 33.7023 176.545 34.779 173.866 34.779C168.086 34.779 163.061 30.3087 163.061 23.3001C163.061 16.2413 168.043 11.8648 173.823 11.8648C176.59 11.8648 179.651 12.948 181.155 15.2531V12.3385H186.602ZM181.057 23.2552C181.057 19.3974 177.861 16.9498 174.712 16.9498C171.328 16.9498 168.556 19.5886 168.556 23.2552C168.556 26.9219 171.323 29.6556 174.712 29.6556C178.046 29.6556 181.054 27.1145 181.054 23.2552H181.057Z" fill="white"/>
<path d="M29.5305 31.6691C31.0705 29.883 31.9129 27.5993 31.9023 25.2397C31.9023 19.9515 27.7977 15.6661 22.7342 15.6661C20.9153 15.6662 19.1407 16.2263 17.6506 17.2705C17.6506 17.2705 20.0751 13.5286 27.6806 14.7239C35.286 15.9194 36.6577 21.9055 36.3533 26.5552C35.278 29.3755 33.5226 31.8857 31.2434 33.862L29.5305 31.6691Z" fill="white"/>
<path d="M31.2197 33.8663L31.2132 33.8809C30.8706 34.1778 30.5175 34.4667 30.1471 34.7424C27.6185 36.6208 24.6503 37.8171 21.5272 38.2164C20.1785 38.3887 18.8205 38.41 17.4776 38.2834C15.7109 38.1169 13.7572 36.9653 12.0988 36.2938C9.17993 35.1119 7.17346 33.7414 5.20543 31.2804C3.23741 28.8195 1.95929 26.2442 1.44543 23.1338L7.94115 24.11C8.2911 24.8537 8.75456 26.7003 9.24408 27.3604C12.3893 31.6062 17.561 33.0339 22.2887 31.5943C23.0069 31.3742 23.6692 31.0017 24.2305 30.502C24.7919 30.0024 25.2391 29.3874 25.5415 28.6991C25.8441 28.0107 25.9949 27.2651 25.9834 26.5133C25.9722 25.7613 25.7991 25.0205 25.476 24.3416C25.153 23.6628 24.6875 23.0616 24.1115 22.5791C23.5353 22.0966 22.8621 21.7442 22.1377 21.5458C21.4132 21.3474 20.6545 21.3078 19.9134 21.4296C19.1723 21.5514 18.4662 21.8318 17.843 22.2516C17.843 22.2516 21.4152 19.3251 26.1943 20.977C26.1943 20.977 30.7771 22.4429 32.2897 27.3273C33.8024 32.2118 31.2197 33.8663 31.2197 33.8663Z" fill="white"/>
<path d="M36.3574 26.4958C37.4541 23.6123 37.808 20.4986 37.3861 17.442C36.9642 14.3855 35.7802 11.4846 33.9434 9.00708C33.8854 8.92923 33.8235 8.85667 33.7656 8.78015L30.5716 7.14276L19.4454 5.15442L18.7865 7.56102C20.7888 7.49478 22.7774 7.9159 24.5814 8.78823C26.3855 9.66057 27.9512 10.9581 29.1445 12.5695C29.7931 13.4429 30.3207 14.4003 30.7126 15.4155L31.4452 15.7769L35.5575 19.8605L36.5418 24.233L36.3824 26.1778L36.3574 26.4958Z" fill="white"/>
<path d="M36.3529 26.5547C36.9372 24.7 37.0812 22.7344 36.7736 20.8142C36.4661 18.894 35.7153 17.0721 34.5812 15.4935C33.4469 13.9148 31.9606 12.6228 30.2402 11.7203C28.5199 10.8178 26.613 10.3297 24.6712 10.2947C22.7293 10.2597 20.8062 10.6788 19.0544 11.5187C17.3027 12.3587 15.7709 13.5962 14.5807 15.133C13.3906 16.6698 12.5749 18.4634 12.1985 20.3714C11.8221 22.2792 11.8954 24.2487 12.4126 26.1231C12.6996 23.1081 14.1124 20.3126 16.3686 18.2953C18.6247 16.2782 21.558 15.1878 24.5822 15.2423C27.6064 15.2969 30.4987 16.4922 32.6809 18.5894C34.863 20.6866 36.1744 23.5313 36.3529 26.5547Z" fill="white"/>
<path d="M31.2136 33.8843C32.072 33.0208 32.7441 31.9898 33.188 30.8553C33.6318 29.7208 33.8381 28.507 33.7941 27.2893C33.75 26.0717 33.4563 24.8761 32.9316 23.7768C32.4067 22.6774 31.6618 21.6979 30.7432 20.8988C29.8245 20.0998 28.7517 19.4985 27.5911 19.1319C26.4306 18.7654 25.2073 18.6417 23.9971 18.7684C22.7868 18.895 21.6155 19.2695 20.5558 19.8683C19.4961 20.4673 18.5706 21.2778 17.8368 22.2498C19.5138 21.1484 21.504 20.6253 23.505 20.7603C25.5059 20.8954 27.4081 21.6811 28.9223 22.998C30.4364 24.3149 31.4796 26.091 31.8932 28.056C32.3068 30.0211 32.0681 32.0676 31.2136 33.8843Z" fill="white"/>
<path d="M14.4167 10.3259C17.6039 7.95966 21.5469 6.84528 25.4994 7.19371C29.4519 7.54213 33.1398 9.32915 35.8652 12.2167C34.5055 9.27814 32.3955 6.75101 29.7481 4.89054C27.1008 3.03005 24.0099 1.90213 20.7879 1.6207C17.5658 1.33928 14.3267 1.91432 11.3976 3.28774C8.46854 4.66115 5.95334 6.7843 4.10607 9.44269C2.25882 12.1011 1.14492 15.2005 0.876924 18.4281C0.608929 21.6556 1.19631 24.8967 2.57975 27.8241C3.96318 30.7514 6.09366 33.2613 8.75597 35.1003C11.4183 36.9392 14.5181 38.042 17.7424 38.2973C15.1141 37.1804 12.8273 35.388 11.1131 33.1016C9.39904 30.8153 8.31854 28.116 7.98101 25.2771C7.64347 22.4383 8.06087 19.5604 9.19097 16.935C10.3211 14.3095 12.1238 12.0296 14.4167 10.3259Z" fill="white"/>
</svg>
