<svg width="156" height="33" viewBox="0 0 156 33" fill="none" xmlns="http://www.w3.org/2000/svg">
    <path d="M153.808 1.03155L153.808 1.03171L154.897 25.0711L154.897 25.0716C154.898 25.0872 154.896 25.1028 154.891 25.1174C154.885 25.1321 154.877 25.1455 154.867 25.157L155.175 25.4388L154.867 25.1571C154.856 25.1686 154.843 25.1779 154.829 25.1845C154.815 25.1911 154.8 25.1949 154.784 25.1956L154.784 25.1956L2.60893 32.0902L2.60878 32.0903C2.59317 32.091 2.57756 32.0886 2.56286 32.0833L2.42479 32.465L2.56285 32.0833C2.54815 32.078 2.53464 32.0698 2.52308 32.0592C2.51154 32.0487 2.50218 32.036 2.49554 32.0218L2.11712 32.1992L2.49554 32.0218C2.4889 32.0077 2.48512 31.9924 2.48441 31.9767L1.39596 7.93737L1.39595 7.93721C1.39524 7.92159 1.39761 7.90598 1.40293 7.89128C1.40825 7.87657 1.41641 7.86306 1.42695 7.85151C1.43749 7.83996 1.45021 7.8306 1.46436 7.82397C1.47852 7.81733 1.49384 7.81355 1.50945 7.81284C1.50946 7.81284 1.50946 7.81283 1.50947 7.81283L153.684 0.918174L153.685 0.918168L154.176 0.809211C154.206 0.873064 154.223 0.942187 154.226 1.01263L153.808 1.03155ZM153.808 1.03155C153.808 1.01599 153.804 1.00073 153.797 0.986623M153.808 1.03155L153.797 0.986623M153.797 0.986623C153.791 0.972499 153.781 0.959748 153.77 0.949146L154.051 0.640486L153.797 0.986623Z" stroke="white" stroke-width="0.835843"/>
    <path d="M18.8618 25.5102L10.1808 25.903L9.60876 13.2901L18.1884 12.9011L18.0048 15.6389L13.4089 15.847L13.5018 17.8893L17.1445 17.7246L17.268 20.4485L13.6248 20.6132L13.7339 23.0138L18.7365 22.7873L18.8618 25.5096V25.5102ZM28.0713 25.0928L25.6301 21.2977L23.4415 25.3026L19.4577 25.4829L23.4465 18.6494L19.2952 12.851L23.4643 12.6618L25.5038 15.8782L27.3457 12.486L31.3484 12.3051L27.6896 18.5259L32.2432 24.9036L28.0713 25.0928Z" fill="white"/>
    <path d="M41.7449 20.8057L42.2412 23.854C41.7209 24.1645 41.1556 24.3916 40.5646 24.5268C39.8545 24.7082 39.1278 24.8162 38.3955 24.8479C36.3644 24.9397 34.7751 24.4372 33.6282 23.3404C32.4813 22.2442 31.8614 20.6744 31.769 18.631C31.6812 17.421 31.8834 16.2075 32.3589 15.0913C32.7935 14.1158 33.5137 13.295 34.4245 12.7374C35.4502 12.1373 36.613 11.8113 37.8012 11.7909C38.5301 11.7536 39.2619 11.8003 39.9803 11.9311C40.6364 12.0502 41.2702 12.2689 41.8601 12.5794L41.209 15.5092C40.8059 15.1694 40.3494 14.8986 39.8579 14.7079C39.3855 14.5386 38.8836 14.4667 38.3827 14.4964C37.9586 14.4894 37.5389 14.5837 37.1586 14.7716C36.7784 14.9595 36.4484 15.2354 36.1963 15.5765C35.7292 16.4531 35.5087 17.4399 35.5581 18.432C35.6076 19.424 35.9253 20.384 36.4773 21.2097C36.7713 21.5331 37.1376 21.7825 37.5462 21.9374C37.9549 22.0923 38.3945 22.1484 38.829 22.1011C39.4111 22.0789 39.9825 21.9368 40.5073 21.6838C40.972 21.4726 41.392 21.1745 41.7449 20.8057ZM47.4943 24.2124L43.8172 24.3793L43.2457 11.7653L46.9228 11.5983L47.1259 16.0924L50.4286 15.9427L50.2255 11.4492L53.9021 11.2823L54.4736 23.8958L50.7964 24.0627L50.5599 18.8369L47.2573 18.9866L47.4943 24.2118V24.2124ZM68.8405 23.2453L65.0799 23.4155C64.8167 22.6198 64.5535 21.8363 64.2908 21.0633L60.1546 21.2509C59.9606 22.0548 59.7696 22.8595 59.5814 23.6648L55.9048 23.8318C56.5141 21.7005 57.1307 19.5659 57.7556 17.4279C58.3813 15.2859 59.0272 13.1499 59.6933 11.0202L63.9152 10.8293C64.7795 12.8881 65.621 14.9564 66.4394 17.0339C67.2525 19.0994 68.0529 21.1699 68.8405 23.2453ZM60.8463 18.4902L63.3654 18.3761C63.13 17.6933 62.8891 17.0072 62.6414 16.3194C62.395 15.6354 62.1534 14.9497 61.9169 14.2622C61.7322 14.9661 61.551 15.671 61.3732 16.3767C61.1952 17.0846 61.0193 17.7891 60.8463 18.4902ZM81.1652 22.6871L78.1174 22.8251L73.1832 15.9694L73.5037 23.0338L70.2695 23.1807L69.698 10.5672L73.2216 10.4075L77.6422 16.5019L77.3578 10.22L80.5926 10.0736L81.1652 22.6871ZM93.5261 14.6556L93.8232 21.2091C93.5307 21.4832 93.1864 21.696 92.8105 21.8352C92.3048 22.0416 91.7807 22.1996 91.2451 22.307C90.6476 22.4318 90.0409 22.5079 89.431 22.5346C88.2023 22.6245 86.97 22.4171 85.8385 21.9298C84.8516 21.4849 84.028 20.7434 83.4824 19.8085C82.9193 18.7304 82.6004 17.5415 82.5482 16.3264C82.496 15.1112 82.7117 13.8994 83.1802 12.7769C83.6463 11.7906 84.4002 10.9686 85.3426 10.4192C86.4127 9.82132 87.614 9.4973 88.8395 9.47595C89.6013 9.43924 90.3648 9.4904 91.1149 9.62843C91.7827 9.74417 92.4304 9.95674 93.037 10.2583L92.3853 13.1882C91.9308 12.8536 91.4272 12.5916 90.8923 12.4113C90.3587 12.235 89.797 12.1592 89.2357 12.1876C87.1929 12.28 86.2291 13.5866 86.3437 16.1063C86.4595 18.6594 87.5669 19.8886 89.6659 19.794C89.9163 19.7829 90.1656 19.754 90.4121 19.7089L90.3136 17.5303L88.4233 17.616L88.3003 14.8921L93.5261 14.6556ZM104.299 21.6387L95.6173 22.0321L95.0458 9.41864L103.625 9.02966L103.442 11.7675L98.8459 11.9762L98.9383 14.0184L102.581 13.8531L102.705 16.5771L99.0613 16.7423L99.1698 19.143L104.173 18.9159L104.299 21.6387Z" fill="white"/>
    <path d="M107.799 21.7028C107.547 21.7205 107.294 21.6876 107.056 21.6059C106.817 21.5243 106.597 21.3956 106.409 21.2275C106.221 21.0594 106.068 20.8553 105.961 20.6273C105.853 20.3992 105.792 20.1519 105.781 19.8998C105.77 19.65 105.808 19.4004 105.893 19.1654C105.979 18.9303 106.109 18.7143 106.278 18.5298C106.636 18.1627 107.119 17.9454 107.631 17.9223C108.143 17.8991 108.644 18.0718 109.033 18.4052C109.402 18.7482 109.621 19.2221 109.644 19.725C109.667 20.2279 109.491 20.7196 109.155 21.0946C108.982 21.2826 108.773 21.4336 108.539 21.5381C108.306 21.6427 108.054 21.6987 107.799 21.7028Z" fill="white"/>
    <path d="M123.874 20.7523L120.114 20.9226C119.851 20.1268 119.588 19.3428 119.325 18.5698L115.187 18.7574C114.993 19.5613 114.802 20.366 114.614 21.1713L110.937 21.3383C111.546 19.207 112.163 17.0724 112.787 14.9344C113.413 12.7927 114.059 10.6568 114.725 8.5272L118.95 8.33578C119.814 10.3948 120.656 12.4633 121.474 14.541C122.287 16.6061 123.087 18.6764 123.874 20.7517V20.7523ZM115.88 15.9973L118.4 15.8832C118.164 15.1998 117.923 14.5143 117.675 13.8265C117.429 13.1424 117.188 12.4566 116.951 11.7692C116.766 12.4732 116.585 13.1781 116.407 13.8838C116.229 14.5911 116.054 15.2956 115.88 15.9973ZM128.981 20.5203L125.304 20.6872L124.732 8.07368L128.784 7.89004C129.777 7.82798 130.774 7.92091 131.739 8.1655C132.51 8.35107 133.217 8.74024 133.786 9.29235C134.299 9.82641 134.59 10.5359 134.6 11.2767C134.649 11.9155 134.48 12.5521 134.118 13.0814C133.727 13.6106 133.197 14.0214 132.586 14.2683C133.368 14.7296 134.017 15.3845 134.472 16.1698C135.243 17.4428 135.889 18.7872 136.402 20.1841L132.249 20.3722C131.851 19.3672 131.496 18.567 131.185 17.9727C130.951 17.496 130.662 17.0483 130.323 16.6389C130.119 16.3872 129.855 16.1911 129.555 16.0685C129.304 15.9825 129.039 15.9396 128.774 15.9416L128.981 20.5208V20.5203ZM129.092 10.5539L128.53 10.5795L128.66 13.4397L129.222 13.4141C129.707 13.4192 130.178 13.2493 130.548 12.9356C130.7 12.8005 130.819 12.6323 130.896 12.4441C130.974 12.2558 131.007 12.0524 130.993 11.8493C130.992 11.6525 130.942 11.459 130.848 11.2861C130.754 11.1133 130.618 10.9665 130.454 10.8588C130.045 10.6129 129.567 10.5059 129.092 10.5539ZM143.246 19.8742L139.571 20.0406L139.123 10.1677L135.684 10.3235L135.56 7.58287L146.115 7.10431L146.239 9.84548L142.8 10.0013L143.246 19.8742Z" fill="white"/>
</svg>
