<svg width="189" height="33" viewBox="0 0 189 33" fill="none" xmlns="http://www.w3.org/2000/svg">
    <path d="M27.7126 26.6794C27.7126 29.9939 30.1655 32.6809 33.1914 32.6809H51.4245C53.1586 32.6809 54.5644 31.141 54.5644 29.2415C54.5644 27.342 53.1586 25.8022 51.4245 25.8022H38.1297C38.0463 25.8022 37.9787 25.7281 37.9787 25.6367C37.9787 25.5878 37.9984 25.5414 38.0326 25.51L44.0711 19.9568C45.0491 19.0575 45.6138 17.7305 45.6138 16.3318C45.6138 14.9431 45.057 13.6244 44.0908 12.7251L38.1238 7.17097C38.09 7.13945 38.0704 7.09323 38.0704 7.04456C38.0704 6.95295 38.1382 6.87868 38.2219 6.87868H51.4245C53.1586 6.87868 54.5644 5.33883 54.5644 3.43934C54.5644 1.53984 53.1586 -8.25059e-08 51.4245 0L27.7126 1.12817e-06V8.74819L35.4391 16.0572C35.5143 16.1283 35.5574 16.2317 35.5574 16.3404C35.5574 16.4492 35.5143 16.5525 35.4391 16.6236L29.6104 22.1374C28.4053 23.2774 27.7126 24.9353 27.7126 26.6794Z" fill="white"/>
    <path d="M6.10596 0C3.2091 0 0.860718 2.57235 0.860718 5.74549V28.8976C0.860718 30.987 2.40707 32.6809 4.31459 32.6809C6.22211 32.6809 7.76846 30.987 7.76846 28.8976V12.653C7.76846 12.5656 7.83317 12.4947 7.913 12.4947C7.97272 12.4947 8.02629 12.5349 8.04782 12.5959L14.2665 30.2162C14.7466 31.5765 15.941 32.4734 17.2724 32.4734C18.6016 32.4734 19.7945 31.5795 20.2761 30.2224L26.5283 12.6064L27.7126 8.74819V1.27756e-06C26.0096 5.05537e-07 24.4773 1.13277 23.8401 2.86266L17.5065 20.0593C17.4676 20.1649 17.3741 20.234 17.2702 20.234C17.1662 20.234 17.0727 20.1649 17.0338 20.0593L10.9703 3.59591C10.1699 1.42292 8.24512 0 6.10596 0Z" fill="white"/>
    <path d="M140.793 21.4077C140.775 21.499 140.768 21.593 140.787 21.6839C140.884 22.1336 141.251 22.4681 141.688 22.4681H147.117C147.629 22.4681 148.043 22.0108 148.043 21.4468V21.4178C148.043 20.8537 147.629 20.3965 147.117 20.3965H143.966C143.455 20.3965 143.04 19.9392 143.04 19.3752V18.5802C143.04 18.0162 143.455 17.559 143.966 17.559H146.723C147.234 17.559 147.649 17.1017 147.649 16.5377V16.5087C147.649 15.9446 147.234 15.4874 146.723 15.4874H143.966C143.455 15.4874 143.04 15.0302 143.04 14.4661V13.677C143.04 13.1129 143.455 12.6557 143.966 12.6557H147.096C147.608 12.6557 148.022 12.1984 148.022 11.6344V11.6054C148.022 11.0413 147.608 10.5841 147.096 10.5841H143.721C143.243 10.5841 142.831 10.9234 142.74 11.3933L140.793 21.4077Z" fill="white"/>
    <path d="M68.4536 22.4681C68.1252 22.4681 67.8368 22.2796 67.6724 21.9953C67.5912 21.8548 67.5908 21.6857 67.6218 21.5264L69.5851 11.4266C69.6792 10.9422 70.1887 10.5901 70.4621 11.0008C70.5062 11.067 70.5435 11.1398 70.5726 11.2181L73.2802 18.5042C73.2947 18.5432 73.3291 18.5686 73.3673 18.5686C73.4055 18.5686 73.4399 18.5432 73.4544 18.5042L76.162 11.2181C76.3045 10.8346 76.643 10.5841 77.0188 10.5841H78.281C78.7924 10.5841 79.2069 11.0413 79.2069 11.6054V21.4468C79.2069 22.0108 78.7924 22.4681 78.281 22.4681H77.9233C77.4119 22.4681 76.9974 22.0108 76.9974 21.4468V14.7919C76.9974 14.7594 76.9735 14.733 76.944 14.733C76.9222 14.733 76.9026 14.7477 76.8945 14.77L74.3526 21.7685C74.2119 22.156 73.8715 22.41 73.4931 22.41H73.2424C72.8635 22.41 72.5229 22.1554 72.3824 21.7673L69.8401 14.741C69.832 14.7187 69.8124 14.704 69.7906 14.704C69.7611 14.704 69.7373 14.7304 69.7373 14.7628V21.4468C69.7373 22.0108 69.3227 22.4681 68.8113 22.4681H68.4536Z" fill="white"/>
    <path d="M104.893 13.7241C105.115 14.1083 105.459 14.4255 105.872 14.4255H106.427C106.988 14.4255 107.428 13.8687 107.209 13.298C106.544 11.5635 104.905 10.4216 102.881 10.4216C100.034 10.4216 97.8406 12.6847 97.8406 16.5377C97.8406 20.2978 99.8923 22.6305 102.928 22.6305C105.648 22.6305 107.589 20.733 107.589 17.6054V17.1296C107.589 16.5655 107.175 16.1083 106.663 16.1083H103.938C103.465 16.1083 103.081 16.5318 103.081 17.0541C103.081 17.5765 103.465 18 103.938 18H104.447C104.967 18 105.411 18.4918 105.204 19.0176C104.859 19.8903 104.067 20.4081 102.939 20.4081C101.229 20.4081 100.15 18.998 100.15 16.5145C100.15 14.0425 101.271 12.6441 102.918 12.6441C103.818 12.6441 104.496 13.0373 104.893 13.7241Z" fill="white"/>
    <path fill-rule="evenodd" clip-rule="evenodd" d="M86.334 21.7629C86.2099 22.1834 85.8545 22.4681 85.4535 22.4681H84.984C84.3478 22.4681 83.9012 21.7768 84.1088 21.1135L87.189 11.2721C87.3178 10.8604 87.6693 10.5841 88.0642 10.5841H89.6797C90.0748 10.5841 90.4263 10.8606 90.5551 11.2725L93.6309 21.1139C93.8382 21.7771 93.3915 22.4681 92.7555 22.4681H92.2854C91.8845 22.4681 91.5291 22.1834 91.405 21.7629L91.0215 20.4634C90.8974 20.0428 90.542 19.7582 90.141 19.7582H87.5979C87.197 19.7582 86.8416 20.0428 86.7175 20.4634L86.334 21.7629ZM87.8984 16.4598C87.7039 17.1197 88.1498 17.7969 88.779 17.7969H88.9652C89.5944 17.7969 90.0403 17.1197 89.8458 16.4598L88.9272 13.3439C88.9194 13.3176 88.8972 13.2998 88.8721 13.2998C88.847 13.2998 88.8248 13.3176 88.817 13.3439L87.8984 16.4598Z" fill="white"/>
    <path d="M113.838 10.5841C114.349 10.5841 114.764 11.0413 114.764 11.6054V21.4468C114.764 22.0108 114.349 22.4681 113.838 22.4681H113.412C112.9 22.4681 112.486 22.0108 112.486 21.4468V11.6054C112.486 11.0413 112.9 10.5841 113.412 10.5841H113.838Z" fill="white"/>
    <path d="M128.285 14.7446C128.841 14.7446 129.28 14.2022 129.101 13.6224C128.469 11.5742 126.784 10.4216 124.653 10.4216C121.806 10.4216 119.634 12.6383 119.634 16.5261C119.634 20.4023 121.77 22.6305 124.653 22.6305C126.936 22.6305 128.471 21.2467 129.075 19.5311C129.275 18.9603 128.841 18.4153 128.286 18.4125L127.797 18.41C127.35 18.4078 126.987 18.7753 126.767 19.2049C126.371 19.9782 125.621 20.4081 124.689 20.4081C123.053 20.4081 121.943 19.0677 121.943 16.5261C121.943 14.0541 123.037 12.6441 124.705 12.6441C125.657 12.6441 126.406 13.1072 126.785 13.9071C126.998 14.3564 127.366 14.7446 127.825 14.7446H128.285Z" fill="white"/>
    <path fill-rule="evenodd" clip-rule="evenodd" d="M156.838 22.4681C160.121 22.4681 162.11 20.2282 162.11 16.5145C162.11 12.8123 160.121 10.5841 156.87 10.5841H153.945C153.433 10.5841 153.019 11.0413 153.019 11.6054V21.4468C153.019 22.0108 153.433 22.4681 153.945 22.4681H156.838ZM156.223 20.3153C155.711 20.3153 155.297 19.858 155.297 19.294V13.7582C155.297 13.1942 155.711 12.7369 156.223 12.7369H156.749C158.769 12.7369 159.837 13.8742 159.837 16.5145C159.837 19.1663 158.769 20.3153 156.743 20.3153H156.223Z" fill="white"/>
    <path d="M167.908 22.4681C167.397 22.4681 166.982 22.0108 166.982 21.4468V11.6054C166.982 11.0413 167.397 10.5841 167.908 10.5841H173.316C173.828 10.5841 174.242 11.0413 174.242 11.6054V11.6344C174.242 12.1984 173.828 12.6557 173.316 12.6557H170.186C169.675 12.6557 169.26 13.1129 169.26 13.677V14.4661C169.26 15.0302 169.675 15.4874 170.186 15.4874H172.943C173.454 15.4874 173.869 15.9446 173.869 16.5087V16.5377C173.869 17.1017 173.454 17.559 172.943 17.559H170.186C169.675 17.559 169.26 18.0162 169.26 18.5802V19.3752C169.26 19.9392 169.675 20.3965 170.186 20.3965H173.337C173.849 20.3965 174.263 20.8537 174.263 21.4178V21.4468C174.263 22.0108 173.849 22.4681 173.337 22.4681H167.908Z" fill="white"/>
    <path d="M188.25 11.6054C188.25 11.0413 187.836 10.5841 187.325 10.5841H186.909C186.398 10.5841 185.983 11.0413 185.983 11.6054V17.9896C185.983 18.0274 185.955 18.058 185.921 18.058C185.901 18.058 185.881 18.0469 185.87 18.0283L181.514 11.0275C181.341 10.75 181.055 10.5841 180.75 10.5841H180.164C179.653 10.5841 179.239 11.0413 179.239 11.6054V21.4468C179.239 22.0108 179.653 22.4681 180.164 22.4681H180.591C181.102 22.4681 181.516 22.0108 181.516 21.4468V15.0455C181.516 15.0139 181.54 14.9884 181.568 14.9884C181.585 14.9884 181.601 14.9976 181.611 15.013L186.007 22.0275C186.18 22.3034 186.464 22.4681 186.768 22.4681H187.325C187.836 22.4681 188.25 22.0108 188.25 21.4468V11.6054Z" fill="white"/>
</svg>
