<svg width="186" height="52" viewBox="0 0 186 52" fill="none" xmlns="http://www.w3.org/2000/svg">
    <path fill-rule="evenodd" clip-rule="evenodd" d="M63.8741 31.7073L61.5935 27.7677H58.2543V31.7073H56.29V19.8781H62.2045C62.9255 19.8723 63.6342 20.0646 64.2535 20.4338C64.8728 20.8032 65.3788 21.3354 65.7166 21.9724C66.0542 22.6094 66.2105 23.3269 66.1686 24.0467C66.1265 24.7665 65.8878 25.461 65.4784 26.0544C65.0507 26.6839 64.4473 27.1735 63.7432 27.4623L66.1767 31.7073H63.8741ZM62.2045 21.8859H58.2543V25.8144H62.2045C62.4627 25.8142 62.718 25.7609 62.9547 25.6576C63.1912 25.5545 63.4039 25.4034 63.5795 25.2142C63.8514 24.9381 64.0361 24.5882 64.1106 24.2078C64.1851 23.8275 64.1461 23.4336 63.9984 23.0753C63.8505 22.717 63.6008 22.4101 63.2798 22.1927C62.959 21.9755 62.5811 21.8574 62.1937 21.8532L62.2045 21.8859ZM83.2331 19.8781L77.3076 31.7073H79.512L83.2331 24.2975L86.9435 31.7073H89.1477L83.2331 19.8781ZM108.201 19.8781H105.691L102.319 24.243L98.958 19.8781H96.4372L101.381 26.1855V31.7073H103.345V26.0873L108.201 19.8781ZM118.262 19.8781H122.202C123.767 19.8895 125.264 20.5163 126.371 21.6231C127.478 22.7297 128.105 24.2276 128.116 25.7927C128.107 27.3587 127.482 28.858 126.374 29.9653C125.267 31.0727 123.768 31.6986 122.202 31.7073H118.262V19.8781ZM122.202 29.6992C123.245 29.6965 124.246 29.2804 124.984 28.5422C125.722 27.8041 126.138 26.8038 126.141 25.7598C126.13 24.7186 125.711 23.7231 124.975 22.9868C124.238 22.2505 123.243 21.8318 122.202 21.8204H120.215V29.6992H122.202ZM141.244 19.8781H139.28V31.7073H141.244V19.8781ZM162.262 26.7638C162.273 27.4145 162.15 28.0604 161.9 28.6614C161.65 29.2622 161.28 29.8052 160.81 30.2558C160.121 30.9452 159.243 31.4145 158.288 31.6043C157.33 31.7939 156.34 31.6955 155.44 31.3215C154.54 30.9475 153.771 30.3147 153.232 29.5033C152.692 28.6919 152.405 27.7384 152.407 26.7638V19.8781H154.372V26.7638C154.372 27.5482 154.683 28.3003 155.238 28.855C155.792 29.4096 156.544 29.7211 157.329 29.7211C158.113 29.7211 158.866 29.4096 159.421 28.855C159.974 28.3003 160.286 27.5482 160.286 26.7638V19.8781H162.262V26.7638ZM175.389 31.7073V24.6359L179.35 28.5862L183.29 24.6359V31.7073H185.287V19.8781L179.35 25.7927L173.436 19.8781V31.7073H175.389Z" fill="#F1F1F2"/>
    <path d="M41.6999 19.507V37.098L22.1337 48.3924L2.55668 37.098V14.4982L22.1337 3.19279L37.1712 11.8792L39.441 10.5697L22.1337 0.573792L0.286865 13.1887V38.4075L22.1337 51.0224L43.9806 38.4075V18.1975L41.6999 19.507Z" fill="white"/>
    <path d="M16.6556 37.109H13.3818V26.1309H24.2944C25.3269 26.1195 26.3132 25.702 27.0403 24.9688C27.7673 24.2358 28.1765 23.2459 28.1793 22.2132C28.1851 21.7028 28.0866 21.1964 27.8896 20.7254C27.6924 20.2543 27.4012 19.8286 27.0333 19.4743C26.6775 19.1086 26.2516 18.8187 25.7809 18.6218C25.3102 18.4248 24.8046 18.325 24.2944 18.3284H13.3818V14.9892H24.3052C26.2176 15.0007 28.0485 15.7655 29.4009 17.1177C30.7531 18.4701 31.5179 20.301 31.5293 22.2132C31.541 23.6772 31.0947 25.108 30.2527 26.3054C29.4777 27.4512 28.3855 28.3462 27.1098 28.8808C25.8466 29.2815 24.5283 29.4804 23.2031 29.4702H16.6556V37.109Z" fill="white"/>
    <path d="M31.453 36.8361H27.6335L24.6873 31.6964C25.8529 31.625 27.0027 31.3899 28.1028 30.998L31.453 36.8361Z" fill="white"/>
    <path d="M39.4191 15.8514L41.6779 17.1064L43.9369 15.8514V13.1996L41.6779 11.8901L39.4191 13.1996V15.8514Z" fill="white"/>
</svg>
